<svg width="68" height="68" viewBox="0 0 68 68" fill="none" xmlns="http://www.w3.org/2000/svg">
<g clip-path="url(#clip0_1_24002)">
<path d="M0 24.1778C0 15.7148 0 11.4833 1.64701 8.25081C3.09577 5.40747 5.40747 3.09577 8.25081 1.64701C11.4833 0 15.7148 0 24.1778 0H43.8222C52.2852 0 56.5167 0 59.7492 1.64701C62.5925 3.09577 64.9042 5.40747 66.353 8.25081C68 11.4833 68 15.7148 68 24.1778V43.8222C68 52.2852 68 56.5167 66.353 59.7492C64.9042 62.5925 62.5925 64.9042 59.7492 66.353C56.5167 68 52.2852 68 43.8222 68H24.1778C15.7148 68 11.4833 68 8.25081 66.353C5.40747 64.9042 3.09577 62.5925 1.64701 59.7492C0 56.5167 0 52.2852 0 43.8222V24.1778Z" fill="url(#paint0_linear_1_24002)"/>
<path fill-rule="evenodd" clip-rule="evenodd" d="M38.4862 53.1251V14.8751C38.4862 12.3975 36.4777 10.389 34 10.389C31.5224 10.389 29.5139 12.3975 29.5139 14.8751V53.1251C29.5139 55.6027 31.5224 57.6112 34 57.6112C36.4777 57.6112 38.4862 55.6027 38.4862 53.1251ZM34 7.55566C29.9576 7.55566 26.6806 10.8327 26.6806 14.8751V53.1251C26.6806 57.1675 29.9576 60.4445 34 60.4445C38.0425 60.4445 41.3195 57.1675 41.3195 53.1251V14.8751C41.3195 10.8327 38.0425 7.55566 34 7.55566Z" fill="white"/>
<path fill-rule="evenodd" clip-rule="evenodd" d="M23.6487 50.6952L50.6955 23.6484C52.4475 21.8965 52.4475 19.056 50.6955 17.3041C48.9436 15.5522 46.1032 15.5522 44.3512 17.3041L17.3044 44.3509C15.5525 46.1029 15.5525 48.9433 17.3044 50.6952C19.0563 52.4472 21.8968 52.4472 23.6487 50.6952ZM52.699 15.3006C49.8406 12.4422 45.2062 12.4422 42.3477 15.3006L15.3009 42.3475C12.4425 45.2059 12.4425 49.8403 15.3009 52.6987C18.1593 55.5571 22.7938 55.5571 25.6522 52.6987L52.699 25.6519C55.5574 22.7935 55.5574 18.159 52.699 15.3006Z" fill="white"/>
<path fill-rule="evenodd" clip-rule="evenodd" d="M14.875 38.4862L53.125 38.4862C55.6026 38.4862 57.6111 36.4777 57.6111 34.0001C57.6111 31.5225 55.6026 29.514 53.125 29.514L14.875 29.514C12.3974 29.514 10.3889 31.5225 10.3889 34.0001C10.3889 36.4777 12.3974 38.4862 14.875 38.4862ZM60.4445 34.0001C60.4445 29.9577 57.1674 26.6807 53.125 26.6807L14.875 26.6807C10.8326 26.6807 7.55557 29.9577 7.55557 34.0001C7.55557 38.0425 10.8326 41.3196 14.875 41.3196L53.125 41.3196C57.1674 41.3196 60.4445 38.0425 60.4445 34.0001Z" fill="white"/>
<path fill-rule="evenodd" clip-rule="evenodd" d="M17.3047 23.6488L44.3515 50.6956C46.1035 52.4475 48.9439 52.4475 50.6958 50.6956C52.4478 48.9437 52.4478 46.1032 50.6958 44.3513L23.649 17.3044C21.8971 15.5525 19.0566 15.5525 17.3047 17.3044C15.5528 19.0564 15.5528 21.8968 17.3047 23.6488ZM52.6993 52.6991C55.5577 49.8406 55.5577 45.2062 52.6993 42.3478L25.6525 15.301C22.7941 12.4426 18.1596 12.4426 15.3012 15.301C12.4428 18.1594 12.4428 22.7938 15.3012 25.6522L42.3481 52.6991C45.2065 55.5575 49.8409 55.5575 52.6993 52.6991Z" fill="white"/>
</g>
<defs>
<linearGradient id="paint0_linear_1_24002" x1="34" y1="0" x2="34" y2="68" gradientUnits="userSpaceOnUse">
<stop stop-color="#9492FB"/>
<stop offset="1" stop-color="#3B82F6"/>
</linearGradient>
<clipPath id="clip0_1_24002">
<rect width="68" height="68" fill="white"/>
</clipPath>
</defs>
</svg>
