<svg width="87" height="96" viewBox="0 0 87 96" fill="none" xmlns="http://www.w3.org/2000/svg"><path d="M76.8673 1.2832H9.70546C7.8154 1.2832 6.2832 2.8154 6.2832 4.70546V73.4257C6.2832 74.7024 6.99387 75.873 8.12659 76.462L42.1169 94.1369C43.1168 94.6569 44.3085 94.6512 45.3035 94.1217L78.475 76.469C79.5917 75.8748 80.2895 74.7129 80.2895 73.4479V4.70546C80.2895 2.8154 78.7573 1.2832 76.8673 1.2832Z" fill="white"></path><path d="M79.0063 4.7056C79.0063 3.52432 78.0487 2.56669 76.8674 2.56669H9.7056C8.52432 2.56669 7.56669 3.52432 7.56669 4.7056V73.4256L7.57171 73.5748C7.62315 74.3139 8.05522 74.9784 8.71886 75.3235L42.7092 92.9983L42.8274 93.0556C43.4264 93.3218 44.1176 93.2993 44.7006 92.9892L77.8721 75.3365L77.9999 75.2625C78.6229 74.8738 79.0063 74.1894 79.0063 73.4482V4.7056ZM81.573 73.4482C81.573 75.1332 80.6725 76.6852 79.2202 77.5234L79.0782 77.602L45.9067 95.2546C44.5815 95.9599 43.0021 95.9894 41.6548 95.3407L41.5248 95.2755L7.53453 77.6007C6.02573 76.8161 5.06166 75.281 5.00292 73.5898L5 73.4256V4.7056C5 2.10677 7.10677 0 9.7056 0H76.8674C79.4662 0 81.573 2.10677 81.573 4.7056V73.4482Z" fill="#16171B"></path><path d="M52.4835 2.56689H34.0889V16.5899L43.3925 21.3893L52.4835 16.5899V2.56689Z" fill="#16171B"></path><path d="M45.9596 7.8185L45.6239 7.58843L43.2868 5.98877L37.9385 9.64823V11.7398L43.2861 15.4L48.633 11.7398V9.64823L45.9589 7.8185H45.9596ZM43.2868 6.9104L44.9512 8.04992L44.0965 8.63457L44.0204 8.68668L43.2875 8.18526L41.1483 9.64891L41.8812 10.151L42.5539 10.6118L43.2868 11.1139L45.4253 9.64959L44.6931 9.14817L44.7692 9.09607L45.6239 8.51142L47.2876 9.65026L46.4329 10.2356L43.2868 12.3888L41.6224 11.2492L40.9497 10.7891L40.14 10.2356L39.2852 9.65026L43.2868 6.9104Z" fill="white"></path><path d="M32.3776 2.35261L30.9873 2.24988V1.71094H35.6929V5.48351H34.4546C34.4546 5.66315 34.3026 5.57277 34.3026 4.06374C34.3026 2.55471 33.1206 2.35261 32.3776 2.35261Z" fill="#16171B" stroke="#16171B" stroke-width="0.427782"></path><path d="M54.515 2.35261L55.9053 2.24988V1.71094H51.1997V5.4835L52.0552 5.56098C52.0552 5.74062 52.2691 5.34709 52.2691 4.06374C52.2691 2.55471 53.772 2.35261 54.515 2.35261Z" fill="#16171B" stroke="#16171B" stroke-width="0.427782"></path><path d="M41.6025 85.6312C42.7148 86.1791 44.0184 86.1801 45.1316 85.634L75.3157 70.8264C76.0703 70.4562 76.9448 71.0342 76.8998 71.8736C76.879 72.2619 76.6549 72.6104 76.3102 72.7904L44.2924 89.5162C43.7122 89.8193 43.0205 89.8193 42.4403 89.5163L10.4728 72.8169C10.1 72.6221 9.86621 72.2363 9.86621 71.8156C9.86621 70.9788 10.7443 70.4325 11.495 70.8022L41.6025 85.6312Z" fill="#0A715C"></path><path d="M24.1864 55.3148C22.8352 55.3148 21.6742 55.0066 20.7034 54.39C19.7326 53.7734 18.9849 52.9207 18.4601 51.8318C17.9354 50.743 17.673 49.477 17.673 48.034C17.673 46.6303 17.9419 45.3775 18.4798 44.2755C19.0177 43.1735 19.7851 42.3077 20.7821 41.678C21.7923 41.0352 23.0057 40.7138 24.4226 40.7138C25.6688 40.7138 26.7118 40.9171 27.5514 41.3238C28.4041 41.7174 29.0862 42.288 29.5979 43.0358C30.1226 43.7835 30.4899 44.6756 30.6998 45.712L27.1578 45.8694C27.0266 45.1217 26.7511 44.5444 26.3313 44.1378C25.9115 43.718 25.2884 43.5081 24.4619 43.5081C23.7404 43.5081 23.1369 43.7048 22.6515 44.0984C22.1661 44.492 21.7988 45.0298 21.5496 45.712C21.3134 46.381 21.1954 47.155 21.1954 48.034C21.1954 48.9129 21.3134 49.6935 21.5496 50.3757C21.7857 51.0447 22.1465 51.5695 22.6319 51.9499C23.1304 52.3304 23.7601 52.5206 24.5209 52.5206C25.0719 52.5206 25.5442 52.4156 25.9378 52.2057C26.3444 51.9958 26.6658 51.7072 26.902 51.3399C27.1381 50.9595 27.2824 50.5265 27.3349 50.0411H24.4422V47.6601H30.7392V55H28.6927L28.5156 52.0877L28.9091 52.2057C28.778 52.8223 28.4893 53.3667 28.0433 53.839C27.6104 54.2982 27.0594 54.6589 26.3904 54.9213C25.7344 55.1837 24.9998 55.3148 24.1864 55.3148ZM31.8013 55V41.0286H36.7799C39.0888 41.0286 40.8598 41.6386 42.0929 42.8587C43.3392 44.0656 43.9623 45.7907 43.9623 48.034C43.9623 50.2642 43.3523 51.9827 42.1323 53.1896C40.9122 54.3965 39.1675 55 36.8979 55H31.8013ZM35.2253 52.2057H36.7799C38.0393 52.2057 38.9641 51.8646 39.5545 51.1825C40.1448 50.5003 40.44 49.4442 40.44 48.0143C40.44 46.5844 40.1448 45.5283 39.5545 44.8462C38.9641 44.164 38.0393 43.8229 36.7799 43.8229H35.2253V52.2057ZM44.5913 55V41.0286H50.3766C52.0951 41.0286 53.4398 41.4484 54.4106 42.288C55.3945 43.1145 55.8864 44.2493 55.8864 45.6923C55.8864 46.65 55.6634 47.483 55.2174 48.1914C54.7845 48.8867 54.1548 49.4246 53.3283 49.805C52.5018 50.1855 51.5179 50.3757 50.3766 50.3757H48.0152V55H44.5913ZM48.0152 47.5617H50.1404C50.8357 47.5617 51.3802 47.4043 51.7737 47.0895C52.1804 46.7746 52.3837 46.3089 52.3837 45.6923C52.3837 45.0889 52.187 44.6297 51.7934 44.3149C51.3998 43.9869 50.8489 43.8229 50.1404 43.8229H48.0152V47.5617ZM56.3819 55V41.0286H62.7773C63.8136 41.0286 64.7123 41.1992 65.4731 41.5403C66.2471 41.8813 66.844 42.3667 67.2638 42.9964C67.6836 43.613 67.8935 44.3411 67.8935 45.1807C67.8935 45.8366 67.7623 46.4138 67.5 46.9123C67.2376 47.4109 66.8703 47.8241 66.398 48.1521C65.9388 48.4669 65.3879 48.6768 64.7451 48.7818L64.686 48.585C65.6437 48.585 66.3652 48.7883 66.8506 49.195C67.3491 49.6017 67.6246 50.2117 67.6771 51.025L68.0116 55H64.5089L64.2925 51.5957C64.2531 51.071 64.0957 50.684 63.8202 50.4347C63.5578 50.1855 63.0921 50.0608 62.423 50.0608H59.8059V55H56.3819ZM59.8059 47.2666H62.2459C62.9412 47.2666 63.4725 47.1157 63.8399 46.814C64.2072 46.5122 64.3908 46.0859 64.3908 45.5349C64.3908 44.9708 64.2006 44.5444 63.8202 44.2558C63.4529 43.9672 62.915 43.8229 62.2066 43.8229H59.8059V47.2666Z" fill="#16171B"></path><path d="M24.9512 62.089C24.5917 62.089 24.271 62.0074 23.9893 61.8443C23.7113 61.6812 23.4926 61.4459 23.3333 61.1382C23.1776 60.8305 23.0997 60.4617 23.0997 60.0318C23.0997 59.6129 23.1757 59.2497 23.3277 58.942C23.4797 58.6306 23.6965 58.3897 23.9782 58.2192C24.2599 58.0487 24.5898 57.9634 24.9679 57.9634C25.4831 57.9634 25.8834 58.0913 26.1689 58.3471C26.458 58.5991 26.6433 58.9605 26.7249 59.4313L25.8464 59.4646C25.8019 59.2163 25.7055 59.0235 25.5573 58.8864C25.409 58.7455 25.2125 58.6751 24.9679 58.6751C24.7566 58.6751 24.5768 58.7307 24.4286 58.8419C24.2803 58.9531 24.1673 59.1107 24.0894 59.3145C24.0116 59.5184 23.9727 59.7575 23.9727 60.0318C23.9727 60.3098 24.0116 60.5507 24.0894 60.7546C24.171 60.9547 24.2859 61.1085 24.4341 61.216C24.5824 61.3235 24.7585 61.3773 24.9623 61.3773C25.2292 61.3773 25.4349 61.3031 25.5795 61.1549C25.7278 61.0029 25.8204 60.7935 25.8575 60.5266L26.7415 60.56C26.6896 60.8824 26.5877 61.1567 26.4357 61.3828C26.2838 61.6089 26.0836 61.7832 25.8353 61.9055C25.5906 62.0278 25.2959 62.089 24.9512 62.089ZM30.2186 62.089C29.8183 62.089 29.4736 62.0056 29.1845 61.8388C28.899 61.672 28.6785 61.4347 28.5228 61.1271C28.3708 60.8194 28.2949 60.4543 28.2949 60.0318C28.2949 59.6092 28.3708 59.2441 28.5228 58.9364C28.6785 58.6251 28.899 58.386 29.1845 58.2192C29.4736 58.0487 29.8183 57.9634 30.2186 57.9634C30.6189 57.9634 30.9618 58.0487 31.2472 58.2192C31.5363 58.386 31.7569 58.6251 31.9089 58.9364C32.0645 59.2441 32.1424 59.6092 32.1424 60.0318C32.1424 60.4543 32.0645 60.8194 31.9089 61.1271C31.7569 61.4347 31.5363 61.672 31.2472 61.8388C30.9618 62.0056 30.6189 62.089 30.2186 62.089ZM30.2131 61.3773C30.4355 61.3773 30.6245 61.3254 30.7802 61.2216C30.9396 61.1141 31.06 60.9603 31.1416 60.7601C31.2268 60.56 31.2695 60.3172 31.2695 60.0318C31.2695 59.7463 31.2268 59.5036 31.1416 59.3034C31.06 59.0995 30.9396 58.9439 30.7802 58.8364C30.6245 58.7289 30.4355 58.6751 30.2131 58.6751C29.9944 58.6751 29.8072 58.7289 29.6515 58.8364C29.4958 58.9439 29.3753 59.0995 29.2901 59.3034C29.2085 59.5036 29.1678 59.7463 29.1678 60.0318C29.1678 60.3172 29.2085 60.56 29.2901 60.7601C29.3753 60.9603 29.4958 61.1141 29.6515 61.2216C29.8109 61.3254 29.9981 61.3773 30.2131 61.3773ZM33.8145 62V58.0524H34.9432L35.9495 60.9269L36.9503 58.0524H38.079V62H37.2339V59.4424L36.3054 61.9889H35.5826L34.6596 59.4424V62H33.8145ZM39.9381 62V58.0524H41.5171C41.9916 58.0524 42.3623 58.1673 42.6291 58.3971C42.8997 58.6269 43.035 58.942 43.035 59.3423C43.035 59.6055 42.9739 59.8353 42.8515 60.0318C42.7329 60.2245 42.5587 60.3746 42.3289 60.4821C42.1028 60.5859 41.8322 60.6378 41.5171 60.6378H40.7832V62H39.9381ZM40.7832 59.9261H41.4671C41.6895 59.9261 41.8619 59.8779 41.9842 59.7816C42.1065 59.6815 42.1677 59.5351 42.1677 59.3423C42.1677 59.1533 42.1065 59.0106 41.9842 58.9142C41.8656 58.8141 41.6932 58.7641 41.4671 58.7641H40.7832V59.9261ZM44.7857 62V58.0524H45.6308V61.772L45.1638 61.2883H47.449V62H44.7857ZM48.9927 62V58.0524H49.8378V62H48.9927ZM51.4115 62L52.8348 58.0524H53.8356L55.259 62H54.3805L54.0914 61.1604H52.5735L52.2844 62H51.4115ZM52.8126 60.4654H53.8579L53.3352 58.942L52.8126 60.4654ZM56.7495 62V58.0524H57.6836L59.2515 60.7768V58.0524H60.0966V62H59.1514L57.5946 59.3701V62H56.7495ZM62.7025 62V58.7641H61.5238V58.0524H64.7374V58.7641H63.5532V62H62.7025Z" fill="#16171B"></path><path d="M45.6578 70.1248V69.2082C45.6578 67.9248 44.6495 66.9165 43.3661 66.9165C42.0828 66.9165 41.0745 67.9248 41.0745 69.2082V70.1248C40.2953 70.1248 39.6995 70.7207 39.6995 71.4998V74.7082C39.6995 75.4873 40.2953 76.0832 41.0745 76.0832H45.6578C46.437 76.0832 47.0328 75.4873 47.0328 74.7082V71.4998C47.0328 70.7207 46.437 70.1248 45.6578 70.1248ZM41.9911 69.2082C41.9911 68.429 42.587 67.8332 43.3661 67.8332C44.1453 67.8332 44.7411 68.429 44.7411 69.2082V70.1248H41.9911V69.2082Z" fill="#004F3B"></path><path d="M34.35 32.9906L32.9109 33.8575C32.8474 33.8979 32.7809 33.9153 32.7115 33.9095C32.6422 33.9037 32.5815 33.8806 32.5295 33.8401C32.4775 33.7997 32.437 33.7492 32.4081 33.6886C32.3792 33.628 32.3734 33.5601 32.3908 33.4847L32.7722 31.8462L31.4978 30.7452C31.44 30.6932 31.404 30.6339 31.3896 30.5673C31.3753 30.5007 31.3796 30.4358 31.4025 30.3724C31.4253 30.3091 31.46 30.257 31.5065 30.2164C31.553 30.1757 31.6165 30.1497 31.6972 30.1383L33.3791 29.991L34.0293 28.4478C34.0582 28.3785 34.103 28.3264 34.1638 28.2918C34.2246 28.2571 34.2867 28.2397 34.35 28.2397C34.4134 28.2397 34.4755 28.2571 34.5363 28.2918C34.5971 28.3264 34.6419 28.3785 34.6708 28.4478L35.321 29.991L37.0029 30.1383C37.0838 30.1499 37.1473 30.1759 37.1936 30.2164C37.2398 30.2568 37.2745 30.3088 37.2976 30.3724C37.3207 30.436 37.3251 30.5011 37.3108 30.5676C37.2965 30.6342 37.2603 30.6934 37.2023 30.7452L35.9279 31.8462L36.3093 33.4847C36.3267 33.5598 36.3209 33.6278 36.292 33.6886C36.2631 33.7494 36.2226 33.7999 36.1706 33.8401C36.1186 33.8804 36.0579 33.9035 35.9885 33.9095C35.9192 33.9155 35.8527 33.8982 35.7892 33.8575L34.35 32.9906Z" fill="#F8D12E"></path><path d="M26.0275 32.9906L24.5884 33.8575C24.5248 33.8979 24.4584 33.9153 24.389 33.9095C24.3197 33.9037 24.259 33.8806 24.207 33.8401C24.1549 33.7997 24.1145 33.7492 24.0856 33.6886C24.0567 33.628 24.0509 33.5601 24.0683 33.4847L24.4497 31.8462L23.1753 30.7452C23.1175 30.6932 23.0815 30.6339 23.0671 30.5673C23.0528 30.5007 23.0571 30.4358 23.0799 30.3724C23.1028 30.3091 23.1375 30.257 23.184 30.2164C23.2304 30.1757 23.294 30.1497 23.3747 30.1383L25.0566 29.991L25.7068 28.4478C25.7357 28.3785 25.7805 28.3264 25.8413 28.2918C25.9021 28.2571 25.9642 28.2397 26.0275 28.2397C26.0909 28.2397 26.1529 28.2571 26.2137 28.2918C26.2745 28.3264 26.3194 28.3785 26.3483 28.4478L26.9985 29.991L28.6804 30.1383C28.7613 30.1499 28.8248 30.1759 28.8711 30.2164C28.9173 30.2568 28.952 30.3088 28.9751 30.3724C28.9982 30.436 29.0026 30.5011 28.9883 30.5676C28.974 30.6342 28.9378 30.6934 28.8797 30.7452L27.6054 31.8462L27.9868 33.4847C28.0041 33.5598 27.9984 33.6278 27.9695 33.6886C27.9406 33.7494 27.9001 33.7999 27.8481 33.8401C27.7961 33.8804 27.7354 33.9035 27.666 33.9095C27.5967 33.9155 27.5302 33.8982 27.4666 33.8575L26.0275 32.9906Z" fill="#F8D12E"></path><path d="M42.6728 32.9906L41.2337 33.8575C41.1701 33.8979 41.1036 33.9153 41.0343 33.9095C40.9649 33.9037 40.9042 33.8806 40.8522 33.8401C40.8002 33.7997 40.7598 33.7492 40.7309 33.6886C40.702 33.628 40.6962 33.5601 40.7135 33.4847L41.095 31.8462L39.8206 30.7452C39.7628 30.6932 39.7267 30.6339 39.7124 30.5673C39.698 30.5007 39.7023 30.4358 39.7252 30.3724C39.7481 30.3091 39.7828 30.257 39.8292 30.2164C39.8757 30.1757 39.9393 30.1497 40.02 30.1383L41.7018 29.991L42.352 28.4478C42.3809 28.3785 42.4258 28.3264 42.4866 28.2918C42.5474 28.2571 42.6094 28.2397 42.6728 28.2397C42.7361 28.2397 42.7982 28.2571 42.859 28.2918C42.9198 28.3264 42.9647 28.3785 42.9936 28.4478L43.6438 29.991L45.3256 30.1383C45.4065 30.1499 45.4701 30.1759 45.5163 30.2164C45.5626 30.2568 45.5973 30.3088 45.6204 30.3724C45.6435 30.436 45.6479 30.5011 45.6335 30.5676C45.6192 30.6342 45.583 30.6934 45.525 30.7452L44.2506 31.8462L44.6321 33.4847C44.6494 33.5598 44.6436 33.6278 44.6147 33.6886C44.5858 33.7494 44.5454 33.7999 44.4934 33.8401C44.4413 33.8804 44.3807 33.9035 44.3113 33.9095C44.2419 33.9155 44.1755 33.8982 44.1119 33.8575L42.6728 32.9906Z" fill="#F8D12E"></path><path d="M52.3823 32.9906L50.9432 33.8575C50.8796 33.8979 50.8131 33.9153 50.7438 33.9095C50.6744 33.9037 50.6137 33.8806 50.5617 33.8401C50.5097 33.7997 50.4692 33.7492 50.4403 33.6886C50.4114 33.628 50.4057 33.5601 50.423 33.4847L50.8044 31.8462L49.53 30.7452C49.4723 30.6932 49.4362 30.6339 49.4219 30.5673C49.4075 30.5007 49.4118 30.4358 49.4347 30.3724C49.4576 30.3091 49.4922 30.257 49.5387 30.2164C49.5852 30.1757 49.6488 30.1497 49.7294 30.1383L51.4113 29.991L52.0615 28.4478C52.0904 28.3785 52.1352 28.3264 52.196 28.2918C52.2568 28.2571 52.3189 28.2397 52.3823 28.2397C52.4456 28.2397 52.5077 28.2571 52.5685 28.2918C52.6293 28.3264 52.6741 28.3785 52.703 28.4478L53.3532 29.991L55.0351 30.1383C55.116 30.1499 55.1796 30.1759 55.2258 30.2164C55.272 30.2568 55.3067 30.3088 55.3298 30.3724C55.353 30.436 55.3574 30.5011 55.343 30.5676C55.3287 30.6342 55.2925 30.6934 55.2345 30.7452L53.9601 31.8462L54.3415 33.4847C54.3589 33.5598 54.3531 33.6278 54.3242 33.6886C54.2953 33.7494 54.2548 33.7999 54.2028 33.8401C54.1508 33.8804 54.0901 33.9035 54.0208 33.9095C53.9514 33.9155 53.885 33.8982 53.8214 33.8575L52.3823 32.9906Z" fill="#F8D12E"></path><path d="M60.705 32.9906L59.2659 33.8575C59.2023 33.8979 59.1359 33.9153 59.0665 33.9095C58.9972 33.9037 58.9365 33.8806 58.8845 33.8401C58.8324 33.7997 58.792 33.7492 58.7631 33.6886C58.7342 33.628 58.7284 33.5601 58.7457 33.4847L59.1272 31.8462L57.8528 30.7452C57.795 30.6932 57.7589 30.6339 57.7446 30.5673C57.7303 30.5007 57.7346 30.4358 57.7574 30.3724C57.7803 30.3091 57.815 30.257 57.8615 30.2164C57.9079 30.1757 57.9715 30.1497 58.0522 30.1383L59.7341 29.991L60.3843 28.4478C60.4132 28.3785 60.458 28.3264 60.5188 28.2918C60.5796 28.2571 60.6417 28.2397 60.705 28.2397C60.7684 28.2397 60.8304 28.2571 60.8912 28.2918C60.952 28.3264 60.9969 28.3785 61.0258 28.4478L61.676 29.991L63.3578 30.1383C63.4388 30.1499 63.5023 30.1759 63.5486 30.2164C63.5948 30.2568 63.6295 30.3088 63.6526 30.3724C63.6757 30.436 63.6801 30.5011 63.6658 30.5676C63.6514 30.6342 63.6153 30.6934 63.5572 30.7452L62.2828 31.8462L62.6643 33.4847C62.6816 33.5598 62.6759 33.6278 62.647 33.6886C62.6181 33.7494 62.5776 33.7999 62.5256 33.8401C62.4736 33.8804 62.4129 33.9035 62.3435 33.9095C62.2742 33.9155 62.2077 33.8982 62.1441 33.8575L60.705 32.9906Z" fill="#F8D12E"></path></svg>
