<svg width="1016" height="257" viewBox="0 0 1016 257" fill="none" xmlns="http://www.w3.org/2000/svg">
<path d="M395.896 36.679C391.418 33.0627 385.736 30.9963 378.675 30.6519H351.123C342.857 30.9963 336.658 33.2349 332.869 37.3678C329.081 41.5007 327.186 46.1502 327.186 51.6607V104.011C327.186 109.693 330.114 113.998 335.624 116.581C340.102 118.648 344.579 119.681 348.884 119.681H374.198C381.431 119.681 383.153 120.887 383.325 120.887C383.669 121.231 384.53 121.92 384.53 124.331V171.859C384.53 175.131 383.841 177.714 382.636 179.436C381.431 181.158 378.331 181.502 376.092 181.502H355.083C348.712 181.502 347.334 179.952 347.162 179.78C346.301 178.747 345.44 176.508 345.44 172.031V138.796H327.014V177.886C327.014 182.88 329.425 187.357 334.247 191.146C338.724 194.762 344.407 196.828 351.467 197.173H379.02C387.286 196.828 393.485 194.59 397.273 190.457C401.062 186.324 402.956 181.674 402.956 176.164V119.337C402.956 116.581 401.923 113.998 400.029 112.104C398.479 110.554 396.757 109.004 394.863 107.799C392.968 106.594 390.73 105.733 388.491 105.044C386.08 104.355 384.186 104.011 382.636 104.011H353.017C348.023 104.011 346.645 103.322 346.473 103.494C345.957 102.461 345.612 100.911 345.612 98.8445V55.7936C345.612 52.5217 346.129 49.7664 347.334 48.0444C348.195 46.839 350.606 46.1502 354.05 46.1502H375.059C381.086 46.1502 382.636 47.5278 382.98 48.0444C384.186 49.5942 384.702 52.3495 384.702 55.9658V88.8567H403.128V49.9386C403.128 44.9447 400.717 40.4675 395.896 36.679Z" fill="#212528"/>
<path d="M517.988 36.679C513.51 33.0627 507.828 30.9963 500.767 30.6519H473.387C464.949 30.6519 458.75 32.8905 454.961 37.1956C451.173 41.3285 449.278 46.1502 449.278 51.6607V176.164C449.278 181.158 451 185.807 454.617 190.112C458.233 194.417 464.432 196.828 472.87 197.173H502.834H503.006C510.238 196.828 515.749 194.762 519.537 190.801C523.326 186.84 525.392 182.363 525.392 177.541V50.1109C525.22 44.9448 522.809 40.4675 517.988 36.679ZM506.794 55.9658V171.514C506.794 175.131 506.105 177.886 505.072 179.436C504.728 179.952 503.178 181.33 497.151 181.33H480.447C472.009 181.33 469.943 179.608 469.598 179.264C468.221 177.714 467.532 175.131 467.532 171.687V55.7936C467.532 52.6939 468.393 50.4553 469.943 48.7332C471.665 47.0112 473.559 46.1502 475.97 46.1502H496.979C503.006 46.1502 504.556 47.5278 504.9 48.0444C506.106 49.5942 506.794 52.3495 506.794 55.9658Z" fill="#212528"/>
<path d="M639.909 36.679C635.432 33.0627 629.749 30.9963 622.689 30.6519H595.308C587.903 30.6519 581.876 32.7183 577.571 37.0234C573.266 41.3285 571.2 46.1502 571.2 51.6607V176.164C571.2 181.158 572.922 185.807 576.538 190.112C580.154 194.417 586.181 196.828 594.792 197.173H624.755C631.988 196.828 637.498 194.762 641.459 190.801C645.247 186.84 647.314 182.363 647.314 177.541V138.796H628.888V171.687C628.888 175.303 628.199 178.058 627.166 179.608C626.821 180.125 625.272 181.502 619.244 181.502H603.23C595.136 181.502 592.725 179.952 592.036 179.264C590.486 177.714 589.798 175.131 589.798 171.859V55.7936C589.798 52.6939 590.659 50.4553 592.209 48.7332C593.931 47.0112 595.825 46.1502 598.236 46.1502H619.244C625.616 46.1502 626.994 47.7 627.166 47.8722C628.027 48.9054 628.888 51.1441 628.888 55.6214V88.6845H647.314V49.9386C647.141 44.9447 644.731 40.4675 639.909 36.679Z" fill="#212528"/>
<path d="M772.505 30.6519H752.185L711.545 101.944V30.6519H693.292V197H711.545V135.179L721.533 118.648L753.735 197H773.022L733.587 99.8777L772.505 30.6519Z" fill="#212528"/>
<path d="M817.106 197H893.392V181.33H835.532V119.164H886.848V103.666H835.532V46.1502H893.392V30.6519H817.106V197Z" fill="#212528"/>
<path d="M939.37 30.6519V46.1502H968.3V197H987.07V46.1502H1016V30.6519H939.37Z" fill="#212528"/>
<path d="M100.051 76.1144C100.051 67.5042 92.9902 60.4438 84.38 60.4438C75.7698 60.4438 68.7095 67.5042 68.7095 76.1144C68.7095 84.7245 75.7698 91.7849 84.38 91.7849C92.9902 91.7849 100.051 84.7245 100.051 76.1144Z" fill="#212528"/>
<path d="M189.079 76.1144C189.079 67.5042 182.018 60.4438 173.408 60.4438C164.798 60.4438 157.738 67.5042 157.738 76.1144C157.738 84.7245 164.798 91.7849 173.408 91.7849C182.018 91.7849 189.079 84.7245 189.079 76.1144Z" fill="#212528"/>
<path d="M252.967 236.435H234.713V222.143H252.967C256.239 222.143 258.822 219.56 258.822 216.288C258.822 213.016 256.239 210.433 252.967 210.433H234.713V208.366C234.713 205.094 232.13 202.511 228.859 202.511C214.221 202.511 203.717 209.055 199.928 219.904C199.412 219.732 198.895 219.56 198.206 219.56H19.6312V19.6312H235.402V157.394C235.402 162.732 239.88 167.21 245.218 167.21C250.556 167.21 255.033 162.905 255.033 157.394V9.8156C255.033 4.47729 250.556 0 245.218 0H9.8156C4.47729 0 0 4.30509 0 9.8156V229.375C0 234.713 4.30509 239.191 9.8156 239.191H198.206C198.723 239.191 199.24 239.019 199.756 238.846C204.061 251.417 216.804 256.239 228.859 256.239C232.13 256.239 234.713 253.656 234.713 250.384V248.318H252.967C256.239 248.318 258.822 245.734 258.822 242.463C258.822 239.191 256.239 236.435 252.967 236.435ZM223.004 244.012C216.632 242.807 209.916 239.191 209.916 229.375C209.916 219.387 216.632 215.943 223.004 214.738V244.012Z" fill="#212528"/>
<path d="M131.736 164.283C114.343 164.283 100.05 161.7 99.1891 161.7C93.3342 160.666 89.5457 155.156 90.5789 149.301C91.6121 143.446 96.9504 139.657 102.978 140.691C103.322 140.691 132.597 145.857 155.5 140.691C161.355 139.485 167.037 143.102 168.243 148.784C169.448 154.639 165.832 160.322 160.149 161.527C150.678 163.594 140.862 164.283 131.736 164.283Z" fill="#212528"/>
</svg>
