<svg xmlns="http://www.w3.org/2000/svg" width="24" height="24" viewBox="0 0 24 24"><path fill="white" fill-rule="evenodd" d="M5 1a4 4 0 0 0-4 4v14a4 4 0 0 0 4 4h14a4 4 0 0 0 4-4V5a4 4 0 0 0-4-4zm6.086 4.096a1 1 0 1 0-1.728 1.008l1.484 2.544l-3.031 5.197H4.889a1 1 0 1 0 0 2h7.823a1 1 0 1 0 0-2h-2.586l2.727-4.675l.02-.035l1.769-3.03a1 1 0 0 0-1.728-1.009L12 6.663zm3.2 5.486l1.903 3.263h2.922a1 1 0 1 1 0 2h-1.755l1.197 2.051a1 1 0 1 1-1.728 1.008l-2.05-3.516a1 1 0 0 1-.048-.081l-2.168-3.718a1 1 0 1 1 1.727-1.007m-6.76 5.735a1 1 0 0 1 .36 1.368l-.711 1.22a1 1 0 0 1-1.728-1.009l.711-1.219a1 1 0 0 1 1.368-.36" clip-rule="evenodd"/></svg>
