<svg width="59" height="56" viewBox="0 0 59 56" fill="none" xmlns="http://www.w3.org/2000/svg">
<g clip-path="url(#clip0_1_22773)">
<path d="M2.43812 39.1388C3.32471 39.3054 3.54635 38.5837 3.43553 38.2506C3.2693 37.5844 3.2693 36.9182 3.21389 36.0299C3.15847 35.1972 3.10306 34.1979 2.54895 33.5317C2.27189 33.1986 1.88401 32.9765 1.44071 32.9765C-0.609515 32.921 0.0554238 36.1965 0.387893 37.3068C0.498717 37.7509 0.720363 38.1951 1.10824 38.5282C1.44071 38.8613 1.93942 39.0278 2.43812 39.1388ZM42.7224 1.66544C56.6307 6.05122 58.6255 22.3174 58.6255 22.3174C59.0134 24.4271 58.958 31.1445 58.1822 34.4755C57.6281 36.7516 57.1294 42.8584 47.2107 50.6307C45.2713 52.1296 43.0548 53.8506 40.7275 54.0727C40.4505 54.1282 40.1734 54.1282 40.0072 53.9061C39.8409 53.6841 40.2842 53.1289 40.3951 53.0734C46.4349 49.4648 54.8021 43.4136 55.1345 29.0904C55.1345 29.0904 55.9657 15.6 47.654 9.27115C44.9942 7.21706 41.1154 4.88538 38.0678 4.05264C37.6245 3.9416 33.4132 2.99783 33.3024 3.71954C33.1361 4.71883 34.8539 4.77435 35.6851 4.82986C37.6799 4.88538 40.1734 6.10673 40.7275 6.38431C47.931 9.93735 49.815 14.1011 50.48 15.1003C53.2506 19.5416 53.1397 28.0911 53.1951 29.3125C53.306 37.0292 49.2609 42.3033 47.4323 44.8015C44.3293 49.0207 37.4028 54.4613 26.0435 55.4606C23.3837 55.6826 17.5655 55.6271 11.8027 52.4627C9.9741 51.4634 6.31693 48.4655 4.43294 44.968C3.87882 43.9687 2.88142 41.3595 4.10047 41.0819C4.82082 40.9154 5.92905 43.1915 7.92387 45.3566C9.75245 47.2997 11.581 49.1317 14.2962 50.4641C17.898 52.2406 22.2201 53.2399 24.0486 52.9624C24.4365 52.9068 24.4919 52.4072 24.1041 52.3517C22.9958 52.0741 20.7794 51.9076 19.0062 51.2414C16.1802 50.2421 10.9715 46.9666 7.97928 43.0805C6.87105 41.6371 5.15329 38.3061 4.82082 35.8634C4.2667 31.5886 4.43294 25.4819 4.65459 24.316C5.81823 17.432 9.53081 13.4349 12.3014 10.9366C15.072 8.49393 20.1698 6.77293 21.4997 6.10673C21.7214 5.9957 21.6105 5.71812 21.4443 5.71812C21.2227 5.6626 20.8902 5.71812 20.6685 5.77364C20.5023 5.82915 20.2807 5.88467 20.059 5.88467C19.5049 5.9957 3.04765 9.71528 2.88142 29.7011C2.88142 31.5886 1.32989 30.5338 1.10824 29.4235C0.554128 26.3701 0.664951 23.5943 1.32989 20.7075C2.60436 15.3779 5.92905 11.1032 9.19834 8.27186C14.0746 4.16367 20.7794 1.77647 26.3759 0.777184C31.0859 -0.0555583 34.9647 -0.777268 42.7224 1.66544Z" fill="#DA1A32"/>
<path d="M50.2031 49.6869H51.2559V49.909H50.8681V51.0193H50.591V49.909H50.2031V49.6869ZM51.4776 49.6869H51.8655L52.2534 50.7417L52.5858 49.6869H52.9737V51.0193H52.6966V49.909L52.3088 51.0193H52.0871L51.6992 49.909V51.0193H51.4222V49.6869H51.4776Z" fill="#DA1A32"/>
<path d="M43.1096 17.2655C42.8325 17.1544 42.6109 17.0434 42.3893 16.9324C41.6689 16.6548 39.8957 16.0996 38.5104 15.6555C37.7347 15.3779 36.9035 15.1559 36.7373 15.1003C36.571 14.8783 36.2386 13.3793 36.0723 12.6021C35.9615 12.2135 35.9061 11.9359 35.9061 11.7694C35.7953 11.3252 35.629 11.0477 35.1857 11.0477H35.1303C34.9641 11.0477 32.8585 11.4918 29.4229 12.2135C27.0957 12.6576 24.713 13.1573 24.5467 13.2128C24.3805 13.2128 24.2143 13.3238 22.7181 15.6C22.2748 16.2662 21.7207 17.1544 21.6099 17.21C21.5545 17.2655 21.222 17.3765 20.8896 17.4875C19.9476 17.8762 18.119 18.5979 16.6229 19.4306C14.9051 20.3189 11.6912 22.2064 11.4142 22.6505C11.3033 22.8171 11.3033 22.9836 11.4142 23.1502C11.525 23.3167 11.8021 23.4278 12.0791 23.4278C12.1345 23.4278 12.1899 23.4278 12.3008 23.4278C12.6332 23.3723 22.9398 21.8178 28.8134 21.1516C30.3095 20.9851 32.1381 20.8185 34.3546 20.7075C39.7849 20.4299 45.2152 20.3744 45.5477 20.4299C45.8802 20.4854 46.2127 20.3744 46.4343 20.1523C46.6005 19.9303 46.7114 19.7082 46.7114 19.4306C46.6559 18.931 45.4923 18.3203 43.1096 17.2655Z" fill="white"/>
<path d="M24.3815 27.8136C24.3261 27.3139 24.2707 27.0364 24.1045 26.9253C23.9937 26.8698 23.8828 26.8698 23.8274 26.8698C23.5504 26.9253 23.495 27.1474 23.4395 27.3139C23.4395 27.3695 23.3841 27.425 23.2733 27.5915C21.3893 30.1453 21.1677 31.0335 21.0568 31.8107C20.946 32.4769 21.1677 33.1987 21.5556 33.5317C21.7218 33.6983 21.9434 33.7538 22.1651 33.6983C22.3313 33.6428 22.4976 33.5873 22.553 33.4762C22.6084 33.3652 22.6084 33.2542 22.553 33.0876C22.6084 32.699 22.9408 32.0883 23.2733 31.4221C23.772 30.3118 24.437 28.9239 24.3815 27.8136Z" fill="white"/>
<path d="M24.1593 26.1481C24.7134 26.0371 25.1013 25.4819 25.323 25.2043C25.7662 24.5936 26.3204 23.7609 26.542 23.3723C26.5974 23.2613 26.7082 23.0392 26.7637 22.9837C26.8191 22.8171 26.8191 22.7061 26.7637 22.6506C26.7082 22.5395 26.542 22.5395 26.3204 22.5951C25.7108 22.7061 24.5472 23.3168 23.8268 24.3161C23.4944 24.7602 23.3281 25.2598 23.3835 25.6484C23.439 25.9815 23.716 26.2036 24.1593 26.1481Z" fill="white"/>
<path d="M34.9095 31.3111C34.7986 31.3111 34.6878 31.3666 34.6878 31.3666C34.2445 31.5887 33.4688 31.6997 33.0809 31.7552C32.4713 31.8107 31.8064 31.7552 31.1415 31.6442C30.2549 31.5331 29.2021 31.3666 27.9276 31.5331C27.7059 31.5331 27.4843 31.5887 27.2627 31.6442C27.6505 31.2556 28.7588 30.0897 29.3683 29.4235C29.8116 28.9794 30.5319 28.0911 30.7536 27.536C30.809 27.3139 30.9198 26.9253 30.7536 26.6477C30.6428 26.4812 30.3657 26.4257 30.0332 26.4257C29.9778 26.4257 26.2098 26.8143 26.2098 26.8143C26.099 26.8143 25.9328 26.8143 25.8219 26.8143H25.7665C25.3787 26.8143 25.1016 26.9808 24.9908 27.2584C24.9354 27.536 25.0462 27.8136 25.3232 27.9801C25.6003 28.1467 25.9882 28.2022 26.5977 28.2022C26.8194 28.2022 27.041 28.2022 27.2627 28.1467C27.7614 28.0911 28.2046 27.9801 28.4263 27.9246C27.8722 28.4242 26.3761 29.8677 25.4341 30.7559C25.3787 30.8114 25.3232 30.867 25.2124 30.9225C24.7137 31.3666 24.1596 31.9218 23.8825 32.4769C23.6609 32.9766 23.6609 33.3652 23.938 33.5872C24.1042 33.7538 24.2704 33.7538 24.4921 33.7538C24.6583 33.7538 24.8245 33.6983 25.1016 33.5872C25.6003 33.4207 26.3207 33.2541 27.5397 33.0876C28.5371 32.9766 29.7008 32.9766 30.9752 32.9766C31.4185 32.9766 31.8618 32.9766 32.3051 32.921C33.3579 32.81 34.2445 32.5324 34.7986 32.0883C34.9649 31.9773 35.2973 31.7552 35.1311 31.4221C35.1865 31.3111 35.0757 31.2556 34.9095 31.3111Z" fill="white"/>
<path d="M21.1121 28.9794C21.1121 28.9794 22.0541 26.9808 20.281 25.5374C19.3944 24.8157 18.1753 24.5936 16.8455 24.8157C16.1251 24.9267 15.4048 25.2043 14.9615 25.5374C14.4628 25.8705 14.2965 26.2591 14.2965 26.4812C14.2411 26.7588 14.4073 26.9808 14.4628 27.0363C14.5182 27.0919 14.6844 27.2029 15.0169 27.1474C15.1831 27.0919 15.4048 27.0363 15.6264 26.9808C15.1831 27.5915 13.7424 29.6456 12.6342 33.1431C11.8584 35.6969 11.5814 37.1958 11.9692 37.751C12.0246 37.862 12.1355 37.973 12.3017 37.973C12.3571 37.973 12.4125 37.973 12.4125 37.973C13.1329 37.862 13.8532 36.03 14.7952 33.4762C14.9615 33.0876 15.0723 32.7545 15.2385 32.3659C16.8455 28.2022 16.9563 27.2029 16.8455 26.8698C17.3442 26.8698 19.1173 26.9253 19.339 28.3132C19.5052 29.4235 18.3416 30.4784 17.1225 31.0335C16.79 31.2001 16.513 31.3111 16.2359 31.3666C16.0143 31.4221 15.7926 31.5332 15.6818 31.5887C15.5156 31.6997 15.571 31.8107 15.571 31.8107C15.6264 32.0328 16.0697 32.1438 16.8455 32.0328H16.9009C17.455 31.8107 20.0593 31.2556 21.1121 28.9794Z" fill="white"/>
<path d="M34.466 36.03C34.466 35.6969 34.466 35.4748 34.2997 35.3638C34.2443 35.3083 34.1335 35.2527 34.0227 35.2527C33.9673 35.2527 33.9673 35.2527 33.9119 35.2527C33.5794 35.3083 33.4132 35.6414 33.1361 36.0855C32.859 36.5296 32.4712 37.0848 31.8616 37.6955C31.1413 38.3617 30.3655 38.9168 30.0885 39.0278C30.3101 38.4172 30.3655 37.6399 30.3101 37.1958C30.2547 36.8072 30.1439 36.4741 29.8668 36.3076C29.5898 36.0855 29.2573 36.0855 28.9802 36.141C28.6478 36.1965 28.3707 36.3631 28.2599 36.4741C28.2045 36.5296 28.1491 36.6406 28.2045 36.6962C28.2045 36.8072 28.3153 36.8627 28.4815 36.9182C28.7586 37.0293 28.7586 37.1958 28.6478 37.4179C28.6478 37.4734 28.6478 37.5289 28.5924 37.5289C28.5369 37.6955 28.4815 37.9175 28.4261 38.0841C28.1491 38.8058 27.9274 39.583 28.1491 40.2492C28.3707 40.8044 28.8694 41.0264 29.5344 40.9154C29.6452 40.9154 29.8114 40.8599 29.9222 40.8044C30.6426 40.5268 31.4738 39.8606 32.3049 38.6947C32.3603 39.694 32.9699 40.1937 33.2469 40.4157C33.4686 40.5823 33.6902 40.6378 33.8565 40.6378C33.9673 40.6378 34.0781 40.5823 34.0781 40.4713C34.1335 40.3602 34.1335 40.2492 34.0227 39.9716C33.8565 39.583 34.0781 38.0286 34.1889 36.9737C34.4106 36.5296 34.466 36.1965 34.466 36.03Z" fill="white"/>
<path d="M43.1104 33.3096C42.9441 33.1431 42.6117 33.1986 41.448 33.4762C41.1155 33.5317 40.7277 33.6427 40.229 33.7538C40.1181 33.8093 39.8411 33.8648 39.564 33.9203C39.3978 33.9758 39.2316 34.0313 39.0099 34.0313L39.0653 33.9203C39.287 33.4762 39.5086 33.032 39.564 32.7545C39.6194 32.4214 39.6194 32.1993 39.4532 32.0328C39.3424 31.9217 39.1761 31.8662 39.0099 31.8662C38.8437 31.9217 38.6774 31.9772 38.5666 32.1438C38.4004 32.3659 37.7354 33.1431 37.0151 34.4755C36.7934 34.531 36.0731 34.642 35.5744 34.5865C35.4636 34.5865 35.2973 34.5865 35.1865 34.5865C34.9649 34.642 34.7986 34.753 34.6878 34.9751C34.6324 35.0861 34.6324 35.2527 34.6878 35.4192C34.7432 35.5858 34.9094 35.7523 35.1311 35.8079C35.4082 35.9189 35.8514 36.0299 36.3501 35.9744C35.6298 37.8064 35.3527 39.5274 35.519 41.0819C35.5744 41.3595 35.6298 41.5815 35.7406 41.6371C35.796 41.6926 35.8514 41.6926 35.9069 41.6926C36.0731 41.6371 36.2393 41.415 36.3501 41.1374C36.4056 40.8598 37.5138 37.5844 38.345 35.5858C40.0073 35.0306 41.2818 34.4755 42.3346 34.0313H42.39C42.6671 33.9203 42.9441 33.7538 43.0549 33.6982C43.1104 33.6427 43.1658 33.5872 43.1658 33.5317C43.1658 33.4207 43.1658 33.3651 43.1104 33.3096Z" fill="white"/>
<path d="M28.2049 37.5844C28.2049 37.5289 28.1495 37.4734 28.0387 37.4734C27.9832 37.4179 27.8724 37.4734 27.7062 37.5289C27.6508 37.5289 27.5954 37.5844 27.54 37.5844C27.4291 37.6399 27.2075 37.6954 26.9858 37.8065C27.1521 37.0293 27.3183 36.4186 27.4291 35.9189C27.7062 34.8641 27.817 34.3645 27.6508 34.0869C27.5954 34.0314 27.4845 33.9759 27.3737 33.9203C27.3183 33.9203 27.3183 33.9203 27.2629 33.9203C26.5425 34.0314 25.4897 36.252 24.8248 38.4172C24.7694 38.4172 24.714 38.4172 24.6586 38.4727C23.8828 38.6392 23.107 38.8613 22.2204 39.0278C22.4421 38.4172 22.6083 37.8065 22.8854 37.1403C23.107 36.4741 23.5503 35.2527 23.4949 34.6421C23.4395 34.2534 23.2733 34.1979 23.1624 34.1979H23.107C22.3313 34.309 20.8906 36.9737 19.8932 39.472H19.7823H19.3945C18.8403 39.583 18.3416 39.694 18.0092 39.8051C17.5105 39.9716 17.2334 40.2492 17.2334 40.5268C17.2334 40.8044 17.3996 41.0264 17.7875 41.193C18.12 41.3595 18.5079 41.415 19.0066 41.415C18.6187 42.5809 18.12 44.635 18.5633 45.4122C18.6741 45.5787 18.8403 45.6898 19.062 45.7453C19.1728 45.7453 19.339 45.7453 19.4499 45.7453C20.281 45.5787 20.6689 44.3574 20.8906 43.4691C21.0568 42.6919 21.2784 41.8592 21.5001 41.0264C22.3867 40.8044 23.3287 40.4157 24.2707 40.0271C23.9936 41.193 23.7166 43.025 24.5477 43.1915C24.714 43.2471 24.8248 43.2471 24.991 43.2471C25.3235 43.1915 25.656 42.914 25.8776 42.5254C26.1547 41.9702 26.3209 41.193 26.4317 40.4713C26.5425 39.9161 26.598 39.3609 26.7088 38.8613C27.3183 38.5282 27.7616 38.1951 27.9832 37.973C28.1495 37.862 28.2049 37.6954 28.2049 37.5844Z" fill="white"/>
<path d="M41.6701 26.0925C41.3377 26.8142 41.2822 26.9808 41.2268 27.2584C40.8944 27.4804 39.7861 28.0356 39.3428 28.0911C39.232 28.0911 39.1766 28.0911 39.1766 28.0911V28.0356C39.6753 26.5922 41.2268 26.1481 41.6701 26.0925ZM43.6649 27.647C43.4987 27.647 43.3325 27.5915 43.2771 27.4249C43.0554 27.1473 43.1662 26.8698 43.3879 26.3146C43.4433 26.0925 43.5541 25.815 43.6649 25.4819C43.7758 25.0932 43.6649 24.8712 43.6095 24.7601C43.4987 24.5936 43.3325 24.5381 43.2771 24.5381C43.1108 24.5381 42.8892 24.6491 42.8338 24.7046C42.5567 24.6491 42.2242 24.6491 41.8918 24.6491C40.2848 24.7602 38.3454 25.9815 37.5143 27.3694C37.1264 28.0356 37.0155 28.7018 37.2372 29.2014C37.2372 29.257 37.2926 29.257 37.2926 29.3125C37.2372 29.3125 37.2372 29.3125 37.2372 29.3125C36.9601 29.4235 36.6831 29.5345 36.3506 29.5345C35.7965 29.5901 35.1316 29.479 34.5774 29.4235C34.3004 29.368 34.0233 29.368 33.8017 29.3125C34.245 28.8683 35.6857 27.4804 36.2398 26.8698C36.5168 26.5922 36.9047 26.1481 36.9601 26.037C37.2372 25.6484 37.2372 25.2598 37.0155 24.9822C36.8493 24.7602 36.4614 24.5381 35.5748 24.5936C35.4086 24.5936 35.2978 24.6491 35.1316 24.6491C33.6909 24.8712 32.7489 25.0377 32.361 25.0932C32.1947 25.0932 32.0839 25.0932 31.9731 25.0932C31.9177 25.0932 31.8069 25.0377 31.7514 25.0377H31.696C31.5298 25.0377 31.3636 25.1488 31.2527 25.3153C31.1419 25.4819 31.0865 25.7594 31.1973 26.037C31.3636 26.4256 31.8623 26.5922 32.2502 26.6477C32.4718 26.6477 32.6934 26.6477 33.0259 26.6477C33.6354 26.5922 34.3004 26.4811 34.6883 26.4256C34.3558 26.7587 33.9125 27.0918 33.4692 27.4804C32.6934 28.0911 31.9177 28.7018 31.3636 29.3125C30.754 29.9787 30.477 30.6449 30.6432 30.978C30.754 31.1445 30.9203 31.2 31.1973 31.1445C31.4744 31.089 31.8069 31.0335 32.1947 30.978C32.6934 30.9224 33.1921 30.9224 33.6909 30.9224C34.1896 30.9224 34.6883 30.9224 35.187 30.8669C35.7965 30.8114 36.2952 30.7004 36.7385 30.5338C37.2926 30.3118 37.6805 29.9787 37.7359 29.7566C37.8467 29.8121 37.9021 29.8121 38.013 29.8676C38.2346 29.9232 38.4563 29.9232 38.7333 29.9232C39.7861 29.8121 40.7281 29.1459 41.3377 28.7018C41.4485 28.5908 41.5593 28.5352 41.6701 28.4797C41.8918 28.8128 42.5013 29.0349 43.2216 28.9794C43.6095 28.9239 44.4407 28.7573 44.7178 28.4242C44.7732 28.3687 44.8286 28.2577 44.8286 28.2022C44.6623 27.9801 44.4961 27.758 43.6649 27.647Z" fill="white"/>
</g>
<defs>
<clipPath id="clip0_1_22773">
<rect width="58.8471" height="55.5161" fill="white"/>
</clipPath>
</defs>
</svg>
