<svg width="65" height="41" viewBox="0 0 65 41" fill="none" xmlns="http://www.w3.org/2000/svg">
<g clip-path="url(#clip0_1_22759)">
<path fill-rule="evenodd" clip-rule="evenodd" d="M33.3039 14.1609C32.869 13.5808 32.6515 13.2908 32.3849 13.1871C32.1515 13.0962 31.8923 13.0962 31.6588 13.1871C31.3922 13.2908 31.1747 13.5808 30.7398 14.1609L24.7527 22.1466C24.1341 22.9717 23.8248 23.3843 23.832 23.7296C23.8383 24.0301 23.9792 24.3119 24.2159 24.4972C24.4879 24.7101 25.0035 24.7101 26.0348 24.7101H38.009C39.0403 24.7101 39.5559 24.7101 39.8279 24.4972C40.0645 24.3119 40.2054 24.0301 40.2117 23.7296C40.2189 23.3843 39.9097 22.9717 39.291 22.1466L33.3039 14.1609ZM28.9584 1.60235C28.9584 1.04147 28.9584 0.761038 29.0675 0.546809C29.1636 0.358372 29.3168 0.205166 29.5052 0.109159C29.7195 6.87132e-08 29.9999 0 30.5608 0H33.4835C34.0443 0 34.3248 6.87132e-08 34.5391 0.109159C34.7275 0.205166 34.8807 0.358372 34.9767 0.546809C35.0859 0.761038 35.0859 1.04147 35.0859 1.60235V7.92493L39.5543 3.45489C39.951 3.05808 40.1492 2.85969 40.378 2.78535C40.5791 2.71998 40.7958 2.71998 40.9971 2.78535C41.2258 2.85969 41.4241 3.05808 41.8208 3.45489L43.8878 5.5227C44.2842 5.91925 44.4824 6.11751 44.5567 6.34613C44.6221 6.54723 44.6221 6.76384 44.5567 6.96494C44.4824 7.19355 44.2842 7.39182 43.8878 7.78836L39.4186 12.2592H45.7383C46.2992 12.2592 46.5796 12.2592 46.7939 12.3684C46.9823 12.4644 47.1355 12.6176 47.2315 12.8061C47.3407 13.0203 47.3407 13.3007 47.3407 13.8616V16.7865C47.3407 17.3474 47.3407 17.6278 47.2315 17.842C47.1355 18.0304 46.9823 18.1836 46.7939 18.2797C46.5796 18.3888 46.2992 18.3888 45.7383 18.3888H18.306C17.7451 18.3888 17.4647 18.3888 17.2504 18.2797C17.062 18.1836 16.9088 18.0304 16.8128 17.842C16.7036 17.6278 16.7036 17.3474 16.7036 16.7865V13.8616C16.7036 13.3007 16.7036 13.0203 16.8128 12.8061C16.9088 12.6176 17.062 12.4644 17.2504 12.3684C17.4647 12.2592 17.7451 12.2592 18.306 12.2592H24.6256L20.1564 7.78845C19.76 7.39191 19.5618 7.19365 19.4875 6.96503C19.4222 6.76393 19.4222 6.54732 19.4875 6.34622C19.5618 6.11761 19.76 5.91933 20.1564 5.52279L22.2234 3.45497C22.6201 3.05818 22.8184 2.85978 23.0471 2.78545C23.2483 2.72006 23.465 2.72006 23.6662 2.78543C23.8949 2.85977 24.0932 3.05817 24.4899 3.45496L28.9584 7.92503V1.60235Z" fill="#4B73FF"/>
<path d="M7.44416 40.5488C7.38533 40.5488 7.35592 40.5488 7.33346 40.5374C7.31369 40.5273 7.29765 40.5113 7.28755 40.4915C7.27612 40.469 7.27612 40.4396 7.27612 40.3808V32.8782C7.27612 32.8194 7.27612 32.79 7.28755 32.7675C7.29765 32.7477 7.31369 32.7317 7.33346 32.7216C7.35592 32.7101 7.38533 32.7101 7.44416 32.7101H10.4136C11.2143 32.7101 11.8516 32.9432 12.3254 33.4094C12.8075 33.8673 13.0485 34.4602 13.0485 35.188C13.0485 35.8014 12.877 36.3084 12.5338 36.7091C12.1988 37.1017 11.7127 37.3675 11.0754 37.5065L13.3746 40.4127C13.4091 40.4563 13.4264 40.4781 13.4263 40.4965C13.4263 40.5124 13.419 40.5275 13.4065 40.5374C13.3921 40.5488 13.3643 40.5488 13.3087 40.5488H11.8398C11.8101 40.5488 11.7953 40.5488 11.7816 40.545C11.7694 40.5417 11.758 40.5362 11.7478 40.5288C11.7363 40.5204 11.727 40.5088 11.7085 40.4856L9.40102 37.5924H8.71001V40.3808C8.71001 40.4396 8.71001 40.469 8.69858 40.4915C8.68853 40.5113 8.67244 40.5273 8.65267 40.5374C8.63022 40.5488 8.6008 40.5488 8.54197 40.5488H7.44416ZM8.71001 36.3411H10.242C10.6668 36.3411 11.0018 36.243 11.247 36.0467C11.4921 35.8423 11.6146 35.5561 11.6146 35.188C11.6146 34.82 11.4921 34.5379 11.247 34.3416C11.0018 34.1372 10.6668 34.035 10.242 34.035H8.71001V36.3411Z" fill="white"/>
<path d="M16.7766 40.6715C15.8452 40.6715 15.0772 40.373 14.4725 39.776C13.8761 39.179 13.5779 38.4144 13.5779 37.4821C13.5779 36.5743 13.8802 35.8179 14.4848 35.2127C15.0894 34.5994 15.8534 34.2927 16.7766 34.2927C17.6263 34.2927 18.329 34.5626 18.8846 35.1023C19.4483 35.6421 19.7302 36.3863 19.7302 37.3349C19.7302 37.4358 19.7286 37.5304 19.7255 37.6188C19.7236 37.6728 19.7227 37.6998 19.711 37.7214C19.7009 37.7402 19.6844 37.7561 19.6653 37.7656C19.6432 37.7765 19.6155 37.7765 19.5601 37.7765H14.9015C14.9342 38.2754 15.1262 38.6802 15.4775 38.9909C15.8288 39.2935 16.266 39.4448 16.7889 39.4448C17.5077 39.4448 18.0585 39.1838 18.441 38.6617C18.4808 38.6074 18.5007 38.5803 18.523 38.5689C18.5436 38.5584 18.5638 38.5552 18.5866 38.5587C18.6114 38.5625 18.6368 38.5807 18.6876 38.6171L19.4429 39.157C19.4878 39.1891 19.5103 39.2052 19.5219 39.2273C19.5318 39.2461 19.5359 39.2694 19.533 39.2905C19.5297 39.3151 19.5147 39.3369 19.4848 39.3804C18.8934 40.2411 17.9907 40.6715 16.7766 40.6715ZM14.9628 36.7951H18.3698C18.2963 36.3699 18.1043 36.0387 17.7938 35.8016C17.4915 35.5562 17.1361 35.4335 16.7276 35.4335C16.3027 35.4335 15.9228 35.5521 15.5878 35.7893C15.261 36.0264 15.0527 36.3617 14.9628 36.7951Z" fill="white"/>
<path d="M28.7227 40.5488C28.6638 40.5488 28.6345 40.5488 28.612 40.5374C28.5922 40.5273 28.5762 40.5112 28.5661 40.4915C28.5546 40.469 28.5546 40.4396 28.5546 40.3808V37.1019C28.5546 36.603 28.4607 36.2145 28.2728 35.9365C28.093 35.6584 27.8234 35.5194 27.4639 35.5194C27.0309 35.5194 26.6836 35.6871 26.4221 36.0224C26.1607 36.3576 26.0218 36.8279 26.0055 37.4331V40.3808C26.0055 40.4396 26.0055 40.469 25.994 40.4915C25.984 40.5112 25.9679 40.5273 25.9481 40.5374C25.9256 40.5488 25.8962 40.5488 25.8374 40.5488H24.8254C24.7666 40.5488 24.7371 40.5488 24.7147 40.5374C24.6949 40.5273 24.6789 40.5112 24.6688 40.4915C24.6573 40.469 24.6573 40.4396 24.6573 40.3808V37.1019C24.6573 36.603 24.5634 36.2145 24.3755 35.9365C24.1957 35.6584 23.9261 35.5194 23.5666 35.5194C23.1172 35.5194 22.7577 35.6952 22.4881 36.0469C22.2266 36.3985 22.0959 36.8933 22.0959 37.5312V40.3808C22.0959 40.4396 22.0959 40.469 22.0845 40.4915C22.0744 40.5112 22.0583 40.5273 22.0386 40.5374C22.0161 40.5488 21.9867 40.5488 21.9279 40.5488H20.9158C20.857 40.5488 20.8276 40.5488 20.8051 40.5374C20.7854 40.5273 20.7693 40.5112 20.7592 40.4915C20.7478 40.469 20.7478 40.4396 20.7478 40.3808V34.5834C20.7478 34.5246 20.7478 34.4952 20.7592 34.4727C20.7693 34.453 20.7854 34.4369 20.8051 34.4268C20.8276 34.4154 20.857 34.4154 20.9158 34.4154H21.9279C21.9867 34.4154 22.0161 34.4154 22.0386 34.4268C22.0583 34.4369 22.0744 34.453 22.0845 34.4727C22.0959 34.4952 22.0959 34.5246 22.0959 34.5834V35.2495C22.4718 34.6117 23.0518 34.2927 23.8362 34.2927C24.7595 34.2927 25.3927 34.6975 25.7358 35.5071C25.9074 35.1228 26.1689 34.8243 26.5202 34.6117C26.8797 34.399 27.2719 34.2927 27.6967 34.2927C28.3831 34.2927 28.9223 34.5258 29.3145 34.9919C29.7066 35.4581 29.9028 36.0878 29.9028 36.881V40.3808C29.9028 40.4396 29.9028 40.469 29.8913 40.4915C29.8812 40.5112 29.8652 40.5273 29.8454 40.5374C29.8229 40.5488 29.7935 40.5488 29.7347 40.5488H28.7227Z" fill="white"/>
<path d="M38.67 40.3808C38.67 40.4396 38.67 40.469 38.6588 40.4915C38.6487 40.5113 38.6324 40.5273 38.6126 40.5374C38.5903 40.5488 38.5609 40.5488 38.502 40.5488H37.4967C37.4684 40.5488 37.4542 40.5488 37.4412 40.5454C37.4297 40.5424 37.4185 40.5374 37.4088 40.5306C37.3976 40.523 37.3883 40.5124 37.3697 40.4912L32.6837 35.1098V40.3808C32.6837 40.4396 32.6837 40.469 32.6721 40.4915C32.6621 40.5113 32.6461 40.5273 32.6263 40.5374C32.6036 40.5488 32.5742 40.5488 32.5154 40.5488H31.4177C31.3589 40.5488 31.3294 40.5488 31.3071 40.5374C31.2874 40.5273 31.271 40.5113 31.2609 40.4915C31.2498 40.469 31.2498 40.4396 31.2498 40.3808V32.8782C31.2498 32.8194 31.2498 32.79 31.2609 32.7675C31.271 32.7477 31.2874 32.7317 31.3071 32.7216C31.3294 32.7101 31.3589 32.7101 31.4177 32.7101H32.4219C32.4506 32.7101 32.4647 32.7101 32.4781 32.7137C32.4897 32.7168 32.5009 32.7219 32.5109 32.7288C32.5221 32.7367 32.5314 32.7475 32.55 32.7693L37.2241 38.2613V32.8782C37.2241 32.8194 37.2241 32.79 37.2353 32.7675C37.2454 32.7477 37.2614 32.7317 37.2815 32.7216C37.3038 32.7101 37.3332 32.7101 37.3921 32.7101H38.502C38.5609 32.7101 38.5903 32.7101 38.6126 32.7216C38.6324 32.7317 38.6487 32.7477 38.6588 32.7675C38.67 32.79 38.67 32.8194 38.67 32.8782V40.3808Z" fill="white"/>
<path d="M45.2049 39.7515C44.5924 40.3648 43.8324 40.6715 42.9254 40.6715C42.0187 40.6715 41.2546 40.3648 40.6336 39.7515C40.021 39.1299 39.7146 38.3735 39.7146 37.4821C39.7146 36.5907 40.021 35.8384 40.6336 35.225C41.2546 34.6035 42.0187 34.2927 42.9254 34.2927C43.8324 34.2927 44.5924 34.6035 45.2049 35.225C45.826 35.8384 46.1365 36.5907 46.1365 37.4821C46.1365 38.3735 45.826 39.1299 45.2049 39.7515ZM42.9254 39.4203C43.4567 39.4203 43.8939 39.2363 44.2368 38.8682C44.5883 38.4921 44.7637 38.03 44.7637 37.4821C44.7637 36.9342 44.5883 36.4762 44.2368 36.1082C43.8939 35.732 43.4567 35.5439 42.9254 35.5439C42.3862 35.5439 41.9409 35.732 41.5898 36.1082C41.2465 36.4762 41.0748 36.9342 41.0748 37.4821C41.0748 38.03 41.2465 38.4921 41.5898 38.8682C41.9409 39.2363 42.3862 39.4203 42.9254 39.4203Z" fill="white"/>
<path d="M49.1299 40.6102C48.5088 40.6102 48.002 40.4384 47.61 40.095C47.2261 39.7433 47.0339 39.2363 47.0339 38.5739V32.8784C47.0339 32.8196 47.0339 32.7901 47.0455 32.7677C47.0555 32.7479 47.0715 32.7318 47.0913 32.7218C47.114 32.7103 47.1434 32.7103 47.2022 32.7103H48.2139C48.2727 32.7103 48.3022 32.7103 48.3249 32.7218C48.3446 32.7318 48.3606 32.7479 48.3707 32.7677C48.3822 32.7901 48.3822 32.8196 48.3822 32.8784V34.4154H49.9666C50.0254 34.4154 50.0548 34.4154 50.0775 34.4269C50.0973 34.4369 50.1133 34.453 50.1233 34.4728C50.1349 34.4952 50.1349 34.5246 50.1349 34.5835V35.4495C50.1349 35.5083 50.1349 35.5378 50.1233 35.5602C50.1133 35.58 50.0973 35.5961 50.0775 35.6061C50.0548 35.6176 50.0254 35.6176 49.9666 35.6176H48.3822V38.3531C48.3822 38.7293 48.4638 38.9991 48.6272 39.1627C48.7907 39.3181 49.0521 39.3957 49.4118 39.3957C49.6464 39.3957 49.8474 39.3697 50.0146 39.3176C50.0589 39.3037 50.0809 39.2969 50.0958 39.3007C50.1092 39.3043 50.1192 39.3116 50.1267 39.3235C50.1349 39.3363 50.1349 39.358 50.1349 39.4013V40.3509C50.1349 40.3954 50.1349 40.4177 50.1267 40.4372C50.1196 40.4537 50.1073 40.4697 50.0928 40.4805C50.076 40.4932 50.0556 40.4984 50.015 40.5088C49.7506 40.5764 49.4553 40.6102 49.1299 40.6102Z" fill="white"/>
<path d="M53.8148 40.6715C52.8832 40.6715 52.1154 40.373 51.5107 39.776C50.9142 39.179 50.616 38.4144 50.616 37.4821C50.616 36.5743 50.9183 35.8179 51.523 35.2127C52.1277 34.5994 52.8914 34.2927 53.8148 34.2927C54.6645 34.2927 55.3672 34.5626 55.9227 35.1023C56.4865 35.6421 56.7683 36.3863 56.7683 37.3349C56.7683 37.4357 56.7668 37.5302 56.7639 37.6185C56.762 37.6726 56.7609 37.6996 56.749 37.7213C56.7389 37.7401 56.7225 37.7561 56.7035 37.7655C56.6812 37.7765 56.6536 37.7765 56.5978 37.7765H51.9397C51.9724 38.2754 52.1642 38.6802 52.5157 38.9909C52.8668 39.2935 53.304 39.4448 53.8271 39.4448C54.5458 39.4448 55.0965 39.1838 55.4792 38.6617C55.5191 38.6074 55.5388 38.5803 55.5612 38.5689C55.5816 38.5584 55.6021 38.5552 55.6248 38.5587C55.6494 38.5625 55.6751 38.5807 55.7257 38.6171L56.4809 39.157C56.5259 39.1891 56.5486 39.2052 56.5602 39.2273C56.5699 39.2461 56.574 39.2694 56.5713 39.2905C56.568 39.3151 56.5527 39.3369 56.5229 39.3804C55.9317 40.2411 55.0287 40.6715 53.8148 40.6715ZM52.0011 36.7951H55.4081C55.3344 36.3699 55.1426 36.0387 54.8321 35.8016C54.5298 35.5562 54.1742 35.4335 53.7657 35.4335C53.3408 35.4335 52.961 35.5521 52.6259 35.7893C52.299 36.0264 52.0909 36.3617 52.0011 36.7951Z" fill="white"/>
</g>
<defs>
<clipPath id="clip0_1_22759">
<rect width="64.0444" height="40.6714" fill="white"/>
</clipPath>
</defs>
</svg>
