<svg width="172" height="26" viewBox="0 0 172 26" fill="none" xmlns="http://www.w3.org/2000/svg">
<g clip-path="url(#clip0)">
<path d="M39.5342 23.3756C39.3762 23.3756 39.2972 23.3756 39.2369 23.3449C39.1838 23.3178 39.1407 23.2747 39.1136 23.2216C39.0829 23.1613 39.0829 23.0823 39.0829 22.9243V2.77504C39.0829 2.61707 39.0829 2.53808 39.1136 2.47774C39.1407 2.42467 39.1838 2.38152 39.2369 2.35447C39.2972 2.32373 39.3762 2.32373 39.5342 2.32373H47.5089C49.6593 2.32373 51.3709 2.94967 52.6435 4.20156C53.9382 5.43148 54.5855 7.02379 54.5855 8.97848C54.5855 10.6257 54.1247 11.9874 53.2031 13.0636C52.3034 14.1178 50.9978 14.8316 49.2863 15.205L55.4612 23.0099C55.5539 23.1271 55.6002 23.1857 55.6001 23.235C55.6 23.2778 55.5804 23.3183 55.5468 23.3449C55.5083 23.3756 55.4336 23.3756 55.2842 23.3756H51.3394C51.2596 23.3756 51.2197 23.3756 51.1829 23.3654C51.1502 23.3564 51.1195 23.3416 51.0921 23.3217C51.0612 23.2993 51.0363 23.2681 50.9866 23.2057L44.7896 15.4356H42.9338V22.9243C42.9338 23.0823 42.9338 23.1613 42.9031 23.2216C42.8761 23.2747 42.8329 23.3178 42.7798 23.3449C42.7195 23.3756 42.6405 23.3756 42.4825 23.3756H39.5342ZM42.9338 12.0752H47.0481C48.1891 12.0752 49.0888 11.8117 49.7471 11.2846C50.4054 10.7355 50.7345 9.96681 50.7345 8.97848C50.7345 7.99015 50.4054 7.23243 49.7471 6.70532C49.0888 6.15625 48.1891 5.88171 47.0481 5.88171H42.9338V12.0752Z" fill="#292936"/>
<path d="M64.5971 23.705C62.0956 23.705 60.033 22.9034 58.4092 21.3001C56.8074 19.6968 56.0065 17.6433 56.0065 15.1395C56.0065 12.7016 56.8184 10.6701 58.4422 9.04483C60.0659 7.39762 62.1176 6.57401 64.5971 6.57401C66.8792 6.57401 68.7662 7.29878 70.2583 8.74833C71.7724 10.1979 72.5294 12.1965 72.5294 14.7442C72.5294 15.0151 72.5252 15.2692 72.5169 15.5067C72.5118 15.6517 72.5093 15.7241 72.4778 15.7823C72.4506 15.8326 72.4063 15.8754 72.3551 15.9008C72.2958 15.9302 72.2214 15.9302 72.0725 15.9302H59.5612C59.649 17.2699 60.1647 18.3571 61.1082 19.1917C62.0517 20.0043 63.2257 20.4106 64.63 20.4106C66.5607 20.4106 68.0397 19.7096 69.0672 18.3075C69.174 18.1617 69.2274 18.0888 69.2873 18.0583C69.3427 18.0301 69.3968 18.0215 69.4582 18.0309C69.5246 18.0412 69.5929 18.09 69.7294 18.1876L71.7577 19.6377C71.8785 19.724 71.9389 19.7672 71.97 19.8264C71.9966 19.8769 72.0076 19.9396 71.9999 19.9961C71.9908 20.0624 71.9506 20.1208 71.8703 20.2377C70.2821 22.5493 67.8577 23.705 64.5971 23.705ZM59.7258 13.2946H68.8759C68.6785 12.1526 68.1628 11.2631 67.329 10.6262C66.5171 9.96727 65.5626 9.63783 64.4654 9.63783C63.3244 9.63783 62.3041 9.95629 61.4044 10.5932C60.5267 11.2301 59.9672 12.1306 59.7258 13.2946Z" fill="#292936"/>
<path d="M96.6815 23.3756C96.5235 23.3756 96.4446 23.3756 96.3842 23.3449C96.3311 23.3178 96.288 23.2747 96.261 23.2216C96.2302 23.1613 96.2302 23.0823 96.2302 22.9243V14.1183C96.2302 12.7785 95.9779 11.7353 95.4732 10.9885C94.9904 10.2418 94.2663 9.86844 93.3008 9.86844C92.1379 9.86844 91.2053 10.3187 90.5031 11.2192C89.801 12.1196 89.4279 13.3825 89.3841 15.0078V22.9243C89.3841 23.0823 89.3841 23.1613 89.3533 23.2216C89.3263 23.2747 89.2831 23.3178 89.23 23.3449C89.1697 23.3756 89.0907 23.3756 88.9328 23.3756H86.2148C86.0568 23.3756 85.9778 23.3756 85.9175 23.3449C85.8644 23.3178 85.8213 23.2747 85.7942 23.2216C85.7635 23.1613 85.7635 23.0823 85.7635 22.9243V14.1183C85.7635 12.7785 85.5112 11.7353 85.0065 10.9885C84.5237 10.2418 83.7996 9.86844 82.8341 9.86844C81.6273 9.86844 80.6618 10.3406 79.9377 11.285C79.2355 12.2294 78.8844 13.5582 78.8844 15.2713V22.9243C78.8844 23.0823 78.8844 23.1613 78.8537 23.2216C78.8266 23.2747 78.7835 23.3178 78.7304 23.3449C78.6701 23.3756 78.5911 23.3756 78.4331 23.3756H75.7152C75.5572 23.3756 75.4782 23.3756 75.4179 23.3449C75.3648 23.3178 75.3217 23.2747 75.2946 23.2216C75.2639 23.1613 75.2639 23.0823 75.2639 22.9243V7.35476C75.2639 7.19679 75.2639 7.1178 75.2946 7.05746C75.3217 7.00439 75.3648 6.96124 75.4179 6.9342C75.4782 6.90345 75.5572 6.90345 75.7152 6.90345H78.4331C78.5911 6.90345 78.6701 6.90345 78.7304 6.9342C78.7835 6.96124 78.8266 7.00439 78.8537 7.05746C78.8844 7.1178 78.8844 7.19679 78.8844 7.35476V9.14366C79.8938 7.43056 81.4517 6.57401 83.5582 6.57401C86.0378 6.57401 87.7383 7.66117 88.6599 9.83549C89.1207 8.80324 89.8229 8.0016 90.7664 7.43056C91.7319 6.85953 92.7852 6.57401 93.9262 6.57401C95.7694 6.57401 97.2176 7.19995 98.2709 8.45184C99.3241 9.70372 99.8508 11.3949 99.8508 13.5253V22.9243C99.8508 23.0823 99.8508 23.1613 99.82 23.2216C99.793 23.2747 99.7498 23.3178 99.6968 23.3449C99.6364 23.3756 99.5574 23.3756 99.3995 23.3756H96.6815Z" fill="#292936"/>
<path d="M123.395 22.9243C123.395 23.0823 123.395 23.1613 123.365 23.2216C123.338 23.2747 123.294 23.3178 123.241 23.3449C123.181 23.3756 123.102 23.3756 122.944 23.3756H120.244C120.168 23.3756 120.13 23.3756 120.095 23.3664C120.064 23.3582 120.034 23.3448 120.008 23.3267C119.978 23.3062 119.953 23.2777 119.903 23.2207L107.318 8.76829V22.9243C107.318 23.0823 107.318 23.1613 107.287 23.2216C107.26 23.2747 107.217 23.3178 107.164 23.3449C107.103 23.3756 107.024 23.3756 106.866 23.3756H103.918C103.76 23.3756 103.681 23.3756 103.621 23.3449C103.568 23.3178 103.524 23.2747 103.497 23.2216C103.467 23.1613 103.467 23.0823 103.467 22.9243V2.77504C103.467 2.61707 103.467 2.53808 103.497 2.47774C103.524 2.42467 103.568 2.38152 103.621 2.35447C103.681 2.32373 103.76 2.32373 103.918 2.32373H106.615C106.692 2.32373 106.73 2.32373 106.766 2.33319C106.797 2.34157 106.827 2.35536 106.854 2.37396C106.884 2.39494 106.909 2.42414 106.959 2.48254L119.512 17.2322V2.77504C119.512 2.61706 119.512 2.53808 119.542 2.47774C119.569 2.42467 119.612 2.38152 119.666 2.35447C119.726 2.32373 119.805 2.32373 119.963 2.32373H122.944C123.102 2.32373 123.181 2.32373 123.241 2.35447C123.294 2.38152 123.338 2.42467 123.365 2.47774C123.395 2.53808 123.395 2.61706 123.395 2.77504V22.9243Z" fill="#292936"/>
<path d="M140.945 21.2342C139.3 22.8814 137.259 23.705 134.823 23.705C132.388 23.705 130.336 22.8814 128.668 21.2342C127.023 19.565 126.2 17.5335 126.2 15.1395C126.2 12.7456 127.023 10.725 128.668 9.07778C130.336 7.4086 132.388 6.57401 134.823 6.57401C137.259 6.57401 139.3 7.4086 140.945 9.07778C142.613 10.725 143.447 12.7456 143.447 15.1395C143.447 17.5335 142.613 19.565 140.945 21.2342ZM134.823 20.3447C136.25 20.3447 137.424 19.8506 138.345 18.8622C139.289 17.8519 139.76 16.611 139.76 15.1395C139.76 13.668 139.289 12.4381 138.345 11.4498C137.424 10.4395 136.25 9.93433 134.823 9.93433C133.375 9.93433 132.179 10.4395 131.236 11.4498C130.314 12.4381 129.853 13.668 129.853 15.1395C129.853 16.611 130.314 17.8519 131.236 18.8622C132.179 19.8506 133.375 20.3447 134.823 20.3447Z" fill="#292936"/>
<path d="M151.487 23.5403C149.819 23.5403 148.458 23.0791 147.405 22.1567C146.374 21.2123 145.858 19.8506 145.858 18.0716V2.7755C145.858 2.61753 145.858 2.53854 145.889 2.4782C145.916 2.42513 145.959 2.38198 146.012 2.35494C146.073 2.32419 146.152 2.32419 146.31 2.32419H149.027C149.185 2.32419 149.264 2.32419 149.325 2.35494C149.378 2.38198 149.421 2.42513 149.448 2.4782C149.479 2.53854 149.479 2.61753 149.479 2.7755V6.90345H153.734C153.892 6.90345 153.971 6.90345 154.032 6.9342C154.085 6.96124 154.128 7.00439 154.155 7.05746C154.186 7.1178 154.186 7.19679 154.186 7.35476V9.68069C154.186 9.83866 154.186 9.91765 154.155 9.97798C154.128 10.0311 154.085 10.0742 154.032 10.1013C153.971 10.132 153.892 10.132 153.734 10.132H149.479V17.4786C149.479 18.4889 149.698 19.2136 150.137 19.6529C150.576 20.0702 151.278 20.2788 152.244 20.2788C152.874 20.2788 153.414 20.2088 153.863 20.0688C153.982 20.0317 154.041 20.0132 154.081 20.0236C154.117 20.0333 154.144 20.0528 154.164 20.0848C154.186 20.1192 154.186 20.1774 154.186 20.2937V22.844C154.186 22.9636 154.186 23.0234 154.164 23.0757C154.145 23.1201 154.112 23.163 154.073 23.192C154.028 23.2261 153.973 23.2401 153.864 23.268C153.154 23.4496 152.361 23.5403 151.487 23.5403Z" fill="#292936"/>
<path d="M164.068 23.705C161.566 23.705 159.504 22.9034 157.88 21.3001C156.278 19.6968 155.477 17.6433 155.477 15.1395C155.477 12.7016 156.289 10.6701 157.913 9.04483C159.537 7.39762 161.588 6.57401 164.068 6.57401C166.35 6.57401 168.237 7.29878 169.729 8.74833C171.243 10.1979 172 12.1965 172 14.7442C172 15.0148 171.996 15.2687 171.988 15.5059C171.983 15.6511 171.98 15.7237 171.948 15.782C171.921 15.8324 171.877 15.8753 171.826 15.9007C171.766 15.9302 171.692 15.9302 171.542 15.9302H159.032C159.12 17.2699 159.635 18.3571 160.579 19.1917C161.522 20.0043 162.696 20.4106 164.101 20.4106C166.031 20.4106 167.51 19.7096 168.538 18.3075C168.645 18.1617 168.698 18.0888 168.758 18.0583C168.813 18.0301 168.868 18.0215 168.929 18.0309C168.995 18.0412 169.064 18.09 169.2 18.1876L171.228 19.6377C171.349 19.724 171.41 19.7672 171.441 19.8264C171.467 19.8769 171.478 19.9396 171.471 19.9961C171.462 20.0624 171.421 20.1208 171.341 20.2377C169.753 22.5493 167.328 23.705 164.068 23.705ZM159.197 13.2946H168.347C168.149 12.1526 167.634 11.2631 166.8 10.6262C165.988 9.96727 165.033 9.63783 163.936 9.63783C162.795 9.63783 161.775 9.95629 160.875 10.5932C159.997 11.2301 159.438 12.1306 159.197 13.2946Z" fill="#292936"/>
<path fill-rule="evenodd" clip-rule="evenodd" d="M16.1997 14.7623C15.7753 14.1962 15.5631 13.9132 15.3029 13.812C15.0751 13.7233 14.8222 13.7233 14.5943 13.812C14.3342 13.9132 14.1219 14.1962 13.6975 14.7623L7.85488 22.5553C7.25119 23.3605 6.94934 23.7632 6.95639 24.1001C6.96252 24.3934 7.10005 24.6684 7.33101 24.8492C7.59642 25.057 8.09961 25.057 9.106 25.057H20.7913C21.7977 25.057 22.3009 25.057 22.5663 24.8492C22.7972 24.6684 22.9347 24.3934 22.9409 24.1001C22.9479 23.7632 22.6461 23.3605 22.0424 22.5553L16.1997 14.7623ZM11.9591 2.5068C11.9591 1.95946 11.9591 1.68579 12.0656 1.47673C12.1593 1.29284 12.3088 1.14333 12.4927 1.04964C12.7018 0.943115 12.9755 0.943115 13.5228 0.943115H16.375C16.9223 0.943115 17.196 0.943115 17.4051 1.04964C17.589 1.14333 17.7385 1.29284 17.8322 1.47673C17.9387 1.68579 17.9387 1.95946 17.9387 2.5068V8.67682L22.2993 4.31464C22.6864 3.92741 22.8799 3.7338 23.1031 3.66126C23.2994 3.59746 23.5109 3.59746 23.7073 3.66126C23.9305 3.7338 24.124 3.92741 24.5111 4.31464L26.5283 6.33256C26.9151 6.71954 27.1085 6.91302 27.181 7.13612C27.2448 7.33237 27.2448 7.54375 27.181 7.74C27.1085 7.96309 26.9151 8.15658 26.5283 8.54355L22.1669 12.9065H28.3341C28.8815 12.9065 29.1551 12.9065 29.3642 13.0131C29.5481 13.1068 29.6976 13.2563 29.7913 13.4402C29.8978 13.6492 29.8978 13.9229 29.8978 14.4702V17.3246C29.8978 17.8719 29.8978 18.1456 29.7913 18.3546C29.6976 18.5385 29.5481 18.688 29.3642 18.7817C29.1551 18.8882 28.8815 18.8882 28.3341 18.8882H1.56369C1.01635 18.8882 0.742675 18.8882 0.533618 18.7817C0.349726 18.688 0.200217 18.5385 0.10652 18.3546C0 18.1456 0 17.8719 0 17.3246V14.4702C0 13.9229 0 13.6492 0.10652 13.4402C0.200217 13.2563 0.349726 13.1068 0.533618 13.0131C0.742675 12.9065 1.01635 12.9065 1.56369 12.9065H7.73084L3.36944 8.54364C2.9826 8.15667 2.78918 7.96319 2.71671 7.74009C2.65296 7.54384 2.65296 7.33245 2.7167 7.13621C2.78918 6.91311 2.98259 6.71962 3.36943 6.33264L5.38663 4.31472C5.77372 3.9275 5.96726 3.73389 6.19045 3.66135C6.38677 3.59754 6.59826 3.59754 6.79459 3.66134C7.01778 3.73388 7.21132 3.92749 7.59841 4.31471L11.9591 8.67692V2.5068Z" fill="#4B73FF"/>
</g>
<defs>
<clipPath id="clip0">
<rect width="172" height="24.1139" fill="white" transform="translate(0 0.943115)"/>
</clipPath>
</defs>
</svg>
