<svg width="71" height="18" viewBox="0 0 71 18" fill="none" xmlns="http://www.w3.org/2000/svg">
<g clip-path="url(#clip0_1_22675)">
<path d="M20.0168 7.54641C20.7473 7.54641 21.3411 8.13946 21.3411 8.8673C21.3411 9.59664 20.7473 10.1882 20.0168 10.1882C19.9161 10.1882 19.7071 10.1522 19.7041 10.1507C19.6365 10.1357 19.3283 10.0728 19.1104 10.1594C18.8143 10.2792 18.6053 10.5682 18.6053 10.9067C18.6053 11.2287 18.8428 11.5552 19.0999 11.648C19.3569 11.7423 19.7327 11.7993 20.0168 11.7993C21.6387 11.7993 22.9585 10.4829 22.9585 8.86694C22.9585 7.25101 21.6387 5.93611 20.0168 5.93611C19.2081 5.93611 18.4249 6.27458 17.8748 6.86014C17.8748 6.86014 12.6799 12.1782 11.4533 13.228C10.3636 14.1625 9.04529 14.7496 7.49704 14.7496C5.91873 14.7496 4.43664 14.1386 3.32129 13.0273C2.20596 11.9161 1.59116 10.4379 1.59116 8.86694C1.59116 5.6231 4.24122 2.9843 7.49704 2.9843C8.12686 2.9843 8.55225 3.09962 8.7191 3.11009C9.12495 3.13107 9.45716 2.7986 9.45716 2.41222C9.45716 2.07525 9.20914 1.77723 8.87995 1.71882C8.87995 1.71882 8.24562 1.58702 7.49554 1.58702C3.46559 1.58702 0.188721 4.85182 0.188721 8.86694C0.188721 10.8123 0.947808 12.6409 2.3277 14.0158C3.7091 15.3906 5.54445 16.1484 7.49704 16.1484C9.38951 16.1484 11.1737 15.4325 12.5401 14.1296L19.0773 7.9504C19.3404 7.7003 19.6034 7.54641 20.0168 7.54641ZM20.0157 13.0618C19.3513 13.0618 19.0672 12.9225 18.8387 12.9225C18.3923 12.9225 18.03 13.2834 18.03 13.7282C18.03 14.0712 18.2675 14.3977 18.5802 14.4905C18.8913 14.5849 19.455 14.6732 20.0172 14.6732C23.2294 14.6732 25.8434 12.0688 25.8434 8.86694C25.8434 5.66653 23.2309 3.06217 20.0172 3.06217C18.4449 3.06217 16.9222 3.70766 15.8264 4.83836L9.96112 11.3305C9.30124 11.9865 8.4264 12.3474 7.49746 12.3474C5.57041 12.3474 4.00412 10.7869 4.00412 8.86694C4.00412 6.94849 5.57192 5.38649 7.49895 5.38649C7.94991 5.38649 8.0897 5.47189 8.2806 5.47189C8.6173 5.47189 8.96302 5.18736 8.96302 4.77402C8.96302 4.44155 8.73154 4.14351 8.41588 4.07462C8.16485 4.02072 7.79357 3.98779 7.49746 3.98779C4.79629 3.98779 2.60018 6.17731 2.60018 8.86704C2.60018 11.5583 4.79629 13.7463 7.49746 13.7463C9.7146 13.7463 10.9427 12.331 11.1381 12.1289L16.8651 6.09196C17.6648 5.19039 18.8147 4.67369 20.0172 4.67369C22.3381 4.67369 24.226 6.55472 24.226 8.86704C24.226 11.1794 22.3381 13.0618 20.0157 13.0618ZM26.1771 2.72978C24.5312 1.09139 22.3441 0.188324 20.0172 0.188324C17.2499 0.188324 14.6194 1.52273 12.984 3.75268C12.984 3.75268 8.57221 9.24892 8.35275 9.52448C8.13329 9.80154 7.81311 9.94532 7.49746 9.94532C6.9007 9.94532 6.41367 9.46159 6.41367 8.86704C6.41367 8.27248 6.9007 7.79024 7.49746 7.79024C7.60868 7.79024 7.69436 7.80218 7.78455 7.80218C8.16335 7.80218 8.47151 7.47871 8.47151 7.1058C8.47151 6.81526 8.27007 6.37947 7.58312 6.37947C6.11455 6.37947 5.01124 7.50268 5.01124 8.867C5.01124 10.2328 6.12658 11.3441 7.49746 11.3441C8.19492 11.3441 8.85931 11.052 9.32979 10.5383L14.4134 4.53887C15.7723 2.79714 17.8136 1.79975 20.0172 1.79975C21.9127 1.79975 23.6939 2.53508 25.0332 3.86946C26.374 5.20383 27.1121 6.97851 27.1121 8.867C27.1121 12.7638 23.9284 15.9358 20.0142 15.9358C18.9064 15.9358 18.5411 15.7336 18.269 15.7336C17.8091 15.7336 17.4423 16.0945 17.4423 16.5453C17.4423 16.8822 17.6422 17.1683 17.9699 17.3001C18.2495 17.4124 19.3333 17.5472 20.0172 17.5472C24.8198 17.5472 28.728 13.6534 28.728 8.867C28.728 6.54869 27.8216 4.36967 26.1771 2.72978Z" fill="#7DCA28"/>
<path d="M38.4841 8.71754L33.8664 7.03272C33.6349 6.94589 33.4696 6.7212 33.4696 6.45912C33.4696 6.12065 33.7446 5.84512 34.0858 5.84512H39.0974V4.04047H34.0347C32.6939 4.04047 31.6072 5.12324 31.6072 6.45912C31.6072 7.49098 32.255 8.37159 33.1674 8.71903L37.7851 10.4039C38.0181 10.4878 38.1819 10.7154 38.1819 10.9775C38.1819 11.3174 37.9069 11.5915 37.5657 11.5915H31.5981V13.3961H37.6168C38.9576 13.3961 40.0954 12.3133 40.0954 10.9775C40.0954 9.94709 39.395 9.06649 38.4841 8.71754ZM64.0316 11.5915C63.6919 11.5915 63.4153 11.3174 63.4153 10.9775C63.4153 10.7154 63.5792 10.4877 63.8137 10.4039L68.4299 8.71903C69.3423 8.37159 69.9901 7.49098 69.9901 6.45912C69.9901 5.12324 68.9033 4.04047 67.5625 4.04047H62.4999V5.84512H67.5114C67.8511 5.84512 68.1277 6.12065 68.1277 6.45912C68.1277 6.7212 67.9624 6.94586 67.7309 7.03272L63.1147 8.71754C62.2023 9.06649 61.5018 9.94709 61.5018 10.9775C61.5018 12.3133 62.6397 13.3961 63.9805 13.3961H69.9976V11.5915H64.0316ZM47.6623 9.62661C47.6667 11.0448 46.8055 11.7757 45.4843 11.7757C44.163 11.7757 43.3017 11.0448 43.3062 9.62661V4.04047H41.3356V9.75689C41.3356 11.8491 42.8537 13.5204 45.4843 13.5204C48.1148 13.5204 49.6329 11.8491 49.6329 9.75689V4.04047H47.6623V9.62661ZM55.9702 3.91769C53.2615 3.91769 51.1196 6.06676 51.1196 8.71903C51.1196 11.3698 53.2615 13.5204 55.9702 13.5204C57.6477 13.5204 59.0111 12.8255 59.9987 11.6499L58.4895 10.5806C57.8041 11.3728 56.9728 11.8251 55.9702 11.8251C54.5738 11.8251 53.4059 10.7842 53.1127 9.39296H60.6721C60.7007 9.1833 60.7202 8.93769 60.7202 8.71903C60.7202 6.06826 58.6804 3.91769 55.9702 3.91769ZM53.1593 7.84143C53.5141 6.546 54.6369 5.5995 55.9687 5.5995C57.302 5.5995 58.4249 6.546 58.7796 7.84143H53.1593Z" fill="white"/>
</g>
<defs>
<clipPath id="clip0_1_22675">
<rect width="70.1874" height="17.7355" fill="white"/>
</clipPath>
</defs>
</svg>
