<svg width="455" height="160" viewBox="0 0 455 160" fill="none" xmlns="http://www.w3.org/2000/svg">
<g clip-path="url(#clip0_1_24569)">
<rect x="0.5" width="455" height="160" rx="8" fill="#1A1A1A"/>
<path d="M105.847 62L109.431 52.06H111.363L114.947 62H113.323L112.427 59.41H108.367L107.457 62H105.847ZM108.843 58.038H111.951L110.397 53.502L108.843 58.038ZM118.863 62.168C118.144 62.168 117.519 62.0093 116.987 61.692C116.464 61.3653 116.054 60.9127 115.755 60.334C115.466 59.746 115.321 59.06 115.321 58.276C115.321 57.492 115.466 56.8107 115.755 56.232C116.054 55.644 116.464 55.1913 116.987 54.874C117.519 54.5473 118.144 54.384 118.863 54.384C119.768 54.384 120.515 54.622 121.103 55.098C121.7 55.5647 122.06 56.2273 122.181 57.086L120.641 57.17C120.566 56.6847 120.366 56.316 120.039 56.064C119.722 55.8027 119.33 55.672 118.863 55.672C118.228 55.672 117.734 55.9053 117.379 56.372C117.034 56.8293 116.861 57.464 116.861 58.276C116.861 59.0973 117.034 59.7367 117.379 60.194C117.734 60.6513 118.228 60.88 118.863 60.88C119.33 60.88 119.722 60.7493 120.039 60.488C120.366 60.2173 120.566 59.8113 120.641 59.27L122.181 59.354C122.069 60.2127 121.714 60.8987 121.117 61.412C120.52 61.916 119.768 62.168 118.863 62.168ZM125.808 62C125.098 62 124.576 61.8413 124.24 61.524C123.904 61.1973 123.736 60.684 123.736 59.984V55.77H122.602V54.552H123.736V52.802H125.22V54.552H127.194V55.77H125.22V59.872C125.22 60.2173 125.294 60.4553 125.444 60.586C125.593 60.7167 125.822 60.782 126.13 60.782H127.194V62H125.808ZM128.371 62V54.552H129.855V62H128.371ZM128.343 53.474V51.99H129.897V53.474H128.343ZM133.577 62L130.861 54.552H132.443L134.473 60.488L136.503 54.552H138.099L135.383 62H133.577ZM141.812 62.168C141.093 62.168 140.468 62.0093 139.936 61.692C139.413 61.3653 139.007 60.9127 138.718 60.334C138.429 59.746 138.284 59.06 138.284 58.276C138.284 57.492 138.429 56.8107 138.718 56.232C139.007 55.644 139.409 55.1913 139.922 54.874C140.445 54.5473 141.061 54.384 141.77 54.384C142.451 54.384 143.049 54.5427 143.562 54.86C144.075 55.168 144.472 55.616 144.752 56.204C145.041 56.792 145.186 57.5013 145.186 58.332V58.71H139.838C139.875 59.438 140.067 59.984 140.412 60.348C140.767 60.712 141.238 60.894 141.826 60.894C142.265 60.894 142.629 60.796 142.918 60.6C143.207 60.3947 143.413 60.1147 143.534 59.76L145.074 59.858C144.878 60.558 144.491 61.118 143.912 61.538C143.343 61.958 142.643 62.168 141.812 62.168ZM139.838 57.59H143.604C143.557 56.9273 143.366 56.4373 143.03 56.12C142.703 55.8027 142.283 55.644 141.77 55.644C141.247 55.644 140.813 55.812 140.468 56.148C140.132 56.4747 139.922 56.9553 139.838 57.59ZM152.007 62.168C151.251 62.168 150.654 61.9207 150.215 61.426C149.777 60.9313 149.557 60.236 149.557 59.34V54.552H151.041V58.962C151.041 59.634 151.158 60.1287 151.391 60.446C151.625 60.7633 151.979 60.922 152.455 60.922C152.997 60.922 153.417 60.7493 153.715 60.404C154.023 60.0493 154.177 59.5547 154.177 58.92V54.552H155.661V62H154.275L154.261 60.782C153.86 61.706 153.109 62.168 152.007 62.168ZM160.131 62.168C159.076 62.168 158.269 61.9347 157.709 61.468C157.149 60.992 156.841 60.3853 156.785 59.648L158.325 59.578C158.39 59.9887 158.563 60.3153 158.843 60.558C159.132 60.8007 159.562 60.922 160.131 60.922C160.588 60.922 160.952 60.8473 161.223 60.698C161.503 60.5487 161.643 60.3107 161.643 59.984C161.643 59.8067 161.596 59.6573 161.503 59.536C161.419 59.4053 161.251 59.298 160.999 59.214C160.747 59.1207 160.369 59.032 159.865 58.948C159.128 58.8173 158.549 58.654 158.129 58.458C157.709 58.262 157.41 58.024 157.233 57.744C157.056 57.4547 156.967 57.1047 156.967 56.694C156.967 56.022 157.219 55.4713 157.723 55.042C158.236 54.6033 158.978 54.384 159.949 54.384C160.584 54.384 161.12 54.496 161.559 54.72C161.998 54.9347 162.338 55.2287 162.581 55.602C162.833 55.966 162.996 56.3767 163.071 56.834L161.545 56.918C161.47 56.5353 161.298 56.2273 161.027 55.994C160.756 55.7513 160.392 55.63 159.935 55.63C159.459 55.63 159.1 55.7233 158.857 55.91C158.624 56.0967 158.507 56.3393 158.507 56.638C158.507 56.9647 158.628 57.212 158.871 57.38C159.123 57.5387 159.557 57.6647 160.173 57.758C160.948 57.8887 161.55 58.0473 161.979 58.234C162.418 58.4207 162.726 58.6587 162.903 58.948C163.09 59.228 163.183 59.5687 163.183 59.97C163.183 60.4367 163.052 60.8333 162.791 61.16C162.53 61.4867 162.166 61.7387 161.699 61.916C161.242 62.084 160.719 62.168 160.131 62.168ZM167.51 62.168C166.791 62.168 166.166 62.0093 165.634 61.692C165.111 61.3653 164.705 60.9127 164.416 60.334C164.126 59.746 163.982 59.06 163.982 58.276C163.982 57.492 164.126 56.8107 164.416 56.232C164.705 55.644 165.106 55.1913 165.62 54.874C166.142 54.5473 166.758 54.384 167.468 54.384C168.149 54.384 168.746 54.5427 169.26 54.86C169.773 55.168 170.17 55.616 170.45 56.204C170.739 56.792 170.884 57.5013 170.884 58.332V58.71H165.536C165.573 59.438 165.764 59.984 166.11 60.348C166.464 60.712 166.936 60.894 167.524 60.894C167.962 60.894 168.326 60.796 168.616 60.6C168.905 60.3947 169.11 60.1147 169.232 59.76L170.772 59.858C170.576 60.558 170.188 61.118 169.61 61.538C169.04 61.958 168.34 62.168 167.51 62.168ZM165.536 57.59H169.302C169.255 56.9273 169.064 56.4373 168.728 56.12C168.401 55.8027 167.981 55.644 167.468 55.644C166.945 55.644 166.511 55.812 166.166 56.148C165.83 56.4747 165.62 56.9553 165.536 57.59ZM172.119 62V54.552H173.477L173.519 55.966C173.659 55.4807 173.873 55.126 174.163 54.902C174.461 54.6687 174.839 54.552 175.297 54.552H176.011V55.882H175.297C174.727 55.882 174.303 56.022 174.023 56.302C173.743 56.582 173.603 57.016 173.603 57.604V62H172.119ZM179.794 62.168C178.739 62.168 177.932 61.9347 177.372 61.468C176.812 60.992 176.504 60.3853 176.448 59.648L177.988 59.578C178.053 59.9887 178.226 60.3153 178.506 60.558C178.795 60.8007 179.224 60.922 179.794 60.922C180.251 60.922 180.615 60.8473 180.886 60.698C181.166 60.5487 181.306 60.3107 181.306 59.984C181.306 59.8067 181.259 59.6573 181.166 59.536C181.082 59.4053 180.914 59.298 180.662 59.214C180.41 59.1207 180.032 59.032 179.528 58.948C178.79 58.8173 178.212 58.654 177.792 58.458C177.372 58.262 177.073 58.024 176.896 57.744C176.718 57.4547 176.63 57.1047 176.63 56.694C176.63 56.022 176.882 55.4713 177.386 55.042C177.899 54.6033 178.641 54.384 179.612 54.384C180.246 54.384 180.783 54.496 181.222 54.72C181.66 54.9347 182.001 55.2287 182.244 55.602C182.496 55.966 182.659 56.3767 182.734 56.834L181.208 56.918C181.133 56.5353 180.96 56.2273 180.69 55.994C180.419 55.7513 180.055 55.63 179.598 55.63C179.122 55.63 178.762 55.7233 178.52 55.91C178.286 56.0967 178.17 56.3393 178.17 56.638C178.17 56.9647 178.291 57.212 178.534 57.38C178.786 57.5387 179.22 57.6647 179.836 57.758C180.61 57.8887 181.212 58.0473 181.642 58.234C182.08 58.4207 182.388 58.6587 182.566 58.948C182.753 59.228 182.846 59.5687 182.846 59.97C182.846 60.4367 182.715 60.8333 182.454 61.16C182.192 61.4867 181.828 61.7387 181.362 61.916C180.904 62.084 180.382 62.168 179.794 62.168Z" fill="white"/>
<g filter="url(#filter0_dd_1_24569)">
<path d="M318.5 38.913C318.5 35.6474 321.147 33 324.413 33H370.326C373.592 33 376.239 35.6474 376.239 38.913V57C376.239 60.2657 373.592 62.913 370.326 62.913H324.413C321.147 62.913 318.5 60.2657 318.5 57V38.913Z" fill="white" shape-rendering="crispEdges"/>
<path d="M329.339 54.9561L333.862 49.1021L334.217 49.3328C334.051 49.5101 333.868 49.6521 333.667 49.7585C333.478 49.8649 333.271 49.9418 333.046 49.9891C332.833 50.0364 332.603 50.0601 332.354 50.0601C331.562 50.0601 330.852 49.8827 330.226 49.5279C329.599 49.1613 329.102 48.6646 328.735 48.0378C328.381 47.3992 328.203 46.6778 328.203 45.8736C328.203 45.034 328.398 44.2889 328.789 43.6385C329.179 42.9881 329.711 42.4736 330.385 42.0952C331.059 41.7168 331.828 41.5275 332.691 41.5275C333.566 41.5275 334.335 41.7168 334.997 42.0952C335.671 42.4736 336.198 42.994 336.576 43.6562C336.966 44.3067 337.162 45.0517 337.162 45.8914C337.162 46.3408 337.114 46.7842 337.02 47.2218C336.925 47.6594 336.759 48.1147 336.523 48.5877C336.286 49.0489 335.955 49.5574 335.53 50.1133L331.84 54.9561H329.339ZM332.691 48.3039C333.153 48.3039 333.561 48.1974 333.915 47.9846C334.27 47.7717 334.554 47.482 334.767 47.1154C334.98 46.7488 335.086 46.3289 335.086 45.8559C335.086 45.371 334.98 44.9453 334.767 44.5787C334.554 44.2002 334.264 43.9105 333.898 43.7094C333.543 43.4966 333.141 43.3901 332.691 43.3901C332.242 43.3901 331.834 43.4966 331.467 43.7094C331.113 43.9105 330.829 44.2002 330.616 44.5787C330.403 44.9453 330.297 45.371 330.297 45.8559C330.297 46.3289 330.397 46.7488 330.598 47.1154C330.811 47.482 331.101 47.7717 331.467 47.9846C331.834 48.1974 332.242 48.3039 332.691 48.3039ZM343.327 55.1689C342.63 55.1689 341.973 55.0448 341.358 54.7964C340.743 54.5362 340.211 54.1755 339.762 53.7143C339.312 53.2531 338.993 52.6973 338.804 52.0468L340.56 51.3728C340.785 51.9995 341.151 52.4785 341.66 52.8096C342.168 53.1408 342.724 53.3063 343.327 53.3063C343.824 53.3063 344.262 53.194 344.64 52.9693C345.019 52.7446 345.314 52.4371 345.527 52.0468C345.752 51.6566 345.864 51.2131 345.864 50.7164C345.864 50.2079 345.752 49.7644 345.527 49.386C345.314 48.9957 345.019 48.6941 344.64 48.4813C344.262 48.2566 343.824 48.1442 343.327 48.1442C342.831 48.1442 342.375 48.2566 341.962 48.4813C341.548 48.706 341.246 49.0075 341.057 49.386L339.372 49.0134L340.4 41.7404H347.443V43.5143H341.216L342.015 42.6451L341.252 48.2152L340.596 47.7717C340.95 47.275 341.382 46.9143 341.891 46.6896C342.399 46.4649 342.979 46.3526 343.629 46.3526C344.492 46.3526 345.243 46.5477 345.882 46.938C346.532 47.3164 347.035 47.8368 347.39 48.499C347.756 49.1494 347.94 49.8886 347.94 50.7164C347.94 51.5561 347.739 52.3129 347.336 52.987C346.934 53.6611 346.384 54.1933 345.687 54.5835C345.001 54.9738 344.214 55.1689 343.327 55.1689ZM351.563 54.9561L362.312 41.7404H364.548L353.798 54.9561H351.563ZM353.585 48.4458C352.934 48.4458 352.349 48.2921 351.829 47.9846C351.308 47.6653 350.888 47.2454 350.569 46.7251C350.262 46.2048 350.108 45.6253 350.108 44.9867C350.108 44.3481 350.262 43.7686 350.569 43.2482C350.888 42.7161 351.308 42.2962 351.829 41.9888C352.349 41.6813 352.934 41.5275 353.585 41.5275C354.235 41.5275 354.821 41.6813 355.341 41.9888C355.861 42.2962 356.275 42.7161 356.583 43.2482C356.89 43.7686 357.044 44.3481 357.044 44.9867C357.044 45.6253 356.89 46.2048 356.583 46.7251C356.275 47.2454 355.861 47.6653 355.341 47.9846C354.821 48.2921 354.235 48.4458 353.585 48.4458ZM353.585 46.8315C353.951 46.8315 354.265 46.7428 354.525 46.5654C354.797 46.3881 355.004 46.1574 355.146 45.8736C355.288 45.5898 355.359 45.2941 355.359 44.9867C355.359 44.6674 355.288 44.3717 355.146 44.0997C355.004 43.8159 354.797 43.5853 354.525 43.4079C354.265 43.2305 353.951 43.1418 353.585 43.1418C353.23 43.1418 352.917 43.2305 352.645 43.4079C352.373 43.5853 352.16 43.8159 352.006 44.0997C351.864 44.3717 351.793 44.6674 351.793 44.9867C351.793 45.2941 351.864 45.5898 352.006 45.8736C352.16 46.1574 352.373 46.3881 352.645 46.5654C352.917 46.7428 353.23 46.8315 353.585 46.8315ZM362.437 55.1689C361.786 55.1689 361.195 55.0152 360.663 54.7077C360.142 54.3884 359.728 53.9686 359.421 53.4482C359.114 52.9279 358.96 52.3484 358.96 51.7098C358.96 51.0712 359.114 50.4917 359.421 49.9714C359.728 49.4392 360.142 49.0194 360.663 48.7119C361.195 48.4044 361.786 48.2507 362.437 48.2507C363.087 48.2507 363.672 48.4044 364.193 48.7119C364.713 49.0194 365.127 49.4392 365.435 49.9714C365.742 50.4917 365.896 51.0712 365.896 51.7098C365.896 52.3484 365.742 52.9279 365.435 53.4482C365.127 53.9686 364.713 54.3884 364.193 54.7077C363.672 55.0152 363.087 55.1689 362.437 55.1689ZM362.437 53.5547C362.803 53.5547 363.117 53.466 363.377 53.2886C363.637 53.1112 363.838 52.8806 363.98 52.5968C364.134 52.3129 364.211 52.0173 364.211 51.7098C364.211 51.3905 364.134 51.0948 363.98 50.8228C363.838 50.539 363.637 50.3084 363.377 50.131C363.117 49.9536 362.803 49.8649 362.437 49.8649C362.082 49.8649 361.768 49.9536 361.496 50.131C361.224 50.3084 361.012 50.539 360.858 50.8228C360.716 51.0948 360.645 51.3905 360.645 51.7098C360.645 52.0173 360.716 52.3129 360.858 52.5968C361.012 52.8806 361.224 53.1112 361.496 53.2886C361.768 53.466 362.082 53.5547 362.437 53.5547Z" fill="#0B0D13"/>
</g>
<path d="M348.938 67.2582C348.072 68.1242 346.668 68.1242 345.802 67.2582L341.457 62.9131L353.283 62.9131L348.938 67.2582Z" fill="white"/>
<rect x="337.022" y="59.9561" width="20.6957" height="2.95652" rx="1.47826" fill="white"/>
<rect x="105.5" y="76" width="4" height="33" rx="2" fill="#39AE4A"/>
<rect x="111.5" y="76" width="4" height="33" rx="2" fill="#39AE4A"/>
<rect x="117.5" y="76" width="4" height="33" rx="2" fill="#39AE4A"/>
<rect x="123.5" y="76" width="4" height="33" rx="2" fill="#39AE4A"/>
<rect x="129.5" y="76" width="4" height="33" rx="2" fill="#39AE4A"/>
<rect x="135.5" y="76" width="4" height="33" rx="2" fill="#39AE4A"/>
<rect x="141.5" y="76" width="4" height="33" rx="2" fill="#39AE4A"/>
<rect x="147.5" y="76" width="4" height="33" rx="2" fill="#39AE4A"/>
<rect x="153.5" y="76" width="4" height="33" rx="2" fill="#F59E0B"/>
<rect x="159.5" y="76" width="4" height="33" rx="2" fill="#39AE4A"/>
<rect x="165.5" y="76" width="4" height="33" rx="2" fill="#39AE4A"/>
<rect x="171.5" y="76" width="4" height="33" rx="2" fill="#39AE4A"/>
<rect x="177.5" y="76" width="4" height="33" rx="2" fill="#39AE4A"/>
<rect x="183.5" y="76" width="4" height="33" rx="2" fill="#39AE4A"/>
<rect x="189.5" y="76" width="4" height="33" rx="2" fill="#39AE4A"/>
<rect x="195.5" y="76" width="4" height="33" rx="2" fill="#39AE4A"/>
<rect x="201.5" y="76" width="4" height="33" rx="2" fill="#39AE4A"/>
<rect x="207.5" y="76" width="4" height="33" rx="2" fill="#39AE4A"/>
<rect x="213.5" y="76" width="4" height="33" rx="2" fill="#39AE4A"/>
<rect x="219.5" y="76" width="4" height="33" rx="2" fill="#39AE4A"/>
<rect x="225.5" y="76" width="4" height="33" rx="2" fill="#39AE4A"/>
<rect x="231.5" y="76" width="4" height="33" rx="2" fill="#39AE4A"/>
<rect x="237.5" y="76" width="4" height="33" rx="2" fill="#39AE4A"/>
<rect x="243.5" y="76" width="4" height="33" rx="2" fill="#39AE4A"/>
<rect x="249.5" y="76" width="4" height="33" rx="2" fill="#F59E0B"/>
<rect x="255.5" y="76" width="4" height="33" rx="2" fill="#39AE4A"/>
<rect x="261.5" y="76" width="4" height="33" rx="2" fill="#39AE4A"/>
<rect x="267.5" y="76" width="4" height="33" rx="2" fill="#39AE4A"/>
<rect x="273.5" y="76" width="4" height="33" rx="2" fill="#39AE4A"/>
<rect x="279.5" y="76" width="4" height="33" rx="2" fill="#39AE4A"/>
<rect x="285.5" y="76" width="4" height="33" rx="2" fill="#39AE4A"/>
<rect x="291.5" y="76" width="4" height="33" rx="2" fill="#39AE4A"/>
<rect x="297.5" y="76" width="4" height="33" rx="2" fill="#39AE4A"/>
<rect x="303.5" y="76" width="4" height="33" rx="2" fill="#39AE4A"/>
<rect x="309.5" y="76" width="4" height="33" rx="2" fill="#39AE4A"/>
<rect x="315.5" y="76" width="4" height="33" rx="2" fill="#39AE4A"/>
<rect x="321.5" y="76" width="4" height="33" rx="2" fill="#39AE4A"/>
<rect x="327.5" y="76" width="4" height="33" rx="2" fill="#39AE4A"/>
<rect x="333.5" y="76" width="4" height="33" rx="2" fill="#39AE4A"/>
<rect x="339.5" y="76" width="4" height="33" rx="2" fill="#39AE4A"/>
<rect x="345" y="75.5" width="5" height="34" rx="2.5" fill="#39AE4A" stroke="white"/>
</g>
<defs>
<filter id="filter0_dd_1_24569" x="283.022" y="15.2609" width="128.696" height="100.87" filterUnits="userSpaceOnUse" color-interpolation-filters="sRGB">
<feFlood flood-opacity="0" result="BackgroundImageFix"/>
<feColorMatrix in="SourceAlpha" type="matrix" values="0 0 0 0 0 0 0 0 0 0 0 0 0 0 0 0 0 0 127 0" result="hardAlpha"/>
<feOffset dy="1.47826"/>
<feGaussianBlur stdDeviation="1.47826"/>
<feComposite in2="hardAlpha" operator="out"/>
<feColorMatrix type="matrix" values="0 0 0 0 0.894118 0 0 0 0 0.898039 0 0 0 0 0.905882 0 0 0 0.24 0"/>
<feBlend mode="normal" in2="BackgroundImageFix" result="effect1_dropShadow_1_24569"/>
<feColorMatrix in="SourceAlpha" type="matrix" values="0 0 0 0 0 0 0 0 0 0 0 0 0 0 0 0 0 0 127 0" result="hardAlpha"/>
<feOffset dy="17.7391"/>
<feGaussianBlur stdDeviation="17.7391"/>
<feComposite in2="hardAlpha" operator="out"/>
<feColorMatrix type="matrix" values="0 0 0 0 0.529412 0 0 0 0 0.54902 0 0 0 0 0.592157 0 0 0 0.12 0"/>
<feBlend mode="normal" in2="effect1_dropShadow_1_24569" result="effect2_dropShadow_1_24569"/>
<feBlend mode="normal" in="SourceGraphic" in2="effect2_dropShadow_1_24569" result="shape"/>
</filter>
<clipPath id="clip0_1_24569">
<rect width="455" height="160" rx="8" fill="white"/>
</clipPath>
</defs>
</svg>
