<svg width="143" height="41" viewBox="0 0 143 41" fill="none" xmlns="http://www.w3.org/2000/svg">
<path d="M53.932 12.9258H58.4943C58.6869 12.9261 58.8748 12.9855 59.033 13.0959C59.1911 13.2063 59.3119 13.3626 59.3793 13.5438L64.0269 25.9609L67.7136 16.0205C68.0505 15.112 68.6558 14.3287 69.4484 13.7756C70.241 13.2224 71.183 12.9259 72.1482 12.9258H75.5273L66.9138 33.3341C66.8413 33.5059 66.7201 33.6526 66.5653 33.7557C66.4104 33.8588 66.2288 33.9139 66.043 33.9141H61.9729C61.7871 33.9139 61.6054 33.8588 61.4506 33.7557C61.2957 33.6526 61.1745 33.5059 61.102 33.3341L53.0849 14.2474C53.0246 14.1047 53 13.9494 53.0132 13.795C53.0264 13.6406 53.077 13.4918 53.1605 13.3615C53.244 13.2312 53.3579 13.1234 53.4924 13.0475C53.6269 12.9715 53.7778 12.9298 53.932 12.9258Z" fill="#162F60"/>
<path d="M95.4717 29.5214C95.584 29.5977 95.6786 29.6974 95.7492 29.8137C95.8198 29.93 95.8647 30.0602 95.8808 30.1954C95.897 30.3306 95.884 30.4678 95.8428 30.5975C95.8016 30.7273 95.7332 30.8466 95.6421 30.9475C93.4271 33.448 90.0101 34.3608 86.7777 34.3608C80.8287 34.3608 75.8594 29.9587 75.8594 23.3508C75.8594 16.743 80.824 12.4883 86.773 12.4883C92.722 12.4883 97.4689 16.9379 97.4689 23.5458C97.4689 23.831 97.4689 24.2065 97.4357 24.5773C97.4224 24.8203 97.3169 25.0489 97.1408 25.2161C96.9647 25.3832 96.7315 25.4762 96.4892 25.4758H82.0781C82.4378 27.905 84.9888 28.9842 87.2226 28.9842C88.7125 29.0404 90.1689 28.5313 91.3022 27.558C91.4624 27.4133 91.667 27.3278 91.8821 27.3157C92.0972 27.3036 92.31 27.3656 92.4853 27.4915L95.4717 29.5214ZM91.2123 21.5539C90.8526 18.9916 88.6187 17.96 86.825 17.96C85.126 17.96 82.665 18.8585 82.1728 21.5539H91.2123Z" fill="#162F60"/>
<path d="M107.051 2.45565V32.9612C107.051 33.2133 106.951 33.4551 106.774 33.6334C106.596 33.8118 106.355 33.9119 106.104 33.9119H101.779C101.528 33.9119 101.287 33.8118 101.109 33.6334C100.932 33.4551 100.832 33.2133 100.832 32.9612V2.45565C100.832 2.20349 100.932 1.96166 101.109 1.78336C101.287 1.60505 101.528 1.50488 101.779 1.50488H106.104C106.355 1.50488 106.596 1.60505 106.774 1.78336C106.951 1.96166 107.051 2.20349 107.051 2.45565Z" fill="#162F60"/>
<path d="M116.707 2.45565V32.9612C116.707 33.2133 116.607 33.4551 116.43 33.6334C116.252 33.8118 116.012 33.9119 115.761 33.9119H111.435C111.184 33.9119 110.943 33.8118 110.766 33.6334C110.588 33.4551 110.488 33.2133 110.488 32.9612V2.45565C110.488 2.20349 110.588 1.96166 110.766 1.78336C110.943 1.60505 111.184 1.50488 111.435 1.50488H115.761C116.012 1.50488 116.252 1.60505 116.43 1.78336C116.607 1.96166 116.707 2.20349 116.707 2.45565Z" fill="#162F60"/>
<path d="M136.823 31.5318C135.527 33.5094 132.304 34.3176 130.737 34.3176C127.941 34.1865 125.303 32.9786 123.37 30.9447C121.438 28.9108 120.359 26.2072 120.359 23.3956C120.359 20.584 121.438 17.8805 123.37 15.8465C125.303 13.8126 127.941 12.6047 130.737 12.4736C132.124 12.4736 135.12 12.949 136.823 15.2594V13.6003C136.823 13.511 136.841 13.4226 136.875 13.3401C136.909 13.2577 136.959 13.1827 137.022 13.1196C137.085 13.0565 137.159 13.0064 137.241 12.9722C137.323 12.9381 137.411 12.9205 137.5 12.9205H142.323C142.412 12.9205 142.5 12.9381 142.582 12.9722C142.664 13.0064 142.739 13.0565 142.801 13.1196C142.864 13.1827 142.914 13.2577 142.948 13.3401C142.982 13.4226 143 13.511 143 13.6003V33.229C143 33.4093 142.928 33.5822 142.801 33.7097C142.674 33.8371 142.502 33.9088 142.323 33.9088H137.5C137.321 33.9088 137.149 33.8371 137.022 33.7097C136.895 33.5822 136.823 33.4093 136.823 33.229V31.5318ZM131.769 28.3848C134.32 28.3848 136.823 26.5403 136.823 23.398C136.827 22.7345 136.698 22.0771 136.444 21.4647C136.19 20.8522 135.816 20.2971 135.345 19.8322C134.874 19.3672 134.314 19.002 133.7 18.7579C133.086 18.5138 132.429 18.3959 131.769 18.4112C129.128 18.4112 126.535 20.3888 126.535 23.398C126.535 26.4072 129.128 28.3848 131.769 28.3848Z" fill="#162F60"/>
<path d="M16.7875 16.0659H0.388672L4.94626 6.78158C5.03133 6.57575 5.17725 6.4011 5.36429 6.28123C5.55134 6.16136 5.77051 6.10204 5.99219 6.11129H24.3882L21.7237 12.7667C21.3192 13.7462 20.634 14.5829 19.7551 15.1703C18.8761 15.7578 17.8432 16.0695 16.7875 16.0659Z" fill="url(#paint0_linear_5332_45228)"/>
<path d="M21.1047 40.6551H12.4297C11.7515 40.655 11.0875 40.4598 10.5163 40.0924C9.9451 39.7251 9.49064 39.2011 9.2067 38.5824L0.31395 19.0916C0.101667 18.6303 -0.00551268 18.1272 0.000218292 17.6189C0.00594926 17.1107 0.124446 16.6102 0.347079 16.1538L5.01352 6.68883C5.10045 6.51062 5.23502 6.36021 5.40218 6.25443C5.56934 6.14864 5.7625 6.09166 5.96006 6.08984H6.6889C5.46786 6.08984 5.6335 6.78391 6.03105 7.6919L6.20617 8.08171L17.186 32.141L21.1047 40.6551Z" fill="url(#paint1_linear_5332_45228)"/>
<path d="M41.1946 0L24.952 38.4682C24.6794 39.1118 24.2246 39.6609 23.644 40.0471C23.0635 40.4333 22.3828 40.6397 21.6864 40.6407H13.2338C12.4849 40.7036 11.7308 40.6458 11 40.4696C12.5287 40.5029 13.8396 39.0434 14.6158 37.3701V37.3273C14.6631 37.2132 14.7152 37.1039 14.7578 36.9898L16.8118 32.1313L29.0032 3.2659C29.4099 2.29873 30.0916 1.4735 30.9628 0.893445C31.8341 0.313393 32.8563 0.00427741 33.9015 0.0047585L41.1946 0Z" fill="url(#paint2_linear_5332_45228)"/>
<path d="M36.473 40.6544C39.2724 40.6544 41.5417 38.375 41.5417 35.5631C41.5417 32.7512 39.2724 30.4717 36.473 30.4717C33.6736 30.4717 31.4043 32.7512 31.4043 35.5631C31.4043 38.375 33.6736 40.6544 36.473 40.6544Z" fill="url(#paint3_linear_5332_45228)"/>
<defs>
<linearGradient id="paint0_linear_5332_45228" x1="-0.236044" y1="11.0743" x2="22.32" y2="11.0743" gradientUnits="userSpaceOnUse">
<stop stop-color="#A21B51"/>
<stop offset="1" stop-color="#D51E6D"/>
</linearGradient>
<linearGradient id="paint1_linear_5332_45228" x1="15.5107" y1="38.3495" x2="4.54122" y2="15.3455" gradientUnits="userSpaceOnUse">
<stop stop-color="#A21B51"/>
<stop offset="1" stop-color="#D51E6D"/>
</linearGradient>
<linearGradient id="paint2_linear_5332_45228" x1="35.4255" y1="-2.21054" x2="16.3742" y2="43.233" gradientUnits="userSpaceOnUse">
<stop stop-color="#A21B51"/>
<stop offset="1" stop-color="#D51E6D"/>
</linearGradient>
<linearGradient id="paint3_linear_5332_45228" x1="31.4043" y1="35.5631" x2="41.5417" y2="35.5631" gradientUnits="userSpaceOnUse">
<stop stop-color="#A21B51"/>
<stop offset="1" stop-color="#D51E6D"/>
</linearGradient>
</defs>
</svg>
