<svg width="60" height="17" viewBox="0 0 60 17" fill="none" xmlns="http://www.w3.org/2000/svg">
<g clip-path="url(#clip0_1_22727)">
<path d="M22.3619 5.3595H24.2536C24.3334 5.35962 24.4114 5.38425 24.4769 5.43003C24.5425 5.4758 24.5926 5.54061 24.6205 5.61574L26.5476 10.7643L28.0762 6.64267C28.2159 6.26597 28.4669 5.94119 28.7955 5.71185C29.1242 5.48248 29.5148 5.35954 29.915 5.3595H31.316L27.7446 13.8215C27.7145 13.8927 27.6643 13.9535 27.6001 13.9963C27.5359 14.039 27.4606 14.0619 27.3835 14.062H25.6959C25.6189 14.0619 25.5436 14.039 25.4794 13.9963C25.4151 13.9535 25.3649 13.8927 25.3348 13.8215L22.0107 5.90748C21.9857 5.84831 21.9755 5.78392 21.9809 5.7199C21.9864 5.65588 22.0074 5.59418 22.042 5.54015C22.0766 5.48613 22.1239 5.44143 22.1796 5.40996C22.2354 5.37845 22.298 5.36116 22.3619 5.3595Z" fill="white"/>
<path d="M39.5859 12.2406C39.6325 12.2722 39.6717 12.3136 39.701 12.3618C39.7302 12.41 39.7489 12.464 39.7555 12.5201C39.7623 12.5761 39.7569 12.633 39.7398 12.6868C39.7227 12.7406 39.6943 12.7901 39.6566 12.8319C38.7381 13.8687 37.3213 14.2472 35.9811 14.2472C33.5144 14.2472 31.454 12.4219 31.454 9.68206C31.454 6.94224 33.5125 5.1781 35.9791 5.1781C38.4458 5.1781 40.414 7.02306 40.414 9.76292C40.414 9.88117 40.414 10.0369 40.4003 10.1906C40.3947 10.2914 40.351 10.3862 40.278 10.4555C40.205 10.5248 40.1083 10.5633 40.0078 10.5632H34.0325C34.1816 11.5704 35.2393 12.0179 36.1656 12.0179C36.7833 12.0412 37.3872 11.8301 37.8571 11.4265C37.9235 11.3665 38.0084 11.3311 38.0975 11.326C38.1867 11.321 38.275 11.3467 38.3476 11.3989L39.5859 12.2406ZM37.8198 8.93701C37.6707 7.87459 36.7444 7.44685 36.0007 7.44685C35.2962 7.44685 34.2758 7.8194 34.0717 8.93701H37.8198Z" fill="white"/>
<path d="M44.3872 1.01818V13.6668C44.3872 13.7714 44.3457 13.8716 44.2724 13.9455C44.1985 14.0195 44.0986 14.061 43.9945 14.061H42.2013C42.0972 14.061 41.9973 14.0195 41.9234 13.9455C41.8501 13.8716 41.8086 13.7714 41.8086 13.6668V1.01818C41.8086 0.91363 41.8501 0.813359 41.9234 0.73943C41.9973 0.665496 42.0972 0.623962 42.2013 0.623962H43.9945C44.0986 0.623962 44.1985 0.665496 44.2724 0.73943C44.3457 0.813359 44.3872 0.91363 44.3872 1.01818Z" fill="white"/>
<path d="M48.391 1.01818V13.6668C48.391 13.7714 48.3495 13.8716 48.2761 13.9455C48.2023 14.0195 48.1028 14.061 47.9987 14.061H46.205C46.101 14.061 46.001 14.0195 45.9276 13.9455C45.8538 13.8716 45.8124 13.7714 45.8124 13.6668V1.01818C45.8124 0.91363 45.8538 0.813359 45.9276 0.73943C46.001 0.665496 46.101 0.623962 46.205 0.623962H47.9987C48.1028 0.623962 48.2023 0.665496 48.2761 0.73943C48.3495 0.813359 48.391 0.91363 48.391 1.01818Z" fill="white"/>
<path d="M56.7318 13.0742C56.1944 13.8942 54.8581 14.2293 54.2083 14.2293C53.049 14.1749 51.9552 13.6741 51.1537 12.8307C50.3527 11.9874 49.9053 10.8664 49.9053 9.70063C49.9053 8.53485 50.3527 7.41388 51.1537 6.57052C51.9552 5.72719 53.049 5.22636 54.2083 5.172C54.7834 5.172 56.0257 5.36911 56.7318 6.32708V5.63917C56.7318 5.60214 56.7393 5.56548 56.7534 5.53128C56.7675 5.49711 56.7882 5.46601 56.8143 5.43985C56.8404 5.41369 56.8711 5.39291 56.9051 5.37873C56.9391 5.36459 56.9756 5.3573 57.0125 5.3573H59.0123C59.0492 5.3573 59.0857 5.36459 59.1197 5.37873C59.1537 5.39291 59.1848 5.41369 59.2105 5.43985C59.2366 5.46601 59.2573 5.49711 59.2714 5.53128C59.2855 5.56548 59.293 5.60214 59.293 5.63917V13.7779C59.293 13.8527 59.2631 13.9243 59.2105 13.9772C59.1578 14.03 59.0865 14.0598 59.0123 14.0598H57.0125C56.9383 14.0598 56.867 14.03 56.8143 13.9772C56.7617 13.9243 56.7318 13.8527 56.7318 13.7779V13.0742ZM54.6362 11.7693C55.694 11.7693 56.7318 11.0045 56.7318 9.70163C56.7335 9.42652 56.68 9.15394 56.5747 8.90001C56.4693 8.64605 56.3143 8.41589 56.119 8.22312C55.9237 8.03032 55.6915 7.87889 55.4369 7.77768C55.1823 7.67647 54.9099 7.62758 54.6362 7.63393C53.5412 7.63393 52.4661 8.45391 52.4661 9.70163C52.4661 10.9493 53.5412 11.7693 54.6362 11.7693Z" fill="white"/>
<path d="M6.96077 6.66148H0.161255L2.05099 2.81188C2.08626 2.72654 2.14676 2.65412 2.22432 2.60442C2.30187 2.55472 2.39275 2.53012 2.48466 2.53396H10.1123L9.00749 5.29352C8.83977 5.69965 8.55566 6.04658 8.19124 6.29013C7.82677 6.53373 7.3985 6.66297 6.96077 6.66148Z" fill="url(#paint0_linear_1_22727)"/>
<path d="M8.75085 16.857H5.1539C4.8727 16.857 4.59738 16.776 4.36054 16.6237C4.1237 16.4714 3.93527 16.2541 3.81753 15.9976L0.130296 7.91606C0.0422767 7.72479 -0.00216368 7.51619 0.000212582 7.30543C0.00258884 7.09471 0.0517216 6.88719 0.144033 6.69795L2.0789 2.77345C2.11494 2.69956 2.17074 2.63719 2.24005 2.59333C2.30936 2.54947 2.38945 2.52584 2.47137 2.52509H2.77357C2.26728 2.52509 2.33596 2.81287 2.5008 3.18935L2.57341 3.35098L7.12603 13.3268L8.75085 16.857Z" fill="url(#paint1_linear_1_22727)"/>
<path d="M17.0812 0L10.3465 15.9502C10.2335 16.2171 10.0449 16.4448 9.80416 16.6049C9.56346 16.765 9.28122 16.8506 8.99247 16.851H5.48773C5.17721 16.8771 4.86454 16.8531 4.56152 16.7801C5.19537 16.7939 5.73892 16.1887 6.06076 15.4949V15.4772C6.08037 15.4299 6.10197 15.3845 6.11964 15.3372L6.97129 13.3227L12.0263 1.35415C12.1949 0.953132 12.4776 0.610963 12.8388 0.370453C13.2001 0.129943 13.6239 0.00177356 14.0573 0.00197304L17.0812 0Z" fill="url(#paint2_linear_1_22727)"/>
<path d="M15.1231 16.8567C16.2839 16.8567 17.2248 15.9116 17.2248 14.7457C17.2248 13.5797 16.2839 12.6346 15.1231 12.6346C13.9624 12.6346 13.0215 13.5797 13.0215 14.7457C13.0215 15.9116 13.9624 16.8567 15.1231 16.8567Z" fill="url(#paint3_linear_1_22727)"/>
</g>
<defs>
<linearGradient id="paint0_linear_1_22727" x1="-0.0977737" y1="4.59179" x2="9.25473" y2="4.59179" gradientUnits="userSpaceOnUse">
<stop stop-color="#A21B51"/>
<stop offset="1" stop-color="#D51E6D"/>
</linearGradient>
<linearGradient id="paint1_linear_1_22727" x1="6.43139" y1="15.901" x2="1.88307" y2="6.3628" gradientUnits="userSpaceOnUse">
<stop stop-color="#A21B51"/>
<stop offset="1" stop-color="#D51E6D"/>
</linearGradient>
<linearGradient id="paint2_linear_1_22727" x1="14.6892" y1="-0.916565" x2="6.78985" y2="17.9259" gradientUnits="userSpaceOnUse">
<stop stop-color="#A21B51"/>
<stop offset="1" stop-color="#D51E6D"/>
</linearGradient>
<linearGradient id="paint3_linear_1_22727" x1="13.0215" y1="14.7457" x2="17.2248" y2="14.7457" gradientUnits="userSpaceOnUse">
<stop stop-color="#A21B51"/>
<stop offset="1" stop-color="#D51E6D"/>
</linearGradient>
<clipPath id="clip0_1_22727">
<rect width="59.2927" height="17" fill="white"/>
</clipPath>
</defs>
</svg>
