<svg width="56" height="56" viewBox="0 0 56 56" fill="none" xmlns="http://www.w3.org/2000/svg">
  <rect width="56" height="56" rx="12" fill="#119eff" />
  <g transform="translate(12, 12) scale(1.6)">
    <path fill="white" fill-rule="evenodd" clip-rule="evenodd" d="M10 18a8 8 0 1 0 0-16 8 8 0 0 0 0 16Zm.75-13a.75.75 0 0 0-1.5 0v.372a5.002 5.002 0 0 0-4.378 4.378H4.5a.75.75 0 0 0 0 1.5h.372a5.002 5.002 0 0 0 4.378 4.378v.372a.75.75 0 0 0 1.5 0v-.372a5.002 5.002 0 0 0 4.378-4.378h.372a.75.75 0 0 0 0-1.5h-.372a5.002 5.002 0 0 0-4.378-4.378V5Zm0 3.5a.75.75 0 0 0-1.5 0v.872c-.836.288-1.465.917-1.753 1.753H6.625a.75.75 0 0 0 0 1.5h.872c.288.836.917 1.465 1.753 1.753v.872a.75.75 0 0 0 1.5 0v-.872c.836-.288 1.465-.917 1.753-1.753h.872a.75.75 0 0 0 0-1.5h-.872a2.75 2.75 0 0 0-1.753-1.753V8.5ZM10 11a1 1 0 1 0 0-2 1 1 0 0 0 0 2Z"/>
  </g>
</svg>
