<svg width="56" height="56" viewBox="0 0 56 56" fill="none" xmlns="http://www.w3.org/2000/svg">
  <rect width="56" height="56" rx="12" fill="#119eff" />
  <path d="M16 18h24a4 4 0 0 1 4 4v12a4 4 0 0 1-4 4H16a4 4 0 0 1-4-4V22a4 4 0 0 1 4-4Z" fill="white" fill-opacity="0.18" />
  <path d="M18 28h20" stroke="white" stroke-width="3" stroke-linecap="round" />
  <path d="M18 34h10" stroke="white" stroke-width="3" stroke-linecap="round" />
  <path d="M24 22v-3a4 4 0 0 1 8 0v3" stroke="white" stroke-width="3" stroke-linecap="round" />
  <circle cx="38" cy="34" r="4" fill="white" />
  <path d="M42 34h4m-2 0v4" stroke="white" stroke-width="2.5" stroke-linecap="round" />
</svg>
