<svg width="56" height="56" viewBox="0 0 56 56" fill="none" xmlns="http://www.w3.org/2000/svg">
  <rect width="56" height="56" rx="12" fill="#119eff" />
  <g transform="translate(12, 12) scale(1.6)">
    <path fill="white" fill-rule="evenodd" clip-rule="evenodd" d="M2 4.75C2 3.784 2.784 3 3.75 3h4.836c.464 0 .909.184 1.237.513l1.414 1.414a.25.25 0 0 0 .177.073h4.836c.966 0 1.75.784 1.75 1.75v8.5A1.75 1.75 0 0 1 16.25 17H3.75A1.75 1.75 0 0 1 2 15.25V4.75Zm8.75 4a.75.75 0 0 0-1.5 0v2.5H6.75a.75.75 0 0 0 0 1.5h2.5v2.5a.75.75 0 0 0 1.5 0v-2.5h2.5a.75.75 0 0 0 0-1.5h-2.5v-2.5Z"/>
  </g>
</svg>
