<svg width="56" height="56" viewBox="0 0 56 56" fill="none" xmlns="http://www.w3.org/2000/svg">
  <rect width="56" height="56" rx="12" fill="#0F766E" />
  <path d="M35.5 15.5C38.2 17.1 40.3 19.5 41.4 22.4" stroke="white" stroke-width="3" stroke-linecap="round" />
  <path d="M33 21C34.5 21.9 35.7 23.2 36.4 24.8" stroke="white" stroke-width="3" stroke-linecap="round" />
  <path fill="white" fill-rule="evenodd" clip-rule="evenodd" d="M16 18.75C16 17.2312 17.2312 16 18.75 16H21.5926C22.9002 16 24.0294 16.9211 24.2926 18.2019L25.6066 24.5942C25.8307 25.6839 25.2544 26.783 24.2328 27.2148L21.9115 28.1953C22.9712 30.7214 25.2786 33.0288 27.8047 34.0885L28.7852 31.7672C29.217 30.7456 30.3161 30.1693 31.4058 30.3934L37.7981 31.7074C39.0789 31.9706 40 33.0998 40 34.4074V37.25C40 38.7688 38.7688 40 37.25 40H35.875C24.8963 40 16 31.1037 16 20.125V18.75Z" />
</svg>
