<svg xmlns="http://www.w3.org/2000/svg" width="28" height="28" fill="none"><path fill="#176BFF" d="M3.36 14C3.36 8.124 8.124 3.36 14 3.36c2.366 0 4.55.77 6.317 2.077a4.01 4.01 0 0 1 2.547-2.274A13.95 13.95 0 0 0 14 0C6.268 0 0 6.268 0 14s6.268 14 14 14 14-6.268 14-14c0-1.618-.275-3.175-.782-4.624a4 4 0 0 1-3.008 1.618c.28.952.43 1.96.43 3.006 0 5.876-4.764 10.64-10.64 10.64S3.36 19.876 3.36 14"/><path fill="#176BFF" d="M27.712 11.164a14 14 0 0 0-.494-1.788 4 4 0 0 1-3.008 1.618 10.6 10.6 0 0 1 .392 2.098 4.37 4.37 0 0 0 3.11-1.928M14 20.125A6.13 6.13 0 0 0 20.125 14 6.13 6.13 0 0 0 14 7.875 6.13 6.13 0 0 0 7.875 14 6.135 6.135 0 0 0 14 20.125M23.188 8.75a3.062 3.062 0 1 0 0-6.125 3.062 3.062 0 0 0 0 6.125"/></svg>