<svg width="56" height="56" viewBox="0 0 56 56" fill="none" xmlns="http://www.w3.org/2000/svg">
  <rect width="56" height="56" rx="12" fill="#119eff" />
  <g transform="translate(12, 12) scale(1.6)">
    <path fill="white" fill-rule="evenodd" d="M3.28 2.22a.75.75 0 0 0-1.06 1.06l17.5 17.5a.75.75 0 1 0 1.06-1.06l-2.272-2.272A9.687 9.687 0 0 0 19.75 10c0-4.009-2.906-7.348-6.725-8.019a.75.75 0 0 0-.05 0C9.157 2.652 6.25 5.991 6.25 10c0 1.31.305 2.548.847 3.651L3.28 2.22ZM10 14.2c0-.5.06-.987.174-1.453l4.879 4.879A6.7 6.7 0 0 1 10 14.2Zm3-10.7a6.696 6.696 0 0 0-3 5.5 6.69 6.69 0 0 0 .753 3.09L7.55 8.887A8.168 8.168 0 0 1 10 3.516V3.5h.001A8.181 8.181 0 0 1 13 3.5Z" clip-rule="evenodd"/>
  </g>
</svg>
