<svg width="56" height="56" viewBox="0 0 56 56" fill="none" xmlns="http://www.w3.org/2000/svg">
  <rect width="56" height="56" rx="12" fill="#119eff" />
  <g transform="translate(14, 10) scale(1.8)">
    <path fill="white" d="M9.41 2.13a.75.75 0 0 1 .8.17l5 5a.75.75 0 0 1 0 1.06L11.87 12l3.34 3.64a.75.75 0 0 1 0 1.06l-5 5a.75.75 0 0 1-1.28-.53v-6.59l-3.72 3.72a.75.75 0 1 1-1.06-1.06L8.88 12.5H4.75a.75.75 0 0 1 0-1.5h4.13L4.15 6.27a.75.75 0 0 1 1.06-1.06l3.72 3.72V2.33a.75.75 0 0 1 .48-.7ZM10.43 8.5 13.09 5.84l-2.66-2.66v5.32Zm0 7.32v-5.32l2.66 2.66-2.66 2.66Z"/>
  </g>
</svg>
