<svg width="56" height="56" viewBox="0 0 56 56" fill="none" xmlns="http://www.w3.org/2000/svg">
  <rect width="56" height="56" rx="12" fill="#F59E0B" />
  <g transform="translate(12, 12) scale(1.6)">
    <path fill="white" d="M10 2a.75.75 0 0 1 .75.75v1.5a.75.75 0 0 1-1.5 0v-1.5A.75.75 0 0 1 10 2ZM10 15a.75.75 0 0 1 .75.75v1.5a.75.75 0 0 1-1.5 0v-1.5A.75.75 0 0 1 10 15ZM10 7a3 3 0 1 0 0 6 3 3 0 0 0 0-6ZM15.657 5.404a.75.75 0 1 0-1.06-1.06l-1.061 1.06a.75.75 0 0 0 1.06 1.061l1.06-1.06ZM6.464 14.596a.75.75 0 1 0-1.06-1.06l-1.06 1.06a.75.75 0 0 0 1.06 1.06l1.06-1.06ZM18 10a.75.75 0 0 1-.75.75h-1.5a.75.75 0 0 1 0-1.5h1.5A.75.75 0 0 1 18 10ZM5 10a.75.75 0 0 1-.75.75h-1.5a.75.75 0 0 1 0-1.5h1.5A.75.75 0 0 1 5 10ZM14.596 15.657a.75.75 0 0 0 1.06-1.06l-1.06-1.061a.75.75 0 1 0-1.06 1.06l1.06 1.06ZM5.404 6.464a.75.75 0 0 0 1.06-1.06l-1.06-1.06a.75.75 0 1 0-1.06 1.06l1.06 1.06Z"/>
  </g>
</svg>
