<svg width="56" height="56" viewBox="0 0 56 56" fill="none" xmlns="http://www.w3.org/2000/svg">
  <rect width="56" height="56" rx="12" fill="#44BCFF" />
  <g transform="translate(12, 12) scale(1.6)">
    <path fill="white" fill-rule="evenodd" d="M5.5 17a4.5 4.5 0 0 1-1.44-8.765 4.5 4.5 0 0 1 8.302-3.046 3.5 3.5 0 0 1 4.504 4.272A4 4 0 0 1 15 17H5.5Zm5.25-9.25a.75.75 0 0 0-1.5 0v4.59l-1.95-2.1a.75.75 0 1 0-1.1 1.02l3.25 3.5a.75.75 0 0 0 1.1 0l3.25-3.5a.75.75 0 1 0-1.1-1.02l-1.95 2.1V7.75Z" clip-rule="evenodd"/>
  </g>
</svg>