<svg width="56" height="56" viewBox="0 0 56 56" fill="none" xmlns="http://www.w3.org/2000/svg">
  <rect width="56" height="56" rx="12" fill="#44BCFF" />
  <g transform="translate(12, 12) scale(1.6)">
    <path fill="white" fill-rule="evenodd" d="M8.157 2.176a1.5 1.5 0 0 0-1.147 0l-4.084 1.69A1.5 1.5 0 0 0 2 5.25v10.877a1.5 1.5 0 0 0 2.074 1.386l3.51-1.452 4.26 1.762a1.5 1.5 0 0 0 1.146 0l4.083-1.69A1.5 1.5 0 0 0 18 14.75V3.872a1.5 1.5 0 0 0-2.073-1.386l-3.51 1.452-4.26-1.762ZM7.58 5a.75.75 0 0 1 .75.75v6.5a.75.75 0 0 1-1.5 0v-6.5A.75.75 0 0 1 7.58 5Zm5.59 2.75a.75.75 0 0 0-1.5 0v6.5a.75.75 0 0 0 1.5 0v-6.5Z" clip-rule="evenodd"/>
  </g>
</svg>