<svg width="56" height="56" viewBox="0 0 56 56" fill="none" xmlns="http://www.w3.org/2000/svg">
  <rect width="56" height="56" rx="12" fill="#119eff" />
  <g transform="translate(12, 12) scale(1.6)">
    <path fill="white" fill-rule="evenodd" d="M3.25 3A2.25 2.25 0 0 0 1 5.25v9.5A2.25 2.25 0 0 0 3.25 17h13.5A2.25 2.25 0 0 0 19 14.75v-9.5A2.25 2.25 0 0 0 16.75 3H3.25Zm.943 8.752a.75.75 0 0 1 .055-1.06L6.128 9l-1.88-1.693a.75.75 0 1 1 1.004-1.114l2.5 2.25a.75.75 0 0 1 0 1.114l-2.5 2.25a.75.75 0 0 1-1.06-.055ZM9.75 10.25a.75.75 0 0 0 0 1.5h2.5a.75.75 0 0 0 0-1.5h-2.5Z" clip-rule="evenodd"/>
  </g>
</svg>