<svg width="56" height="56" viewBox="0 0 56 56" fill="none" xmlns="http://www.w3.org/2000/svg">
  <rect width="56" height="56" rx="12" fill="#119eff" />
  <g transform="translate(12, 12) scale(1.6)">
    <path fill="white" d="M10 2a.75.75 0 0 1 .75.75v1.5a.75.75 0 0 1-1.5 0v-1.5A.75.75 0 0 1 10 2Zm0 13a3 3 0 1 0 0-6 3 3 0 0 0 0 6Zm0 1.5a4.5 4.5 0 1 0 0-9 4.5 4.5 0 0 0 0 9Zm6.75-7.25a.75.75 0 0 0 0 1.5h1.5a.75.75 0 0 0 0-1.5h-1.5ZM10 15a.75.75 0 0 1 .75.75v1.5a.75.75 0 0 1-1.5 0v-1.5A.75.75 0 0 1 10 15Zm-8.25-5.75a.75.75 0 0 0 0 1.5h1.5a.75.75 0 0 0 0-1.5h-1.5Zm1.97-4.28a.75.75 0 0 1 1.06 0l1.06 1.06a.75.75 0 0 1-1.06 1.06L3.72 5.97a.75.75 0 0 1 0-1.06Zm12.5 0a.75.75 0 0 1 0 1.06l-1.06 1.06a.75.75 0 1 1-1.06-1.06l1.06-1.06a.75.75 0 0 1 1.06 0ZM5.84 14.16a.75.75 0 0 1 0 1.06l-1.06 1.06a.75.75 0 0 1-1.06-1.06l1.06-1.06a.75.75 0 0 1 1.06 0Zm10.38 1.06a.75.75 0 0 1-1.06-1.06l1.06-1.06a.75.75 0 0 1 1.06 1.06l-1.06 1.06Z"/>
  </g>
</svg>
