<svg width="56" height="56" viewBox="0 0 56 56" fill="none" xmlns="http://www.w3.org/2000/svg">
  <rect width="56" height="56" rx="12" fill="#8B5CF6" />
  <g transform="translate(12, 12) scale(1.6)">
    <path fill="white" fill-rule="evenodd" clip-rule="evenodd" d="M10 1a.75.75 0 0 1 .75.75v1.5a.75.75 0 0 1-1.5 0v-1.5A.75.75 0 0 1 10 1ZM5.05 3.05a.75.75 0 0 1 1.06 0l1.062 1.06a.75.75 0 1 1-1.061 1.061l-1.06-1.06a.75.75 0 0 1 0-1.06ZM14.95 3.05a.75.75 0 0 1 0 1.06l-1.06 1.062a.75.75 0 0 1-1.062-1.061l1.061-1.06a.75.75 0 0 1 1.06 0ZM3 8a.75.75 0 0 1 .75-.75h1.5a.75.75 0 0 1 0 1.5h-1.5A.75.75 0 0 1 3 8ZM14 8a.75.75 0 0 1 .75-.75h1.5a.75.75 0 0 1 0 1.5h-1.5A.75.75 0 0 1 14 8ZM7.172 11.828a.75.75 0 0 1 0 1.06l-1.06 1.061a.75.75 0 1 1-1.061-1.06l1.06-1.061a.75.75 0 0 1 1.06 0ZM12.828 11.828a.75.75 0 0 1 1.06 0l1.061 1.06a.75.75 0 0 1-1.06 1.061l-1.061-1.06a.75.75 0 0 1 0-1.06ZM10 14a.75.75 0 0 1 .75.75v1.5a.75.75 0 0 1-1.5 0v-1.5A.75.75 0 0 1 10 14Z"/>
    <path fill="white" d="M10 11a3 3 0 1 0 0-6 3 3 0 0 0 0 6Z"/>
  </g>
</svg>
