<svg width="56" height="56" viewBox="0 0 56 56" fill="none" xmlns="http://www.w3.org/2000/svg">
  <rect width="56" height="56" rx="12" fill="#119eff" />
  <g transform="translate(12, 12) scale(1.6)">
    <path fill="white" fill-rule="evenodd" d="M2.5 4A1.5 1.5 0 0 0 1 5.5V6h18v-.5A1.5 1.5 0 0 0 17.5 4h-15ZM19 8.5H1v6A1.5 1.5 0 0 0 2.5 16h15a1.5 1.5 0 0 0 1.5-1.5v-6ZM3 13.25a.75.75 0 0 1 .75-.75h1.5a.75.75 0 0 1 0 1.5h-1.5a.75.75 0 0 1-.75-.75Zm4.75-.75a.75.75 0 0 0 0 1.5h3.5a.75.75 0 0 0 0-1.5h-3.5Z" clip-rule="evenodd"/>
  </g>
</svg>