<svg xmlns="http://www.w3.org/2000/svg" viewBox="0 0 64 64" fill="none">
  <rect width="64" height="64" rx="16" fill="#0F172A"/>
  <path d="M32 14C21.2 14 12.04 20.72 8 30c1.86 4.28 4.88 7.98 8.68 10.82l-4.04 4.04 2.82 2.82 38-38-2.82-2.82-7.02 7.02A32.37 32.37 0 0 0 32 14Z" fill="#38BDF8"/>
  <path d="M32 20c2.8 0 5.39.74 7.63 2.02l-4.3 4.3A8 8 0 0 0 24.32 37.3l-3.9 3.9A22.62 22.62 0 0 1 10.3 30 24.34 24.34 0 0 1 32 20Z" fill="#E2E8F0"/>
  <path d="M53.7 34A24.34 24.34 0 0 1 32 44c-3.96 0-7.67-.95-10.94-2.64l4.02-4.02A8 8 0 0 0 39 28.08l4.08-4.08A22.5 22.5 0 0 1 53.7 34Z" fill="#E2E8F0"/>
  <path d="M32 28a4 4 0 0 1 2.83 6.83l-5.66-5.66A3.99 3.99 0 0 1 32 28Z" fill="#38BDF8"/>
</svg>
