<svg width="56" height="56" viewBox="0 0 56 56" fill="none" xmlns="http://www.w3.org/2000/svg">
  <rect width="56" height="56" rx="12" fill="#119eff" />
  <g transform="translate(12, 12) scale(1.6)">
    <path fill="white" d="M3.75 3A1.75 1.75 0 0 0 2 4.75v10.5c0 .966.784 1.75 1.75 1.75h12.5A1.75 1.75 0 0 0 18 15.25V4.75A1.75 1.75 0 0 0 16.25 3H3.75ZM3.5 4.75a.25.25 0 0 1 .25-.25h12.5a.25.25 0 0 1 .25.25v10.5a.25.25 0 0 1-.25.25H3.75a.25.25 0 0 1-.25-.25V4.75ZM10 6a.75.75 0 0 1 .75.75v1.69l.72-.72a.75.75 0 1 1 1.06 1.06l-2 2a.75.75 0 0 1-1.06 0l-2-2a.75.75 0 0 1 1.06-1.06l.72.72V6.75A.75.75 0 0 1 10 6Zm-2.47 6.28a.75.75 0 0 1 0-1.06l2-2a.75.75 0 0 1 1.06 0l2 2a.75.75 0 1 1-1.06 1.06l-.72-.72v1.69a.75.75 0 0 1-1.5 0v-1.69l-.72.72a.75.75 0 0 1-1.06 0Z"/>
  </g>
</svg>
