<svg width="56" height="56" viewBox="0 0 56 56" fill="none" xmlns="http://www.w3.org/2000/svg">
  <rect width="56" height="56" rx="12" fill="#119eff" />
  <g transform="translate(10, 9)">
    <path d="M18 3.5C21.927 6.224 25.82 7.691 31.5 8C31.827 10.041 32 12.149 32 14.32C32 22.29 27.028 29.244 20.007 32.167C19.361 32.436 18.639 32.436 17.993 32.167C10.972 29.244 6 22.29 6 14.32C6 12.149 6.173 10.041 6.5 8C12.18 7.691 16.073 6.224 20 3.5C19.395 3.08 18.605 3.08 18 3.5Z" fill="white" fill-opacity="0.18"/>
    <path d="M24 15C24 12.239 21.761 10 19 10C16.239 10 14 12.239 14 15V17H13C11.895 17 11 17.895 11 19V25C11 26.105 11.895 27 13 27H25C26.105 27 27 26.105 27 25V19C27 17.895 26.105 17 25 17H24V15ZM17 15C17 13.895 17.895 13 19 13C20.105 13 21 13.895 21 15V17H17V15Z" fill="white"/>
    <path d="M28.798 10.934C29.384 10.348 30.334 10.348 30.919 10.934L32.065 12.08L33.211 10.934C33.796 10.348 34.746 10.348 35.332 10.934C35.918 11.52 35.918 12.469 35.332 13.055L34.186 14.201L35.332 15.347C35.918 15.933 35.918 16.883 35.332 17.469C34.746 18.054 33.796 18.054 33.211 17.469L32.065 16.323L30.919 17.469C30.334 18.054 29.384 18.054 28.798 17.469C28.212 16.883 28.212 15.933 28.798 15.347L29.944 14.201L28.798 13.055C28.212 12.469 28.212 11.52 28.798 10.934Z" fill="white"/>
  </g>
</svg>
