<svg width="80" height="80" viewBox="0 0 80 80" fill="none" xmlns="http://www.w3.org/2000/svg">
<path fill-rule="evenodd" clip-rule="evenodd" d="M49.3359 22C49.3359 26.9706 45.3064 31 40.3359 31C35.3653 31 31.3359 26.9706 31.3359 22C31.3359 17.0294 35.3653 13 40.3359 13C45.3064 13 49.3359 17.0294 49.3359 22ZM40.3359 29C44.2019 29 47.3359 25.866 47.3359 22C47.3359 18.134 44.2019 15 40.3359 15C36.4699 15 33.3359 18.134 33.3359 22C33.3359 25.866 36.4699 29 40.3359 29Z" fill="#3E55EF"/>
<path fill-rule="evenodd" clip-rule="evenodd" d="M58.6716 41C55.5854 33.9364 48.5372 29 40.3359 29C32.1346 29 25.0862 33.9364 21.9999 41H24.2068C27.1522 35.0731 33.2684 31 40.3359 31C47.4033 31 53.5193 35.0731 56.4647 41H58.6716Z" fill="#3E55EF"/>
<path fill-rule="evenodd" clip-rule="evenodd" d="M37.4722 49.0774C37.4002 49.2506 37.2374 49.3688 37.0505 49.3838L31.6877 49.8138C31.2444 49.8493 31.0646 50.4026 31.4024 50.6919L35.4883 54.1919C35.6306 54.3139 35.6928 54.5053 35.6493 54.6876L34.401 59.9208C34.2978 60.3534 34.7685 60.6954 35.148 60.4635L39.7393 57.6592C39.8993 57.5615 40.1006 57.5615 40.2606 57.6592L44.8519 60.4635C45.2314 60.6954 45.7021 60.3534 45.5989 59.9208L44.3506 54.6876C44.3071 54.5053 44.3692 54.3139 44.5116 54.1919L48.5975 50.6919C48.9353 50.4026 48.7555 49.8493 48.3122 49.8138L42.9494 49.3838C42.7625 49.3688 42.5997 49.2506 42.5277 49.0774L40.4616 44.11C40.2908 43.6993 39.7091 43.6993 39.5383 44.11L37.4722 49.0774ZM44.0225 47.4634L42.3082 43.3419C41.4543 41.2887 38.5456 41.2887 37.6916 43.3419L35.9774 47.4634L31.5279 47.8202C29.3112 47.9979 28.4124 50.7641 30.1012 52.2108L33.4913 55.1148L32.4556 59.4568C31.9396 61.6198 34.2928 63.3295 36.1905 62.1703L39.9999 59.8436L43.8094 62.1703C45.7071 63.3295 48.0603 61.6198 47.5443 59.4568L46.5086 55.1148L49.8986 52.2108C51.5875 50.7641 50.6887 47.9979 48.472 47.8202L44.0225 47.4634Z" fill="#3E55EF"/>
<path fill-rule="evenodd" clip-rule="evenodd" d="M58.5302 47.5337C58.4582 47.7068 58.2954 47.8251 58.1085 47.8401L55.4919 48.0498C55.0486 48.0854 54.8688 48.6386 55.2066 48.928L57.2002 50.6357C57.3425 50.7576 57.4047 50.949 57.3612 51.1314L56.7522 53.6848C56.649 54.1174 57.1196 54.4593 57.4991 54.2275L59.7393 52.8592C59.8993 52.7615 60.1006 52.7615 60.2606 52.8592L62.5007 54.2275C62.8803 54.4593 63.3509 54.1174 63.2477 53.6848L62.6387 51.1314C62.5952 50.949 62.6573 50.7576 62.7997 50.6357L64.7933 48.928C65.1311 48.6386 64.9513 48.0854 64.508 48.0498L61.8914 47.8401C61.7045 47.8251 61.5417 47.7068 61.4697 47.5337L60.4616 45.11C60.2908 44.6993 59.7091 44.6993 59.5383 45.11L58.5302 47.5337ZM62.9645 45.9197L64.6678 46.0562C66.8844 46.2339 67.7833 49.0002 66.0944 50.4469L64.7967 51.5585L65.1931 53.2207C65.7091 55.3838 63.356 57.0934 61.4582 55.9343L59.9999 55.0436L58.5416 55.9343C56.6439 57.0934 54.2908 55.3838 54.8067 53.2207L55.2032 51.5585L53.9055 50.4469C52.2166 49.0002 53.1154 46.2339 55.3321 46.0562L57.0354 45.9197L57.6916 44.3419C58.5456 42.2887 61.4543 42.2887 62.3082 44.3419L62.9645 45.9197Z" fill="#3E55EF"/>
<path fill-rule="evenodd" clip-rule="evenodd" d="M18.5302 47.5337C18.4582 47.7068 18.2954 47.8251 18.1085 47.8401L15.4919 48.0498C15.0486 48.0854 14.8688 48.6386 15.2066 48.928L17.2002 50.6357C17.3425 50.7576 17.4047 50.949 17.3612 51.1314L16.7522 53.6848C16.649 54.1174 17.1196 54.4593 17.4991 54.2275L19.7393 52.8592C19.8993 52.7615 20.1006 52.7615 20.2606 52.8592L22.5007 54.2275C22.8803 54.4593 23.3509 54.1174 23.2477 53.6848L22.6387 51.1314C22.5952 50.949 22.6573 50.7576 22.7997 50.6357L24.7933 48.928C25.1311 48.6386 24.9513 48.0854 24.508 48.0498L21.8914 47.8401C21.7045 47.8251 21.5417 47.7068 21.4697 47.5337L20.4616 45.11C20.2908 44.6993 19.7091 44.6993 19.5383 45.11L18.5302 47.5337ZM22.9645 45.9197L24.6678 46.0562C26.8844 46.2339 27.7833 49.0002 26.0944 50.4469L24.7967 51.5585L25.1931 53.2207C25.7091 55.3838 23.356 57.0934 21.4582 55.9343L19.9999 55.0436L18.5417 55.9343C16.6439 57.0934 14.2908 55.3838 14.8067 53.2207L15.2032 51.5585L13.9055 50.4469C12.2166 49.0002 13.1154 46.2339 15.3321 46.0562L17.0354 45.9197L17.6916 44.3419C18.5456 42.2887 21.4543 42.2887 22.3082 44.3419L22.9645 45.9197Z" fill="#3E55EF"/>
</svg>
