<svg width="80" height="80" viewBox="0 0 80 80" fill="none" xmlns="http://www.w3.org/2000/svg">
<path fill-rule="evenodd" clip-rule="evenodd" d="M40 70.322C50.8854 70.322 60 60.6397 60 48.322C60 36.0044 50.8854 26.322 40 26.322C29.1146 26.322 20 36.0044 20 48.322C20 60.6397 29.1146 70.322 40 70.322ZM40 72.322C52.1503 72.322 62 61.5769 62 48.322C62 35.0672 52.1503 24.322 40 24.322C27.8497 24.322 18 35.0672 18 48.322C18 61.5769 27.8497 72.322 40 72.322Z" fill="#3E55EF"/>
<path fill-rule="evenodd" clip-rule="evenodd" d="M46.6721 25.4456C46.8851 24.7758 47 24.0624 47 23.322C47 19.456 43.866 16.322 40 16.322C36.134 16.322 33 19.456 33 23.322C33 24.0624 33.1149 24.7758 33.3279 25.4456C32.695 25.6651 32.0745 25.915 31.4678 26.1937C31.1644 25.2919 31 24.3262 31 23.322C31 18.3515 35.0294 14.322 40 14.322C44.9706 14.322 49 18.3515 49 23.322C49 24.3261 48.8356 25.2919 48.5322 26.1937C47.9255 25.915 47.305 25.6651 46.6721 25.4456Z" fill="#3E55EF"/>
<path fill-rule="evenodd" clip-rule="evenodd" d="M50.6435 12.4133L46.325 17.0878L44.856 15.7306L49.1745 11.0562L50.6435 12.4133Z" fill="#3E55EF"/>
<path fill-rule="evenodd" clip-rule="evenodd" d="M29.8563 12.4133L34.1747 17.0878L35.6438 15.7306L31.3253 11.0562L29.8563 12.4133Z" fill="#3E55EF"/>
<path fill-rule="evenodd" clip-rule="evenodd" d="M70.5 49.322H61.5V47.322H70.5V49.322Z" fill="#3E55EF"/>
<path fill-rule="evenodd" clip-rule="evenodd" d="M19.5 49.322H10.5V47.322H19.5V49.322Z" fill="#3E55EF"/>
<path fill-rule="evenodd" clip-rule="evenodd" d="M70 33.822C70 37.688 66.866 40.822 63 40.822H59V38.822H63C65.7614 38.822 68 36.5835 68 33.822H70Z" fill="#3E55EF"/>
<path fill-rule="evenodd" clip-rule="evenodd" d="M10 33.822C10 37.688 13.134 40.822 17 40.822H21V38.822H17C14.2386 38.822 12 36.5835 12 33.822H10Z" fill="#3E55EF"/>
<path fill-rule="evenodd" clip-rule="evenodd" d="M70 62.822C70 58.956 66.866 55.822 63 55.822H59V57.822H63C65.7614 57.822 68 60.0606 68 62.822H70Z" fill="#3E55EF"/>
<path fill-rule="evenodd" clip-rule="evenodd" d="M10 62.822C10 58.956 13.134 55.822 17 55.822H21V57.822H17C14.2386 57.822 12 60.0606 12 62.822H10Z" fill="#3E55EF"/>
<path fill-rule="evenodd" clip-rule="evenodd" d="M35.4737 43.0002C35.4737 41.3434 36.8168 40.0002 38.4737 40.0002H45V42.0002H38.4737C37.9214 42.0002 37.4737 42.4479 37.4737 43.0002V44.2611C37.4737 44.8134 37.9214 45.2611 38.4737 45.2611H42.5263C44.1832 45.2611 45.5263 46.6042 45.5263 48.2611V50.0002C45.5263 51.6571 44.1832 53.0002 42.5263 53.0002H36V51.0002H42.5263C43.0786 51.0002 43.5263 50.5525 43.5263 50.0002V48.2611C43.5263 47.7088 43.0786 47.2611 42.5263 47.2611H38.4737C36.8168 47.2611 35.4737 45.9179 35.4737 44.2611V43.0002Z" fill="#3E55EF"/>
<path d="M40 36.0002H42V41.0002H40V36.0002Z" fill="#3E55EF"/>
<path d="M40 52.0002H42V57.0002H40V52.0002Z" fill="#3E55EF"/>
</svg>
