<svg width="80" height="80" viewBox="0 0 80 80" fill="none" xmlns="http://www.w3.org/2000/svg">
<path fill-rule="evenodd" clip-rule="evenodd" d="M15.5 7H64.5C65.8807 7 67 8.11929 67 9.5V60.5C67 61.8807 65.8807 63 64.5 63H15.5C14.1193 63 13 61.8807 13 60.5V9.5C13 8.11928 14.1193 7 15.5 7ZM15.5 9C15.2239 9 15 9.22386 15 9.5V60.5C15 60.7761 15.2239 61 15.5 61H64.5C64.7761 61 65 60.7761 65 60.5V9.5C65 9.22386 64.7761 9 64.5 9H15.5Z" fill="#3E55EF"/>
<path d="M34 18H56V20H34V18Z" fill="#3E55EF"/>
<path d="M34 22H56V24H34V22Z" fill="#3E55EF"/>
<path fill-rule="evenodd" clip-rule="evenodd" d="M30.6569 17.5859L29.2427 16.1717L23.5859 21.8285L20.7575 19.0001L19.3432 20.4143L23.5859 24.657L30.6569 17.5859Z" fill="#3E55EF"/>
<path d="M34 33H56V35H34V33Z" fill="#3E55EF"/>
<path d="M34 37H56V39H34V37Z" fill="#3E55EF"/>
<path fill-rule="evenodd" clip-rule="evenodd" d="M30.657 32.5859L29.2428 31.1717L23.5859 36.8285L20.7575 34.0001L19.3433 35.4143L23.5859 39.657L30.657 32.5859Z" fill="#3E55EF"/>
<path d="M34 48H56V50H34V48Z" fill="#3E55EF"/>
<path d="M34 52H56V54H34V52Z" fill="#3E55EF"/>
<path fill-rule="evenodd" clip-rule="evenodd" d="M30.657 47.5859L29.2428 46.1717L23.5859 51.8285L20.7575 49.0001L19.3433 50.4143L23.5859 54.657L30.657 47.5859Z" fill="#3E55EF"/>
</svg>
