<svg width="80" height="80" viewBox="0 0 80 80" fill="none" xmlns="http://www.w3.org/2000/svg">
<path fill-rule="evenodd" clip-rule="evenodd" d="M8.5 5H25.5C26.8807 5 28 6.11929 28 7.5V24.5C28 25.8807 26.8807 27 25.5 27H8.5C7.11929 27 6 25.8807 6 24.5V7.5C6 6.11929 7.11929 5 8.5 5ZM8.5 7C8.22386 7 8 7.22386 8 7.5V24.5C8 24.7761 8.22386 25 8.5 25H25.5C25.7761 25 26 24.7761 26 24.5V7.5C26 7.22386 25.7761 7 25.5 7H8.5Z" fill="#3E55EF"/>
<path fill-rule="evenodd" clip-rule="evenodd" d="M22.6569 13.5859L21.2427 12.1717L15.5859 17.8285L12.7575 15.0001L11.3432 16.4143L15.5859 20.657L22.6569 13.5859Z" fill="#3E55EF"/>
<path fill-rule="evenodd" clip-rule="evenodd" d="M8.5 40H25.5C26.8807 40 28 41.1193 28 42.5V59.5C28 60.8807 26.8807 62 25.5 62H8.5C7.11929 62 6 60.8807 6 59.5V42.5C6 41.1193 7.11929 40 8.5 40ZM8.5 42C8.22386 42 8 42.2239 8 42.5V59.5C8 59.7761 8.22386 60 8.5 60H25.5C25.7761 60 26 59.7761 26 59.5V42.5C26 42.2239 25.7761 42 25.5 42H8.5Z" fill="#3E55EF"/>
<path fill-rule="evenodd" clip-rule="evenodd" d="M18 45H16V53H18V45ZM18 57H16V55H18V57Z" fill="#3E55EF"/>
<path fill-rule="evenodd" clip-rule="evenodd" d="M53.5 5H70.5C71.8807 5 73 6.11929 73 7.5V24.5C73 25.8807 71.8807 27 70.5 27H53.5C52.1193 27 51 25.8807 51 24.5V7.5C51 6.11929 52.1193 5 53.5 5ZM53.5 7C53.2239 7 53 7.22386 53 7.5V24.5C53 24.7761 53.2239 25 53.5 25H70.5C70.7761 25 71 24.7761 71 24.5V7.5C71 7.22386 70.7761 7 70.5 7H53.5Z" fill="#3E55EF"/>
<path fill-rule="evenodd" clip-rule="evenodd" d="M67.6569 13.5859L66.2427 12.1717L60.5859 17.8285L57.7575 15.0001L56.3432 16.4143L60.5859 20.657L67.6569 13.5859Z" fill="#3E55EF"/>
<path fill-rule="evenodd" clip-rule="evenodd" d="M53.5 40H70.5C71.8807 40 73 41.1193 73 42.5V59.5C73 60.8807 71.8807 62 70.5 62H53.5C52.1193 62 51 60.8807 51 59.5V42.5C51 41.1193 52.1193 40 53.5 40ZM53.5 42C53.2239 42 53 42.2239 53 42.5V59.5C53 59.7761 53.2239 60 53.5 60H70.5C70.7761 60 71 59.7761 71 59.5V42.5C71 42.2239 70.7761 42 70.5 42H53.5Z" fill="#3E55EF"/>
<path fill-rule="evenodd" clip-rule="evenodd" d="M67.6569 48.5859L66.2427 47.1717L60.5859 52.8285L57.7575 50.0001L56.3432 51.4143L60.5859 55.657L67.6569 48.5859Z" fill="#3E55EF"/>
<path d="M28 15H51V17H28V15Z" fill="#3E55EF"/>
<path d="M28 51H51V53H28V51Z" fill="#3E55EF"/>
<path d="M61 27H63V40H61V27Z" fill="#3E55EF"/>
<path d="M16 27H18V40H16V27Z" fill="#3E55EF"/>
</svg>
