<svg width="80" height="80" viewBox="0 0 80 80" fill="none" xmlns="http://www.w3.org/2000/svg">
<path fill-rule="evenodd" clip-rule="evenodd" d="M28 13.5019C18.3037 18.1942 11.6164 28.1267 11.6164 39.6211C11.6164 40.1114 11.6286 40.5988 11.6526 41.0832L13.6322 40.5527C13.6217 40.2435 13.6164 39.9329 13.6164 39.6211C13.6164 29.2668 19.4449 20.2737 28 15.744V13.5019ZM53.705 16C61.5175 20.3382 66.952 28.4399 67.5597 37.856L61.1069 34.1305L60.1069 35.8626L69.6332 41.3626L74.6332 32.7023L72.9011 31.7023L69.5416 37.5212C68.8049 27.2263 62.6944 18.4184 54 13.8873V16H53.705ZM28 63.4982V65.7403C21.9649 62.8198 17.0955 57.8692 14.2787 51.7755L10.9923 57.4678L9.26025 56.4678L14.2603 47.8075L23.7865 53.3075L22.7865 55.0396L16.2494 51.2654C18.7529 56.4946 22.8901 60.7926 28 63.4982ZM54 63.0759V65.3549C59.9501 62.254 64.69 57.1501 67.3256 50.9373L65.579 49.9289C63.2802 55.4898 59.1774 60.1153 54 63.0759Z" fill="#3E55EF"/>
<path fill-rule="evenodd" clip-rule="evenodd" d="M32.5 6H49.5C50.8807 6 52 7.11929 52 8.5V17.5C52 18.8807 50.8807 20 49.5 20H32.5C31.1193 20 30 18.8807 30 17.5V8.5C30 7.11929 31.1193 6 32.5 6ZM32.5 8C32.2239 8 32 8.22386 32 8.5V17.5C32 17.7761 32.2239 18 32.5 18H49.5C49.7761 18 50 17.7761 50 17.5V8.5C50 8.22386 49.7761 8 49.5 8H32.5Z" fill="#3E55EF"/>
<path fill-rule="evenodd" clip-rule="evenodd" d="M32.5 59H49.5C50.8807 59 52 60.1193 52 61.5V70.5C52 71.8807 50.8807 73 49.5 73H32.5C31.1193 73 30 71.8807 30 70.5V61.5C30 60.1193 31.1193 59 32.5 59ZM32.5 61C32.2239 61 32 61.2239 32 61.5V70.5C32 70.7761 32.2239 71 32.5 71H49.5C49.7761 71 50 70.7761 50 70.5V61.5C50 61.2239 49.7761 61 49.5 61H32.5Z" fill="#3E55EF"/>
</svg>
