<svg width="80" height="80" viewBox="0 0 80 80" fill="none" xmlns="http://www.w3.org/2000/svg">
<path fill-rule="evenodd" clip-rule="evenodd" d="M56 31C44.402 31 35 40.402 35 52C35 63.598 44.402 73 56 73C67.598 73 77 63.598 77 52C77 40.402 67.598 31 56 31ZM37 52C37 62.4934 45.5066 71 56 71C66.4934 71 75 62.4934 75 52C75 41.5066 66.4934 33 56 33C45.5066 33 37 41.5066 37 52Z" fill="#3E55EF"/>
<path d="M8 10H64C65.1046 10 66 10.8954 66 12V30H68V12C68 9.79086 66.2091 8 64 8H8C5.79086 8 4 9.79086 4 12V49C4 51.2091 5.79086 53 8 53H31V51H8C6.89543 51 6 50.1046 6 49V12C6 10.8954 6.89543 10 8 10Z" fill="#3E55EF"/>
<path d="M9 16H14V18H9V16Z" fill="#3E55EF"/>
<path d="M11 20H23V22H11V20Z" fill="#3E55EF"/>
<path d="M11 28H19V30H11V28Z" fill="#3E55EF"/>
<path d="M14 24H26V26H14V24Z" fill="#3E55EF"/>
<path d="M25 20H30V22H25V20Z" fill="#3E55EF"/>
<path d="M32 20H42V22H32V20Z" fill="#3E55EF"/>
<path d="M16 16H27V18H16V16Z" fill="#3E55EF"/>
<path d="M48 54.0713L49.4142 52.6571L55.0711 58.3139L53.6569 59.7281L48 54.0713Z" fill="#3E55EF"/>
<path d="M63.5564 47L64.9706 48.4142L53.6569 59.7281L52.2427 58.3137L63.5564 47Z" fill="#3E55EF"/>
</svg>
