<svg width="50" height="50" viewBox="0 0 50 50" fill="none" xmlns="http://www.w3.org/2000/svg">
<path d="M10 16H18V18H10V16Z" fill="#3EEFD8"/>
<path d="M10 24H18V26H10V24Z" fill="#3EEFD8"/>
<path d="M14 20H21V22H14V20Z" fill="#3EEFD8"/>
<path d="M23 20H28V22H23V20Z" fill="#3EEFD8"/>
<path d="M20 16H24V18H20V16Z" fill="#3EEFD8"/>
<path fill-rule="evenodd" clip-rule="evenodd" d="M8 12H38C39.1046 12 40 12.8954 40 14V21H42V14C42 11.7909 40.2091 10 38 10H8C5.79086 10 4 11.7909 4 14V30C4 32.2091 5.79086 34 8 34H23V32H8C6.89543 32 6 31.1046 6 30V14C6 12.8954 6.89543 12 8 12Z" fill="#3EEFD8"/>
<path fill-rule="evenodd" clip-rule="evenodd" d="M42.2278 36.002C44.1036 34.7289 45 33.2585 45 32C45 30.7415 44.1036 29.2711 42.2278 27.998C40.3977 26.7558 38.0344 26 36 26C33.9656 26 31.6023 26.7558 29.7722 27.998C27.8964 29.2711 27 30.7415 27 32C27 33.2585 27.8964 34.7289 29.7722 36.002C31.6023 37.2442 33.9656 38 36 38C38.0344 38 40.3977 37.2442 42.2278 36.002ZM36 40C40.936 40 47 36.4183 47 32C47 27.5817 40.936 24 36 24C31.064 24 25 27.5817 25 32C25 36.4183 31.064 40 36 40Z" fill="#3EEFD8"/>
<path d="M39 32C39 33.6569 37.6569 35 36 35C34.3431 35 33 33.6569 33 32C33 30.3431 34.3431 29 36 29C37.6569 29 39 30.3431 39 32Z" fill="#3EEFD8"/>
</svg>
