<svg width="50" height="50" viewBox="0 0 50 50" fill="none" xmlns="http://www.w3.org/2000/svg">
<path d="M9 15H17V17H9V15Z" fill="#3EEFD8"/>
<path d="M9 23H17V25H9V23Z" fill="#3EEFD8"/>
<path d="M13 19H20V21H13V19Z" fill="#3EEFD8"/>
<path d="M22 19H27V21H22V19Z" fill="#3EEFD8"/>
<path d="M19 15H23V17H19V15Z" fill="#3EEFD8"/>
<path fill-rule="evenodd" clip-rule="evenodd" d="M7 11H37C38.1046 11 39 11.8954 39 13V20H41V13C41 10.7909 39.2091 9 37 9H7C4.79086 9 3 10.7909 3 13V29C3 31.2091 4.79086 33 7 33H27V31H7C5.89543 31 5 30.1046 5 29V13C5 11.8954 5.89543 11 7 11Z" fill="#3EEFD8"/>
<path fill-rule="evenodd" clip-rule="evenodd" d="M47 35.671V27.8765L46.1891 27.8448C45.6388 27.8234 45.0989 27.6885 44.6032 27.4487L40 25.2217L35.3968 27.4487C34.9011 27.6885 34.3612 27.8234 33.8109 27.8448L33 27.8765V36.4206L39.928 41.4723L47 35.671ZM32.9219 25.878C31.8486 25.92 31 26.8023 31 27.8765V36.4206C31 37.0596 31.3053 37.6601 31.8217 38.0366L38.7496 43.0883C39.4859 43.6251 40.4919 43.5965 41.1964 43.0186L48.2684 37.2173C48.7315 36.8374 49 36.27 49 35.671V27.8765C49 26.8023 48.1514 25.92 47.0781 25.878L46.2671 25.8464C45.992 25.8356 45.7221 25.7682 45.4742 25.6483L40.871 23.4214C40.3208 23.1552 39.6792 23.1552 39.129 23.4214L34.5258 25.6483C34.2779 25.7682 34.008 25.8356 33.7329 25.8464L32.9219 25.878Z" fill="#3EEFD8"/>
<path fill-rule="evenodd" clip-rule="evenodd" d="M44.669 30.7433L38.9638 35.878L36.2929 33.2071L37.7071 31.7929L39.0362 33.122L43.331 29.2567L44.669 30.7433Z" fill="#3EEFD8"/>
</svg>
