<svg width="50" height="50" viewBox="0 0 50 50" fill="none" xmlns="http://www.w3.org/2000/svg">
<path fill-rule="evenodd" clip-rule="evenodd" d="M38 43C41.3137 43 44 40.3137 44 37C44 33.6863 41.3137 31 38 31C34.6863 31 32 33.6863 32 37C32 40.3137 34.6863 43 38 43ZM38 45C42.4183 45 46 41.4183 46 37C46 32.5817 42.4183 29 38 29C33.5817 29 30 32.5817 30 37C30 41.4183 33.5817 45 38 45Z" fill="#3EEFD8"/>
<path d="M35 36H41V38H35V36Z" fill="#3EEFD8"/>
<path fill-rule="evenodd" clip-rule="evenodd" d="M28.1714 12.438C28.8332 12.6242 29.4771 12.8673 30.0993 13.1629C30.0994 13.1629 30.0992 13.1628 30.0993 13.1629C30.3346 12.7843 30.5292 12.3777 30.6763 11.9491C30.7479 11.7407 30.8083 11.5271 30.8568 11.309C30.9415 10.9285 30.99 10.5344 30.9986 10.1304C30.9995 10.087 31 10.0436 31 10C31 6.68629 28.3137 4 25 4C21.6863 4 19 6.68629 19 10C19 10.0054 19 10.0107 19 10.0161C19.0012 10.4601 19.0506 10.8927 19.1432 11.309C19.1917 11.5271 19.2521 11.7407 19.3237 11.9491C19.4708 12.3777 19.6651 12.7844 19.9005 13.163C19.9006 13.163 19.9004 13.163 19.9005 13.163C20.5227 12.8674 21.1668 12.6242 21.8286 12.438C21.4213 11.909 21.1434 11.2752 21.0423 10.584C21.0144 10.3934 21 10.1984 21 10C21 7.79086 22.7909 6 25 6C27.2091 6 29 7.79086 29 10C29 10.1984 28.9856 10.3934 28.9577 10.584C28.8566 11.2752 28.5787 11.909 28.1714 12.438Z" fill="#3EEFD8"/>
<path fill-rule="evenodd" clip-rule="evenodd" d="M5 19V18.5H7V19C7 20.6569 8.34315 22 10 22H12.5V24H10C7.23858 24 5 21.7614 5 19Z" fill="#3EEFD8"/>
<path fill-rule="evenodd" clip-rule="evenodd" d="M44.5 19V18.5H42.5V19C42.5 20.6569 41.1569 22 39.5 22H37V24H39.5C42.2614 24 44.5 21.7614 44.5 19Z" fill="#3EEFD8"/>
<path fill-rule="evenodd" clip-rule="evenodd" d="M5 36.5V37H7V36.5C7 34.8431 8.34315 33.5 10 33.5H12.5V31.5H10C7.23858 31.5 5 33.7386 5 36.5Z" fill="#3EEFD8"/>
<path d="M4 27H12V29H4V27Z" fill="#3EEFD8"/>
<path fill-rule="evenodd" clip-rule="evenodd" d="M28 40.5688C27.0352 40.8508 26.0288 41 25 41C18.5592 41 13 35.1522 13 27.5C13 19.8478 18.5592 14 25 14C31.2998 14 36.7561 19.5945 36.9921 27H38.9929C38.7544 18.671 32.5809 12 25 12C17.268 12 11 18.9396 11 27.5C11 36.0604 17.268 43 25 43C26.0297 43 27.0335 42.8769 28 42.6433V40.5688Z" fill="#3EEFD8"/>
<path d="M19 3L20.732 2L22.732 5.4641L21 6.4641L19 3Z" fill="#3EEFD8"/>
<path d="M30.7319 3L28.9999 2L26.9999 5.4641L28.7319 6.4641L30.7319 3Z" fill="#3EEFD8"/>
</svg>
