<svg width="302" height="302" viewBox="0 0 302 302" fill="none" xmlns="http://www.w3.org/2000/svg">
<path d="M154.976 188.692L157.409 182.053H104.107C104.329 183.381 104.55 184.488 104.55 185.815V203.74C104.55 206.174 106.54 208.165 108.973 208.165H157.851C160.284 208.165 162.275 206.174 162.275 203.74V186.479L154.976 188.692Z" fill="#4f46e5"/>
<path d="M121.359 147.754C122.022 147.754 122.686 147.754 123.57 147.975V147.754C122.243 145.32 121.359 142.664 121.359 139.788C121.359 130.936 128.436 123.855 137.283 123.855C142.149 123.855 146.572 126.068 149.447 129.608C150.553 124.74 153.207 120.314 156.746 116.995C151.438 109.914 143.033 105.267 133.302 105.267C117.378 105.488 104.329 118.544 104.329 134.698C104.329 142.443 107.425 149.524 112.291 154.614C113.397 150.631 117.156 147.754 121.359 147.754Z" fill="#4f46e5"/>
<path d="M113.175 212.37C113.175 217.238 116.935 221 121.801 221H144.803C149.668 221 153.428 217.017 153.428 212.37V207.944H113.175V212.37Z" fill="#4f46e5"/>
<path d="M203.412 133.813C201.422 133.813 199.431 134.256 197.662 134.919C197.441 121.642 186.825 110.799 173.333 110.799C166.919 110.799 161.169 113.233 156.746 117.216C153.207 120.536 150.553 124.74 149.447 129.83C146.572 126.289 142.149 124.076 137.283 124.076C128.436 124.076 121.359 131.158 121.359 140.009C121.359 142.886 122.022 145.541 123.57 147.975V148.197C122.907 147.975 122.243 147.975 121.359 147.975C116.935 147.975 113.397 150.852 112.291 154.835C112.07 155.72 111.848 156.606 111.848 157.491C111.848 162.802 116.051 167.006 121.359 167.006H162.717L175.987 130.272L177.093 166.342L202.528 158.376L199.431 166.785H203.412C212.48 166.785 220 159.482 220 150.188C220 140.894 212.48 133.813 203.412 133.813Z" fill="#4f46e5"/>
<path d="M203.412 132.264C201.864 132.264 200.537 132.485 199.21 132.707C198.325 122.085 191.027 113.455 181.295 110.357C173.112 94.6453 157.851 83.3596 139.716 81.368C124.234 79.5977 109.415 84.2448 97.9147 94.6453C86.4139 104.603 80 119.208 80 134.477C80 149.746 86.4139 164.129 97.6935 174.309C100.126 176.522 101.675 179.177 102.338 182.275C102.559 183.381 102.78 184.488 102.78 185.594V203.519C102.78 206.838 105.434 209.493 108.752 209.493H157.63C160.948 209.493 163.602 206.838 163.602 203.519V187.586L178.641 182.939L179.526 216.575C179.526 217.46 180.19 217.902 180.853 218.124H181.074C181.738 218.124 182.401 217.681 182.622 217.017L200.537 168.334H203.412C213.365 168.334 221.548 160.146 221.548 150.188C221.548 140.23 213.365 132.264 203.412 132.264ZM99.9052 171.875C89.2891 162.359 83.0964 148.639 83.0964 134.477C83.0964 120.093 89.2891 106.595 99.9052 97.0794C110.742 87.3428 124.676 82.917 139.273 84.6873C155.419 86.4576 169.131 95.973 176.872 109.472C175.766 109.25 174.439 109.25 173.112 109.25C162.054 109.25 152.101 116.553 148.562 126.732C145.466 123.855 141.264 122.306 137.062 122.306C127.33 122.306 119.589 130.273 119.589 139.788C119.589 142.001 120.032 144.214 120.695 146.205C114.724 146.426 109.858 151.295 109.858 157.491C109.858 163.687 114.945 168.777 121.137 168.777H160.063L155.861 180.726H104.992C104.329 177.185 102.559 174.087 99.9052 171.875ZM160.506 203.74C160.506 205.289 159.4 206.395 157.851 206.395H108.752C107.204 206.395 106.098 205.289 106.098 203.74V196.659H147.678C148.562 196.659 149.226 195.995 149.226 195.11C149.226 194.225 148.562 193.561 147.678 193.561H106.098V186.037C106.098 185.373 106.098 184.709 105.877 183.824H154.976L153.428 188.25C153.207 188.914 153.428 189.578 153.87 190.02C154.313 190.463 154.976 190.684 155.419 190.463L160.506 188.914V203.74ZM182.622 207.944L181.959 180.726C181.959 180.283 181.738 179.841 181.295 179.398C181.074 179.177 180.632 179.177 180.411 179.177C180.19 179.177 180.19 179.177 179.968 179.177L157.63 186.037L174.66 138.681L175.545 166.121C175.545 166.564 175.766 167.006 176.209 167.449C176.651 167.67 177.093 167.891 177.536 167.67L199.874 160.81L182.622 207.944ZM203.412 165.236H201.643L203.855 159.04C204.076 158.376 203.855 157.712 203.412 157.27C202.97 156.827 202.306 156.606 201.864 156.827L178.42 163.908L177.536 130.051C177.536 129.166 176.872 128.724 176.209 128.502C175.545 128.281 174.66 128.724 174.439 129.609L161.611 165.236H121.359C116.935 165.236 113.397 161.695 113.397 157.27C113.397 152.844 116.935 149.303 121.359 149.303C121.801 149.303 122.243 149.303 122.686 149.525C124.013 151.737 126.003 153.508 128.215 154.835C128.436 155.057 128.657 155.057 129.1 155.057C129.542 155.057 130.205 154.835 130.427 154.172C130.869 153.508 130.648 152.401 129.984 151.959C127.994 150.631 126.224 148.861 124.897 146.869C123.57 144.656 122.907 142.222 122.907 139.788C122.907 131.822 129.321 125.404 137.283 125.404C141.264 125.404 145.024 127.174 147.899 130.051C147.678 131.6 147.457 133.149 147.457 134.92C147.457 139.788 148.784 144.656 151.438 148.861C151.659 149.303 152.322 149.525 152.765 149.525C152.986 149.525 153.428 149.525 153.649 149.303C154.313 148.861 154.534 147.754 154.092 147.09C151.88 143.55 150.553 139.345 150.553 134.92C150.553 133.149 150.774 131.6 150.995 130.051C153.207 119.872 162.496 112.348 173.112 112.348C185.276 112.348 195.229 121.864 195.671 133.813C189.257 136.69 185.055 143.107 185.055 150.41C185.055 151.295 185.719 151.959 186.603 151.959C187.488 151.959 188.152 151.295 188.152 150.41C188.152 144.214 192.133 138.681 197.883 136.469C199.652 135.805 201.201 135.583 203.191 135.583C211.374 135.583 218.009 142.222 218.009 150.41C218.231 158.597 211.596 165.236 203.412 165.236Z" fill="white"/>
<path d="M135.071 94.645C135.071 93.7598 134.408 93.0959 133.523 93.0959C110.521 93.0959 91.9431 111.684 91.9431 134.698C91.9431 135.583 92.6066 136.247 93.4913 136.247C94.376 136.247 95.0395 135.583 95.0395 134.698C95.0395 113.454 112.291 96.4153 133.302 96.4153C134.408 96.194 135.071 95.5301 135.071 94.645Z" fill="white"/>
<path d="M147.014 98.6285C150.332 99.9562 153.649 101.727 156.524 103.939C156.746 104.161 157.188 104.161 157.409 104.161C157.852 104.161 158.294 103.939 158.736 103.497C159.179 102.833 159.179 101.727 158.515 101.284C155.419 98.8498 151.88 96.8582 148.12 95.5305C147.235 95.3092 146.351 95.5305 146.13 96.4156C145.908 97.5221 146.351 98.4072 147.014 98.6285Z" fill="white"/>
</svg>
