<svg width="302" height="302" viewBox="0 0 302 302" fill="none" xmlns="http://www.w3.org/2000/svg">
<path d="M151.566 98.9199C141.502 98.9199 133.003 106.76 132.109 116.616L151.566 136.328L171.022 116.616C170.128 106.76 161.629 98.9199 151.566 98.9199Z" fill="#4f46e5"/>
<path d="M179.744 156.04V212.04C179.744 216.072 183.099 219.432 187.125 219.432C191.15 219.432 194.505 216.072 194.505 212.04C194.505 216.072 197.859 219.432 201.885 219.432C205.911 219.432 209.265 216.072 209.265 212.04V156.04H179.744Z" fill="#4f46e5"/>
<path d="M108.403 83.24C102.588 83.24 98.115 88.168 98.115 94.216C98.115 100.264 102.811 105.192 108.403 105.192C114.217 105.192 118.69 100.264 118.69 94.216C118.69 88.168 114.217 83.24 108.403 83.24Z" fill="white"/>
<path d="M93.4185 212.04C93.4185 216.072 96.7731 219.432 100.799 219.432C104.824 219.432 108.179 216.072 108.179 212.04C108.179 216.072 111.533 219.432 115.559 219.432C119.585 219.432 122.939 216.072 122.939 212.04V156.04H93.4185V212.04Z" fill="#4f46e5"/>
<path d="M194.728 81C188.914 81 184.441 85.928 184.441 91.976C184.441 98.024 189.137 102.952 194.728 102.952C200.319 102.952 205.016 98.024 205.016 91.976C205.016 85.928 200.543 81 194.728 81Z" fill="#4f46e5"/>
<path d="M144.632 143.272C142.396 145.512 142.396 149.32 144.632 151.56C146.869 153.8 150.671 153.8 152.907 151.56L156.038 148.424L147.763 140.136L144.632 143.272Z" fill="#4f46e5"/>
<path d="M134.792 160.52V169.256C134.792 170.152 135.463 170.824 136.358 170.824C137.252 170.824 137.923 170.152 137.923 169.256V160.52C137.923 159.624 137.252 158.952 136.358 158.952C135.687 158.728 134.792 159.624 134.792 160.52Z" fill="white"/>
<path d="M167.668 217.864H138.147V180.008C138.147 179.112 137.476 178.44 136.581 178.44C135.687 178.44 135.016 179.112 135.016 180.008V219.432C135.016 220.328 135.687 221 136.581 221H167.668C168.562 221 169.233 220.328 169.233 219.432C169.233 218.536 168.562 217.864 167.668 217.864Z" fill="white"/>
<path d="M108.403 141.256C109.297 141.256 109.968 140.584 109.968 139.688C109.968 138.792 109.297 138.12 108.403 138.12C107.508 138.12 106.837 138.792 106.837 139.688C106.837 140.584 107.508 141.256 108.403 141.256Z" fill="white"/>
<path d="M108.403 149.544C109.297 149.544 109.968 148.872 109.968 147.976C109.968 147.08 109.297 146.408 108.403 146.408C107.508 146.408 106.837 147.08 106.837 147.976C106.837 148.648 107.508 149.544 108.403 149.544Z" fill="white"/>
<path d="M108.403 132.968C109.297 132.968 109.968 132.296 109.968 131.4C109.968 130.504 109.297 129.832 108.403 129.832C107.508 129.832 106.837 130.504 106.837 131.4C106.837 132.296 107.508 132.968 108.403 132.968Z" fill="white"/>
<path d="M108.403 124.68C109.297 124.68 109.968 124.008 109.968 123.112C109.968 122.216 109.297 121.544 108.403 121.544C107.508 121.544 106.837 122.216 106.837 123.112C106.837 124.008 107.508 124.68 108.403 124.68Z" fill="white"/>
<path d="M144.409 143.496L124.505 123.56C124.058 123.112 123.387 122.888 122.716 123.112C122.045 123.336 121.597 124.008 121.597 124.68V154.248H93.4185C92.524 154.248 91.853 154.92 91.853 155.816V211.816C91.853 216.744 95.8786 220.776 101.022 220.776C104.153 220.776 106.837 219.208 108.403 216.968C109.968 219.208 112.875 220.776 115.783 220.776C120.927 220.776 124.952 216.744 124.952 211.816V128.712L142.843 146.632C143.067 145.512 143.514 144.392 144.409 143.496ZM121.821 212.04C121.821 215.176 119.137 217.864 116.006 217.864C112.875 217.864 110.192 215.176 110.192 212.04V169.032C110.192 168.136 109.521 167.464 108.626 167.464C107.732 167.464 106.837 168.136 106.837 169.032V212.264C106.837 215.4 104.153 218.088 101.022 218.088C97.8914 218.088 95.2077 215.4 95.2077 212.264V157.608H121.821V212.04V212.04Z" fill="white"/>
<path d="M208.371 106.312H185.112C181.086 106.312 177.508 107.88 174.601 110.568L151.565 133.864L128.307 110.568C125.623 107.656 121.821 106.312 117.796 106.312H116.901C116.454 106.312 116.23 106.536 115.783 106.76L107.955 112.808L100.128 106.76C99.9042 106.536 99.4569 106.312 99.0096 106.312H93.4185C86.0383 106.312 80 112.36 80 119.752V148.872C80 149.768 80.6709 150.44 81.5655 150.44H93.4185C94.3131 150.44 94.984 149.768 94.984 148.872V121.992C94.984 121.096 94.3131 120.424 93.4185 120.424C92.524 120.424 91.853 121.096 91.853 121.992V147.304H83.3546V119.752C83.3546 114.152 87.8275 109.672 93.4185 109.672H99.0096L107.284 116.168C107.955 116.616 108.626 116.616 109.297 116.168L117.572 109.672H118.019C121.15 109.672 124.058 110.792 126.07 113.032L149.329 136.328L147.987 137.672C147.316 138.344 147.316 139.24 147.987 139.912L156.262 148.2C156.933 148.872 158.051 148.872 158.498 148.2L177.955 128.488V211.816C177.955 216.744 181.981 220.776 187.125 220.776C190.256 220.776 192.939 219.208 194.505 216.968C196.07 219.208 198.978 220.776 201.885 220.776C207.029 220.776 211.054 216.744 211.054 211.816V155.816C211.054 154.92 210.383 154.248 209.489 154.248H181.31V124.68C181.31 124.008 180.863 123.336 180.192 123.112C179.521 122.888 178.85 122.888 178.403 123.56L157.157 144.84L151.118 138.792L176.837 113.032C179.073 110.792 181.981 109.672 184.888 109.672H208.147C214.409 109.672 219.553 114.824 219.553 121.096V147.08H211.054V121.768C211.054 120.872 210.383 120.2 209.489 120.2C208.594 120.2 207.923 120.872 207.923 121.768V148.648C207.923 149.544 208.594 150.216 209.489 150.216H221.342C222.236 150.216 222.907 149.544 222.907 148.648V121.096C223.131 113.032 216.422 106.312 208.371 106.312ZM181.31 157.608H207.923V212.04C207.923 215.176 205.24 217.864 202.109 217.864C198.978 217.864 196.294 215.176 196.294 212.04V171.272C196.294 170.376 195.623 169.704 194.728 169.704C193.834 169.704 193.163 170.376 193.163 171.272V212.264C193.163 215.4 190.479 218.088 187.348 218.088C184.217 218.088 181.534 215.4 181.534 212.264V157.608H181.31Z" fill="white"/>
<path d="M139.489 92.2C143.291 90.408 147.316 89.512 151.566 89.512C156.262 89.512 160.958 90.632 165.208 92.872C165.431 93.096 165.655 93.096 165.879 93.096C166.55 93.096 166.997 92.872 167.22 92.2C167.668 91.304 167.444 90.408 166.55 89.96C162.077 87.72 156.933 86.376 151.566 86.376C146.869 86.376 142.396 87.272 138.147 89.288C137.252 89.736 137.029 90.632 137.252 91.528C137.7 92.2 138.594 92.648 139.489 92.2Z" fill="white"/>
<path d="M126.741 102.504C127.188 102.504 127.859 102.28 128.083 101.832C129.201 100.264 130.543 98.6962 132.109 97.3522C132.779 96.6802 132.779 95.7842 132.109 95.1122C131.438 94.4402 130.543 94.4402 129.872 95.1122C128.307 96.6802 126.741 98.2482 125.399 100.264C124.952 100.936 124.952 102.056 125.847 102.504C126.07 102.28 126.294 102.504 126.741 102.504Z" fill="white"/>
<path d="M144.185 109C143.514 108.328 142.396 108.328 141.949 109C141.278 109.672 141.278 110.792 141.949 111.24L150.671 119.976C150.895 120.2 151.342 120.424 151.789 120.424C152.237 120.424 152.684 120.2 152.907 119.976L177.061 95.5599C177.732 94.8879 177.732 93.7679 177.061 93.3199C176.39 92.6479 175.272 92.6479 174.824 93.3199L151.566 116.392L144.185 109Z" fill="white"/>
<path d="M209.712 150.44V155.368C209.712 158.728 212.396 161.192 215.527 161.192C218.882 161.192 221.342 158.504 221.342 155.368V150.44H209.712Z" fill="#4f46e5"/>
<path d="M81.5654 155.368C81.5654 158.728 84.2491 161.192 87.3801 161.192C90.7348 161.192 93.1948 158.504 93.1948 155.368V150.44H81.5654V155.368Z" fill="#4f46e5"/>
</svg>
