<svg width="302" height="302" viewBox="0 0 302 302" fill="none" xmlns="http://www.w3.org/2000/svg">
<path d="M207.615 160.304C206.73 160.304 205.845 160.304 204.961 160.525V160.082C206.73 156.981 207.615 153.658 207.615 149.892C207.615 138.595 198.547 129.291 187.267 129.291C180.853 129.291 175.324 132.171 171.564 136.823C169.573 127.741 163.602 119.987 155.419 115.778V94.0696H163.602L150.774 81L137.725 94.0696H145.908V112.899C144.36 112.677 142.812 112.456 141.043 112.456C124.013 112.456 110.079 126.411 109.858 143.468C107.646 142.582 104.992 142.139 102.559 142.139C90.8373 142.139 81.327 151.665 81.327 163.405C81.327 175.146 90.8373 184.671 102.559 184.671H116.051V182.013C116.051 181.127 116.714 180.241 117.82 180.241H122.464C122.686 178.247 123.349 176.032 124.013 174.259L120.032 171.823C119.147 171.38 118.926 170.272 119.368 169.386L122.022 164.956C122.464 164.07 123.57 163.848 124.455 164.291L128.436 166.728C129.763 165.177 131.311 163.627 132.859 162.297L130.648 158.532C130.205 157.646 130.427 156.538 131.311 156.095L135.735 153.437C136.619 152.994 137.725 153.215 138.167 154.101L140.6 158.089C142.591 157.424 144.581 156.759 146.572 156.538V151.886C146.572 151 147.235 150.114 148.341 150.114H153.428C154.313 150.114 155.197 150.778 155.197 151.886V156.538C157.188 156.759 159.4 157.424 161.169 158.089L163.602 154.101C164.044 153.215 165.15 152.994 166.035 153.437L170.458 156.095C171.343 156.538 171.564 157.646 171.122 158.532L168.689 162.519C170.237 163.848 171.785 165.399 173.112 166.949L177.093 164.513C177.978 164.07 179.084 164.291 179.526 165.177L182.18 169.608C182.622 170.494 182.401 171.601 181.517 172.044L177.314 174.481C177.978 176.475 178.641 178.468 178.863 180.462H183.507C184.392 180.462 185.276 181.127 185.276 182.234V184.892H207.615C214.471 184.892 219.779 179.354 219.779 172.487C220 165.62 214.471 160.304 207.615 160.304Z" fill="#3EEFD8"/>
<path d="M107.646 89.6394L94.5972 102.709L107.646 115.779V107.582H119.81V121.317C122.464 118.658 125.782 116.443 129.321 115.114V97.8356H107.646V89.6394Z" fill="white"/>
<path d="M206.951 102.709L193.902 89.6394V97.8356H172.228V135.937C174.66 133.057 177.978 131.063 181.738 129.956V107.361H193.902V115.557L206.951 102.709Z" fill="white"/>
<path d="M151.261 201.051C160.173 200.78 167.179 193.324 166.908 184.398C166.638 175.471 159.194 168.455 150.281 168.725C141.369 168.996 134.363 176.452 134.634 185.379C134.904 194.305 142.349 201.322 151.261 201.051Z" fill="#12D4C4"/>
<path d="M140.158 126.855C140.6 126.855 140.821 126.855 141.264 126.855C149.889 126.855 156.967 133.279 157.851 141.696C157.851 142.583 158.736 143.247 159.4 143.247H159.621C160.505 143.247 161.169 142.361 160.948 141.475C159.842 131.285 151.216 123.753 141.043 123.753C140.6 123.753 140.158 123.753 139.716 123.753C138.831 123.753 138.167 124.639 138.167 125.526C138.389 126.19 139.273 126.855 140.158 126.855Z" fill="white"/>
<path d="M126.888 133.721C127.33 133.721 127.772 133.5 128.215 133.057C129.542 131.285 131.311 129.734 133.302 128.626C134.186 128.183 134.408 127.297 133.965 126.411C133.523 125.525 132.638 125.304 131.753 125.747C129.321 127.076 127.33 128.848 125.782 130.842C125.34 131.506 125.34 132.614 126.003 133.057C126.003 133.721 126.445 133.721 126.888 133.721Z" fill="white"/>
<path d="M183.728 190.873C185.498 190.873 187.046 189.323 187.046 187.551V186.665H207.836C215.577 186.665 221.769 180.462 221.769 172.709C221.769 164.956 215.577 158.753 207.836 158.753H207.615C208.72 156.095 209.384 152.994 209.384 150.114C209.384 143.69 206.509 137.93 202.306 133.722V123.975H214.25V128.184L220.221 122.203L214.25 116.222V120.43H200.758C199.874 120.43 199.21 121.095 199.21 121.981V131.063C195.893 128.848 191.912 127.741 187.709 127.741C182.18 127.741 176.872 129.956 172.891 133.722C168.689 120.209 155.861 110.684 141.706 110.684C124.455 110.684 110.3 124.196 109.194 141.253C107.204 140.81 105.213 140.367 103.223 140.367V121.981C103.223 121.095 102.559 120.43 101.675 120.43H87.5197V116.222L81.5482 122.203L87.5197 128.184V123.975H99.4629V140.81C88.4044 142.361 80 151.886 80 163.405C80 176.253 90.1738 186.443 102.78 186.443H114.502V187.329C114.502 189.101 116.051 190.652 117.82 190.652H121.137C121.359 191.981 121.801 193.089 122.022 194.418L119.368 196.19C118.705 196.633 118.041 197.298 117.82 198.184C117.599 199.07 117.599 199.956 118.262 200.62L120.916 205.051C121.359 205.937 122.022 206.38 122.907 206.601C123.791 206.823 124.676 206.601 125.34 206.158L128.215 204.608C129.1 205.494 129.984 206.38 130.869 207.266L129.321 210.146C128.436 211.696 128.878 213.911 130.648 214.798L135.071 217.456C136.619 218.342 138.831 217.899 139.716 216.127L141.264 213.247C142.37 213.69 143.697 213.911 145.024 214.133V217.456C145.024 219.228 146.572 220.779 148.341 220.779H153.428C155.197 220.779 156.746 219.228 156.746 217.456V214.133C158.073 213.911 159.179 213.468 160.506 213.247L162.054 216.127C162.938 217.677 164.929 218.342 166.698 217.456L171.122 214.798C172.006 214.354 172.449 213.69 172.67 212.804C172.891 211.918 172.891 211.032 172.227 210.367L170.679 207.487C171.564 206.601 172.449 205.715 173.333 204.829L176.209 206.38C177.093 206.823 177.978 207.044 178.641 206.823C179.526 206.601 180.19 205.937 180.632 205.272L183.286 200.842C183.728 199.956 183.949 199.07 183.728 198.405C183.507 197.519 182.844 196.854 182.18 196.411L179.305 194.861C179.747 193.753 179.968 192.424 180.19 191.095H183.728V190.873ZM114.502 182.234V183.12H102.78C91.9431 183.12 83.3175 174.26 83.3175 163.405C83.3175 152.551 92.1643 143.69 102.78 143.69C105.213 143.69 107.425 144.133 109.637 145.019C113.618 146.57 116.935 149.228 119.368 152.994C119.589 153.437 120.253 153.658 120.695 153.658C120.916 153.658 121.359 153.658 121.58 153.437C122.243 152.994 122.464 151.886 122.022 151.222C119.589 147.456 116.051 144.354 111.848 142.582C112.512 126.854 125.561 114.006 141.264 114.006C154.976 114.006 167.141 123.753 170.016 137.266C170.458 139.481 170.679 141.475 170.679 143.69C170.679 144.133 170.679 144.576 170.679 145.019C170.679 145.905 171.343 146.57 172.227 146.791C173.112 146.791 173.776 146.127 173.776 145.241C173.776 144.798 173.776 144.354 173.776 143.911C173.776 141.696 173.554 139.703 173.112 137.709C176.651 133.722 181.738 131.285 187.046 131.285C197.441 131.285 205.845 139.703 205.845 150.114C205.845 153.437 204.96 156.76 203.412 159.639C202.528 161.19 201.422 162.741 200.095 164.07C199.431 164.734 199.431 165.62 200.095 166.285C200.316 166.728 200.758 166.728 201.201 166.728C201.643 166.728 202.085 166.506 202.306 166.285C203.633 165.177 204.518 163.848 205.624 162.298C212.259 160.968 218.231 166.285 218.231 172.709C218.231 178.69 213.365 183.342 207.615 183.342H186.825V182.456C186.825 180.684 185.276 179.133 183.507 179.133H180.19C179.968 177.804 179.526 176.696 179.305 175.367L182.18 173.817C183.728 172.93 184.392 170.937 183.507 169.165L180.853 164.734C179.968 163.184 177.978 162.519 176.209 163.405L173.333 164.956C172.449 164.07 171.564 163.184 170.679 162.298L172.227 159.418C172.67 158.753 172.891 157.646 172.67 156.981C172.449 156.095 171.785 155.43 171.122 154.987L166.698 152.329C165.814 151.886 164.929 151.665 164.265 151.886C163.381 152.108 162.717 152.772 162.275 153.437L160.506 156.317C159.4 155.873 158.073 155.652 156.746 155.43V151.886C156.746 150.114 155.197 148.563 153.428 148.563H148.341C146.572 148.563 145.024 150.114 145.024 151.886V155.209C143.697 155.43 142.591 155.873 141.264 156.095L139.716 153.215C138.831 151.665 136.84 151 135.071 151.886L130.648 154.544C129.1 155.43 128.436 157.424 129.321 159.196L130.869 162.076C129.984 162.962 129.1 163.848 128.215 164.734L125.34 163.184C123.791 162.298 121.58 162.741 120.695 164.513L118.041 168.943C117.156 170.494 117.599 172.709 119.368 173.595L122.243 175.146C121.801 176.253 121.58 177.582 121.359 178.911H118.041C116.051 178.911 114.502 180.462 114.502 182.234ZM176.651 196.633L180.632 199.07L177.978 203.5L173.997 201.063C173.333 200.62 172.449 200.842 172.006 201.506C170.679 203.057 169.352 204.386 167.804 205.715C167.141 206.158 166.919 207.044 167.362 207.709L169.573 211.918L164.929 214.576L162.496 210.589C162.054 209.924 161.169 209.703 160.506 209.924C158.736 210.589 156.746 211.253 154.755 211.475C153.87 211.696 153.428 212.361 153.428 213.025V217.677H148.12V213.025C148.12 212.139 147.457 211.475 146.793 211.475C144.803 211.253 143.033 210.589 141.043 209.924C140.821 209.924 140.6 209.924 140.379 209.924C139.716 209.924 139.273 210.146 139.052 210.81L136.619 214.798L132.196 212.139L134.629 208.152C135.071 207.487 134.85 206.601 134.186 206.158C132.638 204.829 131.311 203.5 129.984 201.949C129.542 201.285 128.657 201.063 127.994 201.506L123.791 203.722L121.137 199.07L125.118 196.633C125.782 196.19 126.003 195.304 125.782 194.639C125.118 192.867 124.455 190.873 124.234 188.88C124.013 187.994 123.349 187.551 122.686 187.551H117.82V182.234H122.464C123.349 182.234 124.013 181.57 124.013 180.905C124.234 178.911 124.897 177.139 125.561 175.146C125.782 174.481 125.561 173.595 124.897 173.152L120.916 170.715L123.57 166.285L127.551 168.722C128.215 169.165 129.1 168.943 129.542 168.279C130.869 166.728 132.196 165.399 133.744 164.07C134.408 163.627 134.629 162.741 134.186 162.076L131.975 157.867L136.619 155.209L139.052 159.196C139.494 159.861 140.379 160.082 141.043 159.861C142.812 159.196 144.803 158.532 146.793 158.31C147.678 158.089 148.12 157.424 148.12 156.76V151.886H153.428V156.538C153.428 157.424 154.092 158.089 154.755 158.089C156.746 158.31 158.515 158.975 160.506 159.639C161.169 159.861 162.054 159.639 162.496 158.975L164.929 154.987L169.352 157.646L166.919 161.633C166.477 162.298 166.698 163.184 167.362 163.627C168.91 164.956 170.237 166.285 171.564 167.835C172.006 168.5 172.891 168.722 173.554 168.279L177.757 166.063L180.411 170.715L176.43 173.152C175.766 173.595 175.545 174.481 175.766 175.146C176.43 176.918 177.093 178.911 177.314 180.905C177.536 181.791 178.199 182.234 178.863 182.234H183.507V187.551H178.863C177.978 187.551 177.314 188.215 177.314 188.88C177.093 190.873 176.43 192.646 175.766 194.639C175.545 195.525 175.766 196.19 176.651 196.633Z" fill="white"/>
<path d="M150.774 166.949C141.043 166.949 132.859 174.924 132.859 184.893C132.859 194.639 140.821 202.836 150.774 202.836C160.727 202.836 168.689 194.861 168.689 184.893C168.689 175.146 160.506 166.949 150.774 166.949ZM150.774 199.513C142.812 199.513 136.177 192.867 136.177 184.893C136.177 176.918 142.812 170.272 150.774 170.272C158.736 170.272 165.371 176.918 165.371 184.893C165.371 192.867 158.736 199.513 150.774 199.513Z" fill="white"/>
<path d="M102.338 217.899H83.3175V187.329C83.3175 186.443 82.654 185.779 81.7694 185.779C80.6635 185.779 80 186.443 80 187.329V219.449C80 220.336 80.6635 221 81.5482 221H102.338C103.223 221 103.886 220.336 103.886 219.449C104.107 218.563 103.223 217.899 102.338 217.899Z" fill="white"/>
<path d="M120.031 217.899H113.175C112.291 217.899 111.627 218.563 111.627 219.45C111.627 220.336 112.291 221 113.175 221H120.031C120.916 221 121.58 220.336 121.58 219.45C121.801 218.563 120.916 217.899 120.031 217.899Z" fill="white"/>
<path d="M220 207.93C219.115 207.93 218.452 208.595 218.452 209.481V217.899H187.709C186.825 217.899 186.161 218.563 186.161 219.449C186.161 220.335 186.825 221 187.709 221H219.779C220.663 221 221.327 220.335 221.327 219.449V209.481C221.548 208.595 220.885 207.93 220 207.93Z" fill="white"/>
<path d="M220 190.209C219.115 190.209 218.452 190.874 218.452 191.76V198.627C218.452 199.513 219.115 200.177 220 200.177C220.885 200.177 221.548 199.513 221.548 198.627V191.76C221.548 190.874 220.885 190.209 220 190.209Z" fill="white"/>
</svg>
