<svg viewBox="0 0 489 390" fill="none" xmlns="http://www.w3.org/2000/svg" version="1.1" xmlns:xlink="http://www.w3.org/1999/xlink">
  <path d="M415.758 294.574c-.193-2.899-2.901-5.798-5.415-6.764l-12.96-4.445c-2.708-.966-5.416-3.478-6.383-5.797-.967-2.125-.773-5.99.581-8.502l5.996-12.561c1.16-2.512.967-6.57-.967-8.696-3.289-4.058-7.157-7.923-11.219-11.401-2.128-1.933-6.189-2.319-8.704-.966l-12.379 5.797c-2.515 1.159-6.77 1.159-9.284 0-2.515-1.16-5.416-3.865-6.383-6.57l-4.836-13.141c-.967-2.705-4.062-5.217-6.963-5.411-2.515-.193-5.029-.386-7.737-.386s-5.223.193-7.737.386c-2.901.194-5.996 2.706-6.963 5.411l-4.642 13.141c-.968 2.705-3.869 5.604-6.383 6.57-2.515 1.159-6.577 1.159-9.285 0l-12.379-5.797c-2.514-1.16-6.576-.773-8.704.966-4.062 3.478-7.737 7.15-11.218 11.401-1.741 2.126-2.128 6.184-.967 8.696l5.996 12.561c1.16 2.512 1.354 6.377.58 8.502-.967 2.126-3.675 4.831-6.383 5.797l-13.153 4.445c-2.708.966-5.222 4.058-5.416 6.764-.193 2.705-.387 5.41-.387 8.116 0 2.705.194 5.41.387 8.116.194 2.898 2.902 5.797 5.416 6.763l12.96 4.445c2.707.966 5.415 3.478 6.382 5.797.968 2.126.774 5.991-.58 8.503l-5.996 12.56c-1.16 2.513-.967 6.571.967 8.696 3.288 4.058 7.157 7.923 11.219 11.402 2.127 1.932 6.189 2.318 8.704.966l12.379-5.798c2.514-1.159 6.77-1.159 9.284 0 2.515 1.16 5.416 3.865 6.383 6.571l4.642 13.14c.967 2.705 4.062 5.218 6.964 5.411 2.514.193 5.222.386 7.736.386 2.708 0 5.223-.193 7.737-.386 2.902-.193 5.997-2.706 6.964-5.411l4.642-13.14c.967-2.706 3.868-5.604 6.383-6.571 2.514-1.159 6.576-1.159 9.284 0l12.379 5.798c2.515 1.159 6.577.773 8.704-.966 4.062-3.479 7.737-7.15 11.219-11.402 1.741-2.125 2.127-6.183.967-8.696l-5.996-12.56c-1.161-2.512-1.354-6.377-.581-8.503.968-2.126 3.676-4.831 6.383-5.797l12.96-4.445c2.708-.966 5.222-4.058 5.416-6.763.193-2.706.386-5.411.386-8.116.387-2.706.194-5.411 0-8.116Z" fill="#F0F1F2" class="css-lusjy6"></path>
  <path fill-rule="evenodd" clip-rule="evenodd" d="M329.021 328.778c14.408 0 26.088-11.68 26.088-26.088 0-14.408-11.68-26.087-26.088-26.087-14.408 0-26.087 11.679-26.087 26.087s11.679 26.088 26.087 26.088Z" fill="#999999"></path>
  <circle cx="126.312" cy="96.601" r="13.283" stroke="#333333" stroke-width="5.366"></circle>
  <circle cx="126.312" cy="96.601" r="13.283" stroke="#333333" stroke-width="5.366"></circle>
  <circle cx="126.312" cy="96.602" r="51.553" stroke="#333333" stroke-width="4.878"></circle>
  <circle cx="126.311" cy="96.602" r="93.445" stroke="#333333" stroke-width="5.366"></circle>
  <path d="m229.396 265.916 100.322 58.269-101.004 57.231-101.004-56.808 101.686-58.692Z" fill="#464D55"></path>
  <path d="m229.751 234.435-99.942-57.685v115.369l98.597 56.311 1.345-113.995Z" fill="#C4C4C4"></path>
  <path d="m229.751 234.435-99.942-57.685v115.369l98.597 56.311 1.345-113.995Z" fill="url(#a)"></path>
  <path d="m329.012 176.753-99.269 57.692-1.334 113.98 99.273-56.245.004-.002 1.326-115.425Z" fill="#C4C4C4"></path>
  <path d="m329.012 176.753-99.269 57.692-1.334 113.98 99.273-56.245.004-.002 1.326-115.425Z" fill="url(#b)"></path>
  <path d="m329.022 176.75-99.798-56.728-99.415 56.727 99.942 57.685 99.271-57.684Z" fill="url(#c)"></path>
  <rect x="125.592" y="36.272" width="75.34" height="43.209" rx="21.604" fill="#119eff"></rect>
  <circle cx="178.477" cy="57.877" r="18.417" fill="#fff"></circle>
  <rect x="236.432" y="31.669" width="123.703" height="47.811" rx="6.112" fill="#0076d7"></rect>
  <path d="M279.903 51.346h3.1c-.061-3.004-2.622-5.131-6.408-5.131-3.733 0-6.537 2.1-6.529 5.243 0 2.553 1.815 4.02 4.741 4.776l2.023.52c1.918.487 3.186 1.086 3.195 2.466-.009 1.52-1.45 2.535-3.551 2.535-2.014 0-3.577-.903-3.707-2.77h-3.169c.13 3.534 2.76 5.522 6.902 5.522 4.263 0 6.737-2.127 6.746-5.26-.009-3.083-2.553-4.49-5.227-5.123l-1.667-.417c-1.458-.347-3.039-.964-3.021-2.448.009-1.337 1.207-2.318 3.221-2.318 1.919 0 3.186.894 3.351 2.405Zm12.732-.443h-2.631v-3.195h-3.142v3.195h-1.893v2.43h1.893v7.415c-.018 2.51 1.805 3.742 4.167 3.673a6.313 6.313 0 0 0 1.849-.313l-.529-2.457c-.174.043-.53.122-.921.122-.79 0-1.424-.278-1.424-1.546v-6.893h2.631v-2.431Zm6.464 13.604c2.092 0 3.342-.98 3.915-2.1h.105v1.831h3.021v-8.925c0-3.525-2.874-4.584-5.418-4.584-2.804 0-4.957 1.25-5.652 3.681l2.935.417c.312-.911 1.198-1.693 2.735-1.693 1.458 0 2.257.747 2.257 2.058v.052c0 .903-.946.946-3.299 1.198-2.587.278-5.062 1.05-5.062 4.054 0 2.622 1.919 4.011 4.463 4.011Zm.816-2.309c-1.311 0-2.249-.599-2.249-1.754 0-1.207 1.051-1.71 2.457-1.91.825-.113 2.475-.321 2.883-.65v1.57c0 1.485-1.198 2.744-3.091 2.744Zm9.383 2.04h3.143v-7.84c0-1.693 1.276-2.89 3.004-2.89.529 0 1.189.095 1.458.182v-2.891a7.534 7.534 0 0 0-1.128-.087c-1.528 0-2.805.868-3.291 2.413h-.139v-2.222h-3.047v13.335Zm17.066-13.335h-2.63v-3.195h-3.143v3.195h-1.893v2.43h1.893v7.415c-.017 2.51 1.806 3.742 4.167 3.673a6.313 6.313 0 0 0 1.849-.313l-.529-2.457c-.174.043-.53.122-.92.122-.79 0-1.424-.278-1.424-1.546v-6.893h2.63v-2.431Z" fill="#fff"></path>
  <path d="m285.687 293.9 4.917-2.587v-19.962l-5.888 6.302v-3.433l5.857-6.232 3.163-1.664v23.341l4.855-2.554v2.99l-12.904 6.79V293.9Zm24.746-36.838c2.495-1.313 4.379-1.155 5.653.476 1.284 1.625 1.926 4.69 1.926 9.197 0 4.507-.642 8.248-1.926 11.224-1.274 2.971-3.158 5.113-5.653 6.425-2.496 1.313-4.38 1.155-5.654-.476-1.274-1.63-1.911-4.699-1.911-9.205 0-4.507.637-8.246 1.911-11.216 1.274-2.971 3.158-5.113 5.654-6.425Zm0 24.491c1.482-.78 2.584-2.25 3.304-4.411.731-2.166 1.096-5.077 1.096-8.734 0-1.947-.104-3.65-.313-5.109l-7.455 17.106c.784 1.534 1.906 1.917 3.368 1.148Zm0-21.66c-1.473.774-2.574 2.245-3.305 4.411-.72 2.16-1.08 5.069-1.08 8.726 0 1.664.099 3.169.297 4.515l7.298-16.988c-.793-1.151-1.864-1.373-3.21-.664Z" fill="#6C737C"></path>
  <defs>
    <linearGradient id="a" x1="179.78" y1="176.75" x2="179.78" y2="347.953" gradientUnits="userSpaceOnUse">
      <stop stop-color="#DDDDE1"></stop>
      <stop offset="1" stop-color="#8F8F9D"></stop>
    </linearGradient>
    <linearGradient id="b" x1="278.383" y1="177.228" x2="278.383" y2="348.431" gradientUnits="userSpaceOnUse">
      <stop stop-color="#F5F5F7"></stop>
      <stop offset="1" stop-color="#DDDDE1"></stop>
    </linearGradient>
    <linearGradient id="c" x1="229.415" y1="120.022" x2="229.415" y2="234.434" gradientUnits="userSpaceOnUse">
      <stop stop-color="#119eff"></stop>
      <stop offset="1" stop-color="#0080e1"></stop>
    </linearGradient>
  </defs>
</svg>