<svg width="90%" fill="none" viewBox="0 0 450 434" xmlns="http://www.w3.org/2000/svg" version="1.1" xmlns:xlink="http://www.w3.org/1999/xlink" transform="matrix(-1,0,0,1,0,0)">
  <circle cx="11.615" cy="324.821" r="3" fill="#797a99"/>
  <circle cx="11.615" cy="355.92" r="3" fill="#797a99"/>
  <circle cx="11.615" cy="387.02" r="3" fill="#797a99"/>
  <circle cx="11.615" cy="418.119" r="3" fill="#797a99"/>
  <circle cx="49.144" cy="324.821" r="3" fill="#797a99"/>
  <circle cx="49.144" cy="355.92" r="3" fill="#797a99"/>
  <circle cx="49.144" cy="387.02" r="3" fill="#797a99"/>
  <circle cx="49.144" cy="418.119" r="3" fill="#797a99"/>
  <circle cx="86.672" cy="324.821" r="3" fill="#797a99"/>
  <circle cx="86.672" cy="355.92" r="3" fill="#797a99"/>
  <circle cx="86.672" cy="387.02" r="3" fill="#797a99"/>
  <circle cx="86.672" cy="418.119" r="3" fill="#797a99"/>
  <circle cx="124.2" cy="324.821" r="3" fill="#797a99"/>
  <circle cx="124.2" cy="355.92" r="3" fill="#797a99"/>
  <circle cx="124.2" cy="387.02" r="3" fill="#797a99"/>
  <circle cx="124.2" cy="418.119" r="3" fill="#797a99"/>
  <circle cx="161.73" cy="324.821" r="3" fill="#797a99"/>
  <circle cx="161.73" cy="355.92" r="3" fill="#797a99"/>
  <circle cx="161.73" cy="387.02" r="3" fill="#797a99"/>
  <circle cx="161.73" cy="418.119" r="3" fill="#797a99"/>
  <path fill="#EBEBED" d="m297.094 298.288-142.323 57.533c-3.842 1.553-4.738 6.588-1.669 9.371l72.452 65.695a5.618 5.618 0 0 0 6.255.879l148.679-73.182c3.934-1.937 4.233-7.433.531-9.784l-78.808-50.046a5.616 5.616 0 0 0-5.117-.466z"/>
  <path fill="#B0B0BA" d="m293.339 306.248-124.277 51.243c-2.024.834-2.502 3.484-.897 4.973l32.653 30.289a2.998 2.998 0 0 0 3.303.522l125.762-58.362c2.115-.981 2.351-3.894.422-5.203l-34.137-23.171a3.002 3.002 0 0 0-2.829-.291z"/>
  <path fill="#3B3B54" d="m316.996 274.967-207.241 82.295c-4.458 1.77-9.462-.754-10.687-5.392L58.263 197.401a8 8 0 0 1 5.303-9.664l217.579-69.42c4.5-1.436 9.259 1.32 10.252 5.939l30.467 141.592a8.001 8.001 0 0 1-4.868 9.119z"/>
  <path fill="#B1B1BA" d="m1.658 206.834 2.767-5.222 53.616 94.518-3.447 3.358c-3.349 3.263-8.906 2.318-10.988-1.868L1.578 213.135a6.897 6.897 0 0 1 .08-6.301z"/>
  <path fill="#EBEBED" d="m5.776 199.98 31.245-28.09c3.485-3.133 9.014-1.953 10.916 2.332l35.174 79.257a6.897 6.897 0 0 1-.597 6.67l-23.911 35.247c-2.97 4.379-9.562 3.92-11.897-.828L4.199 208.153a6.896 6.896 0 0 1 1.577-8.173z"/>
  <path fill="#119eff" d="m10.677 203.457 29.072-26.893c1.733-1.602 4.528-1.03 5.49 1.125l33.496 74.969a3.449 3.449 0 0 1-.271 3.308l-22.38 33.875c-1.47 2.225-4.8 2.011-5.974-.383L9.922 207.507a3.448 3.448 0 0 1 .755-4.05z" class="css-1dtm3uw"/>
  <path fill="#B1B1BA" d="m421.239 69.185-5.941-.862-20.1 167.917 19.759 3.932c3.414.679 6.618-1.877 6.713-5.357l4.379-159.916a5.62 5.62 0 0 0-4.81-5.714z"/>
  <path fill="#EBEBED" d="m414.87 68.269-107.929-3.81a5.619 5.619 0 0 0-5.816 5.683l1.708 142.682a5.616 5.616 0 0 0 4.493 5.437l101.68 20.778c3.419.699 6.642-1.856 6.741-5.345l4.541-159.65a5.619 5.619 0 0 0-5.418-5.775z"/>
  <path fill="#119eff" d="m411.735 73.908-102.727-4.665a2.81 2.81 0 0 0-2.937 2.803l-.13 139.799a2.809 2.809 0 0 0 2.282 2.762l98.185 18.745a2.81 2.81 0 0 0 3.335-2.674l4.672-153.879a2.809 2.809 0 0 0-2.68-2.891z" class="css-1dtm3uw"/>
  <path fill="#7280eb" d="m204.071 211.124-78.608 27.732a4.08 4.08 0 0 0-2.604 4.823 4.08 4.08 0 0 0 5.311 2.873l78.657-27.593a4.153 4.153 0 1 0-2.756-7.835zm27.335 6.411-78.608 27.731a4.08 4.08 0 0 0 2.707 7.696l78.657-27.593a4.152 4.152 0 1 0-2.756-7.834zm4.163 14.975-78.608 27.732a4.078 4.078 0 0 0 2.707 7.695l78.657-27.592a4.153 4.153 0 1 0-2.756-7.835zm-16.149 21.64-78.609 27.731a4.08 4.08 0 0 0 2.708 7.696l78.657-27.593a4.152 4.152 0 1 0-2.756-7.834z" class="css-12zyxld"/>
  <path fill="url(#a)" fill-rule="evenodd" d="m334.749 337.108-39.939-16.254a31.523 31.523 0 0 0-14.682-2.199l-7.082.633a7.023 7.023 0 0 0-5.329 3.27l-12.5 19.977 16.103-9.858-19.178 11.765-6.007 6.266a3.102 3.102 0 0 0 2.651 5.222l2.542-.34 5.882-2.308-2.749 1.126 33.623 10.526 3.99 1.058a85.678 85.678 0 0 0 31.659 2.313l7.117-.811 3.899-30.386zm-68.808 12.569 15.617-6.3c.421-.17.898-.126 1.281.118l7.06 4.502c1.208.771.622 2.644-.811 2.588l-23.147-.908z" clip-rule="evenodd"/>
  <path fill="url(#b)" d="M332.169 333.609c-4.04 12.726.777 28.041-8.919 37.206l54.778 16.132c3.234.953 6.668.867 9.808-.359 8.923-3.483 29.241-11.926 52.789-25.095 3.212-1.797 2.403-6.561-1.212-7.256l-107.244-20.628z"/>
  <defs>
    <linearGradient id="a" x1="298.996" x2="316.185" y1="323.425" y2="372.124" gradientUnits="userSpaceOnUse">
      <stop stop-color="#fff"/>
      <stop offset="1" stop-color="#B0B0BA"/>
    </linearGradient>
    <linearGradient id="b" x1="360.4" x2="361.59" y1="343.137" y2="381.232" gradientUnits="userSpaceOnUse">
      <stop stop-color="#5C5C71"/>
      <stop offset="1" stop-color="#21213D"/>
    </linearGradient>
  </defs>
</svg>
