<svg xmlns="http://www.w3.org/2000/svg" width="166.892" height="20" viewBox="0 0 166.892 20">
  <g id="Group_8050" data-name="Group 8050" transform="translate(-1777 -3718)">
    <path id="Path_1" data-name="Path 1" d="M4.379.636l6.207,12.62L16.758.636H21.1V20.325H17.655L17.62,6.257,11.793,18.291H9.345L3.517,6.257V20.325H0V.636Z" transform="translate(1777 3717.502)" fill="#101010"/>
    <path id="Path_2" data-name="Path 2" d="M67.336,16.153H57.715l-1.759,4.172h-3.9L60.715.636h3.9l8.517,19.689H69.059Zm-1.345-3.241L62.543,4.636,59.06,12.912Z" transform="translate(1748.422 3717.502)" fill="#101010"/>
    <path id="Path_3" data-name="Path 3" d="M114.463,10.364h3.276v7.414a13.837,13.837,0,0,1-7.793,2.552A10.047,10.047,0,0,1,99.532,10.3c0-5.655,4.621-9.965,10.62-9.965a12.2,12.2,0,0,1,7.724,2.828l-2.138,2.759a8.44,8.44,0,0,0-5.586-2.207,6.64,6.64,0,1,0,0,13.276,9.067,9.067,0,0,0,4.241-1.241V10.364Z" transform="translate(1722.363 3717.67)" fill="#101010"/>
    <path id="Path_4" data-name="Path 4" d="M161.915,20.325,158.5,14.5a4.648,4.648,0,0,1-.69.034h-4.448v5.793h-3.759V.636h8.207c5.1,0,8,2.448,8,6.793,0,3.1-1.379,5.31-3.9,6.379l4.345,6.517h-4.345Zm-8.552-9.1h4.448c2.828,0,4.379-1.207,4.379-3.69,0-2.414-1.586-3.586-4.379-3.586h-4.448Z" transform="translate(1694.876 3717.502)" fill="#101010"/>
    <path id="Path_5" data-name="Path 5" d="M212.309,10.3c0,5.655-4.552,10.034-10.483,10.034S191.344,15.986,191.344,10.3,195.9.331,201.827.331C207.758.365,212.309,4.641,212.309,10.3Zm-17.137,0a6.638,6.638,0,1,0,13.276,0,6.563,6.563,0,0,0-6.586-6.586A6.652,6.652,0,0,0,195.172,10.3Z" transform="translate(1671.964 3717.669)" fill="#ec6b43"/>
    <path id="Path_6" data-name="Path 6" d="M261.235,10.3c0,5.655-4.552,10.034-10.483,10.034S240.27,15.986,240.27,10.3,244.822.331,250.753.331,261.235,4.641,261.235,10.3Zm-17.138,0a6.638,6.638,0,1,0,13.276,0,6.563,6.563,0,0,0-6.586-6.586A6.674,6.674,0,0,0,244.1,10.3Z" transform="translate(1645.106 3717.669)" fill="#ec6b43"/>
    <path id="Path_7" data-name="Path 7" d="M292.39.636l5.793,15.517L304.045.636h3.9l-7.9,19.689h-3.9L288.355.636Z" transform="translate(1618.71 3717.502)" fill="#101010"/>
    <path id="Path_8" data-name="Path 8" d="M351.695.636V3.912H341.04V8.774h9.552v3.276H341.04v5h11v3.276H337.281V.636Z" transform="translate(1591.853 3717.502)" fill="#101010"/>
  </g>
</svg>
