<?xml version="1.0" encoding="UTF-8" standalone="no"?>
<!-- Generator: Adobe Illustrator 24.1.2, SVG Export Plug-In . SVG Version: 6.00 Build 0)  -->

<svg
   version="1.1"
   id="Layer_1"
   x="0px"
   y="0px"
   viewBox="0 0 512 128"
   xml:space="preserve"
   sodipodi:docname="emoji_u1f62d.svg"
   width="512"
   height="128"
   inkscape:version="1.3.2 (091e20e, 2023-11-25)"
   xmlns:inkscape="http://www.inkscape.org/namespaces/inkscape"
   xmlns:sodipodi="http://sodipodi.sourceforge.net/DTD/sodipodi-0.dtd"
   xmlns="http://www.w3.org/2000/svg"
   xmlns:svg="http://www.w3.org/2000/svg"><defs
   id="defs22"><rect
     x="127.90082"
     y="0"
     width="11.902607"
     height="14.30401"
     id="rect23" /><rect
     x="127.58568"
     y="-0.2061158"
     width="16.283148"
     height="13.603643"
     id="rect22" /></defs><sodipodi:namedview
   id="namedview22"
   pagecolor="#ffffff"
   bordercolor="#000000"
   borderopacity="0.25"
   inkscape:showpageshadow="2"
   inkscape:pageopacity="0.0"
   inkscape:pagecheckerboard="0"
   inkscape:deskcolor="#d1d1d1"
   showgrid="true"
   inkscape:zoom="39.863446"
   inkscape:cx="151.02809"
   inkscape:cy="117.83979"
   inkscape:window-width="1792"
   inkscape:window-height="1006"
   inkscape:window-x="0"
   inkscape:window-y="25"
   inkscape:window-maximized="1"
   inkscape:current-layer="Layer_1"><inkscape:grid
     id="grid22"
     units="px"
     originx="0"
     originy="0"
     spacingx="128"
     spacingy="128"
     empcolor="#0099e5"
     empopacity="0.30196078"
     color="#0099e5"
     opacity="0.14901961"
     empspacing="5"
     dotted="false"
     gridanglex="30"
     gridanglez="30"
     visible="true" /></sodipodi:namedview>
<radialGradient
   id="face_1_"
   cx="63.599998"
   cy="-2088.8999"
   r="56.959702"
   gradientTransform="matrix(1,0,0,-1,0,-2026)"
   gradientUnits="userSpaceOnUse">
	<stop
   offset="0.5"
   style="stop-color:#FDE030"
   id="stop1" />
	<stop
   offset="0.9188"
   style="stop-color:#F7C02B"
   id="stop2" />
	<stop
   offset="1"
   style="stop-color:#F4A223"
   id="stop3" />
</radialGradient>
<path
   id="face_126_"
   style="fill:url(#face_1_)"
   d="M 63.6,118.8 C 35.7,118.8 5.6,101.3 5.6,62.9 5.6,24.5 35.7,7 63.6,7 c 15.5,0 29.8,5.1 40.4,14.4 11.5,10.2 17.6,24.6 17.6,41.5 0,16.9 -6.1,31.2 -17.6,41.4 -10.6,9.3 -25,14.5 -40.4,14.5 z" />
<path
   style="fill:#eb8f00"
   d="m 111.49,29.67 c 5.33,8.6 8.11,18.84 8.11,30.23 0,16.9 -6.1,31.2 -17.6,41.4 -10.6,9.3 -25,14.5 -40.4,14.5 -18.06,0 -37.04,-7.35 -48.18,-22.94 10.76,17.66 30.99,25.94 50.18,25.94 15.4,0 29.8,-5.2 40.4,-14.5 11.5,-10.2 17.6,-24.5 17.6,-41.4 0,-12.74 -3.47,-24.06 -10.11,-33.23 z"
   id="path3" />
<g
   id="prop_24_">
	<g
   id="g5">
		<g
   id="g4">
			<path
   style="fill:#5f7aff"
   d="m 38.53,48 c 0.05,0 0.02,0 0,0 z"
   id="path4" />
		</g>
	</g>
	<g
   id="g7">
		<g
   id="g6">
			<path
   style="fill:#5f7aff"
   d="m 95.86,48 c 0.04,0 0.02,0 0,0 z"
   id="path5" />
		</g>
	</g>
</g>
<radialGradient
   id="face_2_"
   cx="63.599998"
   cy="-2088.8999"
   r="56.959702"
   gradientTransform="matrix(1,0,0,-1,0,-2026)"
   gradientUnits="userSpaceOnUse">
	<stop
   offset="0.5"
   style="stop-color:#FDE030"
   id="stop7" />
	<stop
   offset="0.9188"
   style="stop-color:#F7C02B"
   id="stop8" />
	<stop
   offset="1"
   style="stop-color:#F4A223"
   id="stop9" />
</radialGradient>
<path
   id="face_125_"
   style="fill:url(#face_2_)"
   d="M 63.6,118.8 C 35.7,118.8 5.6,101.3 5.6,62.9 5.6,24.5 35.7,7 63.6,7 c 15.5,0 29.8,5.1 40.4,14.4 11.5,10.2 17.6,24.6 17.6,41.5 0,16.9 -6.1,31.2 -17.6,41.4 -10.6,9.3 -25,14.5 -40.4,14.5 z" />
<g
   id="mouth_85_">
	<path
   style="fill:#422b0d"
   d="M 89.74,79.1 C 82.42,76.75 73.53,75.5 64,75.5 c -9.68,0 -18.63,1.37 -26.07,3.75 -2.82,4.67 -4.53,10.08 -4.53,15.85 0,4.9 4.9,7.8 9.2,5.8 5.4,-2.5 13.3,-5 21.4,-5 8.1,0 16.1,2.5 21.4,5 4.3,2 9.2,-0.9 9.2,-5.8 0,-5.83 -1.87,-11.3 -4.86,-16 z"
   id="path9" />
	<path
   style="fill:#ffffff"
   d="M 89.74,79.1 C 83.7,69.6 73.09,67.2 64,67.2 54.12,67.2 43.7,69.67 37.93,79.25 45.37,76.87 54.32,75.5 64,75.5 c 9.52,0 18.42,1.25 25.74,3.6 z"
   id="path10" />
</g>
<g
   id="g11">
	<path
   style="fill:#eb8f00"
   d="m 63.94,65.7 c 3.5,0.09 7.03,0.41 10.46,1.3 3.44,0.84 6.78,2.28 9.71,4.34 2.9,2.11 5.34,4.85 7.01,7.97 1.7,3.07 2.94,6.4 3.56,9.85 0.32,1.72 0.49,3.47 0.49,5.22 0.03,0.84 -0.05,1.83 -0.3,2.72 -0.26,0.9 -0.72,1.73 -1.31,2.45 -1.18,1.45 -2.98,2.31 -4.81,2.44 -0.91,0.05 -1.83,-0.07 -2.69,-0.35 -0.87,-0.32 -1.6,-0.71 -2.38,-1.05 -6.2,-2.74 -12.91,-4.52 -19.74,-4.68 6.84,-0.09 13.66,1.44 20.04,3.99 0.8,0.31 1.6,0.7 2.34,0.94 0.77,0.22 1.58,0.29 2.36,0.22 1.57,-0.17 3.07,-0.97 4.01,-2.21 0.47,-0.62 0.83,-1.32 1.01,-2.07 0.18,-0.77 0.22,-1.5 0.17,-2.36 -0.07,-1.67 -0.29,-3.33 -0.65,-4.95 -0.71,-3.25 -2,-6.37 -3.71,-9.21 -1.68,-2.85 -3.98,-5.23 -6.67,-7.05 -2.73,-1.77 -5.81,-2.98 -9.03,-3.64 -3.21,-0.7 -6.54,-0.89 -9.87,-0.85 z"
   id="path11" />
</g>
<g
   id="g12">
	<path
   style="fill:#eb8f00"
   d="m 64.19,68.7 c -3.32,-0.04 -6.66,0.15 -9.87,0.85 -3.22,0.66 -6.3,1.87 -9.03,3.64 -2.69,1.82 -4.99,4.2 -6.67,7.05 -1.72,2.84 -3,5.95 -3.71,9.21 -0.36,1.63 -0.59,3.28 -0.65,4.95 -0.06,0.86 -0.01,1.59 0.17,2.36 0.19,0.75 0.55,1.45 1.01,2.07 0.94,1.24 2.44,2.04 4.01,2.21 0.79,0.07 1.59,0 2.36,-0.22 0.74,-0.24 1.54,-0.62 2.34,-0.94 6.37,-2.55 13.2,-4.08 20.04,-3.99 -6.84,0.16 -13.55,1.94 -19.74,4.68 -0.78,0.34 -1.51,0.73 -2.38,1.05 -0.86,0.28 -1.78,0.4 -2.69,0.35 -1.82,-0.12 -3.62,-0.99 -4.81,-2.44 -0.59,-0.72 -1.05,-1.55 -1.31,-2.45 -0.25,-0.88 -0.33,-1.87 -0.3,-2.72 0.01,-1.75 0.18,-3.49 0.49,-5.22 0.63,-3.45 1.86,-6.78 3.56,-9.85 1.68,-3.11 4.12,-5.86 7.01,-7.97 2.93,-2.06 6.27,-3.51 9.71,-4.34 3.44,-0.88 6.97,-1.21 10.46,-1.3 z"
   id="path12" />
</g>
<path
   style="fill:#eb8f00"
   d="m 111.49,29.67 c 5.33,8.6 8.11,18.84 8.11,30.23 0,16.9 -6.1,31.2 -17.6,41.4 -10.6,9.3 -25,14.5 -40.4,14.5 -18.06,0 -37.04,-7.35 -48.18,-22.94 10.76,17.66 30.99,25.94 50.18,25.94 15.4,0 29.8,-5.2 40.4,-14.5 11.5,-10.2 17.6,-24.5 17.6,-41.4 0,-12.74 -3.47,-24.06 -10.11,-33.23 z"
   id="path13" />
<g
   id="prop_23_">
	<g
   id="g15">
		<g
   id="g14">
			<path
   style="fill:#5f7aff"
   d="m 36.53,48 c 0.05,0 0.02,0 0,0 z"
   id="path14" />
		</g>
	</g>
	<g
   id="g17">
		<g
   id="g16">
			<path
   style="fill:#5f7aff"
   d="m 93.86,48 c 0.04,0 0.02,0 0,0 z"
   id="path15" />
		</g>
	</g>
</g>
<path
   id="left-eyebrow_6_"
   style="fill:#422b0d"
   d="m 22.19,45.91 c -0.52,0.09 -1.06,0.01 -1.52,-0.21 -0.91,-0.44 -1.6,-1.51 -1.08,-2.91 1.91,-4.94 5.86,-9.08 10.84,-11.38 1.85,-0.86 3.79,-1.43 5.78,-1.7 1.49,-0.17 2.36,0.74 2.57,1.71 0.23,1.08 -0.26,2.4 -1.66,2.86 L 37,34.32 c -5.39,1.86 -10.2,5.67 -13.18,10.44 -0.41,0.68 -1.01,1.04 -1.63,1.15 z" />
<path
   id="left-eyebrow_5_"
   style="fill:#422b0d"
   d="M 103.53,44.76 C 100.55,39.99 95.74,36.18 90.35,34.32 l -0.12,-0.04 c -1.4,-0.45 -1.9,-1.78 -1.66,-2.86 0.21,-0.98 1.09,-1.88 2.57,-1.71 1.98,0.26 3.93,0.84 5.78,1.7 4.98,2.3 8.93,6.44 10.84,11.38 0.52,1.4 -0.17,2.47 -1.08,2.91 -0.45,0.22 -0.99,0.3 -1.52,0.21 -0.62,-0.11 -1.22,-0.47 -1.63,-1.15 z" />
<g
   id="g18">
	<path
   style="fill:#29b6f6"
   d="m 111.74,111 c 0,-3.07 -5.55,-5.62 -12.52,-5.78 L 97.07,52.67 c -0.21,-0.16 -0.42,-0.35 -0.59,-0.56 0,0 -0.06,-0.08 -0.18,-0.22 C 96.24,51.82 96.17,51.73 96.09,51.62 96,51.51 95.91,51.39 95.83,51.33 95.66,51.16 95.45,50.95 95.21,50.71 94.96,50.46 94.66,50.19 94.35,49.92 93.71,49.38 92.95,48.88 92.15,48.53 91.35,48.2 90.54,48 89.71,48.01 h -0.13 l -0.29,0.01 c -0.26,0 -0.21,0.02 -0.29,0.03 -0.07,-0.01 -0.35,0.06 -0.54,0.09 -0.4,0.1 -0.82,0.22 -1.22,0.39 -0.8,0.35 -5.09,0.54 -5.37,0.71 l -0.46,61.25 c -4.53,1.37 -9.49,3.67 -9.49,6.24 0,4.19 7.83,7.6 17.49,7.6 9.66,0 17.49,-3.39 17.49,-7.58 0,-0.42 -0.1,-0.82 -0.25,-1.22 3.1,-1.06 5.09,-2.69 5.09,-4.53 z"
   id="path17" />
</g>
<path
   style="fill:#81d4fa"
   d="m 86.38,106.87 c 0.09,3.25 -1.87,6.19 -4.89,7.4 -3.67,1.47 -7.17,3.54 -1.93,4.78 0,0 3.95,1.94 5.96,0.93 0.9,-0.45 0.59,-1.19 -0.03,-1.86 -0.68,-0.73 -0.34,-1.91 0.63,-2.13 l 0.86,-0.19 c 2.18,-0.48 3.71,-2.45 3.65,-4.68 L 89.02,45.49 85.73,45.22 Z"
   id="path18" />
<g
   id="g19">
	<path
   style="fill:#29b6f6"
   d="M 46.88,110.49 46.43,49.36 C 45.94,49.14 45.1,52.03 44.98,51.88 44.92,51.81 44.85,51.72 44.77,51.61 44.68,51.5 44.59,51.38 44.51,51.32 44.34,51.15 44.13,50.94 43.89,50.7 43.64,50.45 43.34,50.18 43.03,49.91 42.39,49.37 41.63,48.87 40.83,48.52 40.03,48.19 39.22,47.99 38.39,48 h -0.13 l -0.29,0.01 c -0.26,0 -0.21,0.02 -0.29,0.03 -0.07,-0.01 -0.35,0.06 -0.54,0.09 -0.4,0.1 -0.82,0.22 -1.22,0.39 -0.8,0.35 -1.56,0.85 -2.2,1.39 -0.63,0.54 -1.16,1.07 -1.52,1.47 -0.36,0.41 -0.57,0.64 -0.57,0.64 l -0.3,0.34 c -0.03,0.03 -0.06,0.05 -0.09,0.08 l -2.16,52.77 c -6.98,0.16 -12.52,2.69 -12.52,5.76 0,1.84 1.99,3.49 5.08,4.54 -0.15,0.4 -0.25,0.81 -0.25,1.23 0,4.19 7.83,7.59 17.49,7.59 9.66,0 17.49,-3.42 17.49,-7.61 0,-2.57 -4.97,-4.86 -9.49,-6.23 z"
   id="path19" />
</g>
<path
   style="fill:#81d4fa"
   d="M 35.25,49.14 33.5,104.4 c -0.05,1.61 -1.4,2.87 -3,2.8 -2.08,-0.09 -4.93,0.15 -7.27,1.6 -1.26,0.78 -1.78,2.77 -0.63,3.88 1.26,1.21 4.56,0.16 6.21,-0.01 0.72,-0.07 1.67,0 1.86,0.7 0.11,0.4 -0.13,0.83 -0.46,1.07 -0.33,0.25 -0.74,0.35 -1.14,0.47 -0.66,0.19 -1.32,0.42 -1.84,0.87 -0.51,0.45 -0.84,1.17 -0.66,1.83 0.24,0.85 1.18,1.26 2.01,1.55 1.46,0.53 2.95,1.06 4.5,1.13 0.09,-1.1 -1.62,-1.86 -1.28,-2.91 0.12,-0.37 0.47,-0.61 0.82,-0.78 0.94,-0.44 2.01,-0.53 3.02,-0.77 1.66,-0.39 4.66,-1.23 3.88,-3.51 -0.26,-0.75 -0.79,-1.36 -1.24,-2.02 -1.69,-2.5 -2.02,-4.7 -1.72,-7.7 0.24,-2.34 0.84,-39.37 1.24,-54.6 0.1,-3.65 -1.09,-0.29 -2.28,-0.2 -0.1,0.13 -0.17,1.22 -0.27,1.34 z"
   id="path20" />
<path
   style="fill:#422b0d"
   d="m 48.6,54.43 -0.2,-0.2 c -0.1,-0.1 -0.4,-0.4 -0.5,-0.5 -0.2,-0.2 -0.4,-0.3 -0.7,-0.6 -0.3,-0.2 -0.6,-0.5 -1,-0.7 -0.4,-0.2 -0.8,-0.5 -1.2,-0.7 -0.4,-0.2 -0.9,-0.4 -1.4,-0.6 -0.5,-0.2 -1,-0.3 -1.5,-0.4 -0.5,-0.1 -1,-0.1 -1.6,-0.1 h 0.1 v 0 0 0 H 40.5 40.3 40 c -0.3,0 -0.3,0 -0.4,0 -0.2,0 -0.5,0.1 -0.7,0.1 -0.5,0.1 -1,0.2 -1.5,0.4 -0.5,0.2 -1,0.3 -1.4,0.6 -0.4,0.2 -0.8,0.4 -1.2,0.7 -0.7,0.5 -1.3,1 -1.7,1.3 -0.4,0.4 -0.6,0.6 -0.6,0.6 l -0.2,0.2 c -1.2,1.2 -3.2,1.2 -4.6,0.2 -1,-0.8 -1.3,-2.2 -0.8,-3.2 l 0.1,-0.3 c 0.1,-0.2 0.2,-0.5 0.4,-0.8 0.4,-0.7 1.1,-1.7 2.2,-2.8 0.5,-0.5 1.2,-1.1 1.9,-1.6 0.7,-0.5 1.6,-1 2.5,-1.4 0.9,-0.4 2,-0.8 3,-1 0.5,-0.1 1.1,-0.2 1.7,-0.3 0.3,0 0.7,-0.1 0.8,-0.1 h 0.8 c 1.1,0 2.2,0.1 3.3,0.3 1.1,0.2 2.1,0.6 3,1 0.9,0.4 1.8,0.9 2.5,1.4 0.8,0.5 1.4,1 1.9,1.6 0.5,0.5 1,1 1.3,1.5 0.2,0.2 0.3,0.5 0.5,0.7 0.1,0.2 0.3,0.4 0.4,0.6 0.3,0.4 0.3,0.6 0.4,0.8 0.1,0.2 0.1,0.2 0.1,0.2 0.7,1.5 -0.1,3.2 -1.8,3.8 -0.9,0.5 -2.4,0.2 -3.3,-0.7 z"
   id="path21" />
<path
   style="fill:#422b0d"
   d="m 95.51,54.07 c 0,0 -0.07,-0.07 -0.2,-0.2 -0.11,-0.11 -0.36,-0.39 -0.51,-0.5 -0.19,-0.16 -0.42,-0.35 -0.69,-0.57 -0.29,-0.22 -0.62,-0.46 -0.98,-0.71 -0.37,-0.23 -0.77,-0.47 -1.2,-0.68 -0.42,-0.23 -0.9,-0.39 -1.38,-0.57 -0.48,-0.17 -0.99,-0.26 -1.5,-0.37 -0.51,-0.08 -1.04,-0.12 -1.57,-0.12 0.3,0 0.08,0 0.14,0 H 87.61 87.59 87.55 87.47 87.31 L 87,50.36 c -0.26,0 -0.3,0.02 -0.4,0.03 -0.16,0 -0.45,0.05 -0.7,0.09 -0.51,0.11 -1.02,0.2 -1.5,0.37 -0.47,0.18 -0.95,0.34 -1.37,0.57 -0.43,0.22 -0.83,0.45 -1.2,0.68 -0.72,0.48 -1.31,0.96 -1.7,1.32 C 79.73,53.78 79.5,54 79.5,54 l -0.25,0.25 c -1.21,1.17 -3.25,1.24 -4.57,0.17 -1.04,-0.85 -1.3,-2.16 -0.78,-3.25 0,0 0.05,-0.1 0.15,-0.3 0.1,-0.19 0.22,-0.49 0.44,-0.84 0.41,-0.71 1.09,-1.71 2.17,-2.76 0.54,-0.52 1.17,-1.07 1.92,-1.57 0.73,-0.52 1.58,-0.99 2.52,-1.4 0.94,-0.4 1.96,-0.75 3.04,-0.97 0.55,-0.1 1.06,-0.2 1.73,-0.26 0.31,-0.03 0.68,-0.06 0.84,-0.07 l 0.77,-0.03 c 1.13,0.02 2.25,0.14 3.34,0.35 1.08,0.22 2.1,0.57 3.04,0.97 0.93,0.41 1.79,0.88 2.52,1.4 0.75,0.5 1.37,1.04 1.91,1.57 0.54,0.52 0.97,1.04 1.33,1.51 0.17,0.24 0.33,0.46 0.48,0.67 0.14,0.23 0.28,0.44 0.39,0.63 0.27,0.42 0.29,0.58 0.39,0.77 0.07,0.16 0.11,0.25 0.11,0.25 0.67,1.49 -0.14,3.18 -1.81,3.78 -1.31,0.47 -2.78,0.11 -3.67,-0.8 z"
   id="path22" />
<text
   xml:space="preserve"
   style="font-style:normal;font-variant:normal;font-weight:normal;font-stretch:normal;font-size:58.3068px;font-family:Amaranth;-inkscape-font-specification:Amaranth;fill:#000000;stroke-width:1.09323"
   x="130.0824"
   y="45.473454"
   id="text24"
   transform="scale(1.0480806,0.95412512)"><tspan
     sodipodi:role="line"
     x="130.0824"
     y="45.473454"
     id="tspan25"
     style="stroke-width:1.09323">Please disable</tspan><tspan
     sodipodi:role="line"
     x="130.0824"
     y="118.35699"
     id="tspan26"
     style="stroke-width:1.09323">your adblock</tspan></text></svg>
