<?xml version="1.0" encoding="UTF-8"?>
<svg width="173px" height="86px" viewBox="0 0 173 86" version="1.1" xmlns="http://www.w3.org/2000/svg" xmlns:xlink="http://www.w3.org/1999/xlink">
    <title>Revel-Logo-White</title>
    <g id="V3" stroke="none" stroke-width="1" fill="none" fill-rule="evenodd">
        <g id="Homepage" transform="translate(-26.000000, -18.000000)" fill="#31122c" fill-rule="nonzero">
            <g id="Revel-Logo-White" transform="translate(26.000000, 18.000000)">
                <polygon id="Path" points="25.8472273 30.6510758 12.4697025 80.3685688 19.7592519 80.3685688 32.1755175 30.6510758"></polygon>
                <path d="M62.7756041,79.3227315 C53.723746,79.3227315 50.1190238,67.3358279 50.1190238,67.3358279 C50.1190238,67.3358279 46.9949312,57.1188026 45.1525176,53.0963517 C43.310104,49.0739008 38.2634928,45.8559401 38.2634928,45.8559401 C50.0389188,40.787652 50.0389188,31.2142189 50.0389188,31.2142189 C50.0389188,31.2142189 52.0415423,18.101029 35.2195051,18.101029 C18.397468,18.101029 6.30162222,31.696913 6.30162222,31.696913 C6.30162222,31.696913 -5.55390873,45.05145 3.25763454,51.4873714 C12.3895976,58.1646399 18.9582026,46.3386342 18.9582026,46.3386342 L15.0330606,42.4770814 C13.8314865,43.9251637 12.4697025,45.131899 10.8676037,46.0972872 C10.2267642,46.4995323 9.50581977,46.8213283 8.78487532,46.9017774 C7.58330124,46.9822264 6.62204197,46.0972872 6.54193703,44.8905519 C6.38172716,43.0402245 7.18277655,39.1786717 13.9916963,33.0645463 C24.1650236,23.9738073 34.2582459,24.4565014 34.2582459,24.4565014 C34.2582459,24.4565014 44.5116781,23.8933583 43.229999,30.6510758 C41.94832,37.4087933 31.7749928,43.2011225 31.7749928,43.2011225 L32.8964619,52.0505145 C36.5011842,51.4873714 38.023178,55.3489242 38.023178,55.3489242 C41.3875854,60.8194574 43.8708385,70.8755847 43.8708385,70.8755847 C43.8708385,70.8755847 47.7158756,86 61.4138202,86 C75.1918696,86 80.3986907,73.5304022 80.3986907,73.5304022 L73.1892462,73.5304022 C68.4630548,80.1272217 62.7756041,79.3227315 62.7756041,79.3227315 Z" id="Path"></path>
                <path d="M165.470136,39.5809167 C165.470136,39.5809167 161.544994,48.1085126 156.097858,47.7867166 C156.097858,47.7867166 150.971142,47.9476146 149.449148,36.7652011 C153.37429,29.2029935 156.578488,21.3189897 158.901531,13.1131899 C159.141846,12.1478017 159.38216,11.1019645 159.462265,10.1365762 C160.263315,0.241347053 152.332926,0 152.332926,0 C141.759074,0 141.278444,13.595884 141.278444,20.9167446 C141.358549,26.2263798 141.678969,31.536015 142.480018,36.8456501 C139.436031,42.8793265 133.58837,53.0963517 127.74071,53.0963517 C127.74071,53.0963517 123.655358,53.4985968 122.854308,50.1197381 L122.934413,50.1197381 L123.174728,50.0392891 C125.177351,49.0739008 136.632358,42.7988775 135.991518,32.8231993 C135.991518,32.8231993 135.911413,25.6632367 129.583123,25.6632367 C123.735463,25.6632367 115.965284,34.2712816 115.244339,44.3274088 C113.562135,44.4883068 110.998777,44.4078578 110.518148,44.0860617 C111.078882,41.9943873 111.559512,39.9027128 111.799827,37.7305893 C111.799827,37.7305893 112.921296,30.5706268 106.272586,30.1683817 C106.272586,30.1683817 97.5411476,29.3638915 96.8202031,38.4546305 C96.4196784,43.8447147 98.1018822,47.2235734 101.46629,48.9934518 C98.9029315,55.4293732 95.2982093,58.4864359 95.2982093,58.4864359 C95.2982093,58.4864359 91.6934871,57.6014967 89.7709685,51.2460243 C87.768345,44.8905519 89.4505488,32.9840973 89.4505488,32.9840973 L83.1222586,34.1908326 C82.4013141,38.0523854 82.0007894,41.9139383 82.0007894,45.7754911 C80.7992154,48.7521048 73.7499807,64.5201123 66.2201165,64.5201123 C66.2201165,64.5201123 61.8143449,64.6810103 61.0132955,61.3826006 C61.0132955,61.3826006 75.1117647,55.1075772 74.3908203,44.2469598 C74.3908203,44.2469598 74.3107153,37.0869972 68.0625301,37.0869972 C61.8143449,37.0869972 53.3232213,46.9017774 53.723746,57.7623948 C54.1242707,68.6230122 59.9719313,71.7605239 65.8195918,71.7605239 C71.6672523,71.7605239 77.8353326,66.4508887 84.0034129,55.1880262 C85.5254068,59.2104771 88.2489747,62.6697848 91.6934871,65.1637044 C92.9751661,66.1290926 94.6573698,66.5313377 96.1793636,66.2095416 C97.2207278,65.9681946 98.1819871,65.4855005 98.9830365,64.7614593 C100.905555,63.0720299 105.071012,58.1646399 108.195104,50.6828812 C110.598253,51.2460243 113.161611,51.5678204 115.644864,51.4873714 L115.805074,51.4873714 C117.567382,58.2450889 122.373679,60.4172123 127.26008,60.4172123 C132.787321,60.4172123 138.715086,55.5902713 144.562747,45.373246 C146.485265,50.3610851 149.929778,55.1880262 155.697333,55.1880262 C161.544994,55.1880262 166.83192,51.0046773 173,39.4200187 L165.470136,39.5809167 Z M62.935814,46.9822264 C63.8970733,45.6950421 65.8195918,43.1206735 67.8222153,44.1665108 C69.5845239,45.05145 67.8222153,47.5453695 67.8222153,47.5453695 C65.4190671,51.3264733 60.9331905,53.3376988 60.6928757,53.4181478 C60.9331905,51.1655753 61.7342399,48.9934518 62.935814,46.9822264 Z M105.791956,37.4087933 C105.631746,39.2591207 105.071012,41.0289991 104.189858,42.6379794 C101.866814,41.4312442 102.427549,38.0523854 102.427549,38.0523854 C102.427549,38.0523854 102.587759,35.7193639 104.510277,35.9607109 C105.231222,35.9607109 105.872061,36.6043031 105.791956,37.4087933 C105.791956,37.4087933 105.791956,37.4087933 105.791956,37.4087933 Z M124.456407,35.5584659 L124.456407,35.5584659 C125.097247,34.3517306 127.340185,31.696913 129.342808,32.7427502 C131.105117,33.6276894 129.342808,36.121609 129.342808,36.121609 C126.93966,39.9027128 122.533889,41.9139383 122.293574,42.0748363 C122.533889,39.8222638 123.254833,37.5696913 124.456407,35.5584659 Z M148.167469,24.5369504 C147.927154,20.6753976 148.087364,16.7333957 148.728204,12.8718428 C149.529253,5.95322732 151.611981,6.51637044 151.611981,6.51637044 C153.454395,6.67726848 152.73345,10.7801684 152.73345,10.7801684 L151.852296,14.6417212 C150.810932,18.02058 149.529253,21.3189897 148.167469,24.5369504 Z" id="Shape"></path>
            </g>
        </g>
    </g>
</svg>