<svg width="61" height="30" viewBox="0 0 61 30" fill="none" xmlns="http://www.w3.org/2000/svg">
<g clip-path="url(#clip0_1_22711)">
<path d="M9.01741 10.6922L4.35083 28.0355H6.8937L11.225 10.6922H9.01741Z" fill="white"/>
<path d="M21.8991 27.6707C18.7415 27.6707 17.484 23.4892 17.484 23.4892C17.484 23.4892 16.3942 19.9251 15.7515 18.5219C15.1088 17.1188 13.3483 15.9962 13.3483 15.9962C17.456 14.2282 17.456 10.8886 17.456 10.8886C17.456 10.8886 18.1546 6.31427 12.2865 6.31427C6.41833 6.31427 2.19885 11.057 2.19885 11.057C2.19885 11.057 -1.9368 15.7156 1.13699 17.9607C4.32256 20.2899 6.61394 16.1646 6.61394 16.1646L5.2447 14.8175C4.82555 15.3227 4.35051 15.7436 3.79164 16.0804C3.56809 16.2207 3.31659 16.333 3.0651 16.361C2.64595 16.3891 2.31063 16.0804 2.28268 15.6595C2.22679 15.014 2.50623 13.6669 4.88143 11.5341C8.43027 8.36291 11.9512 8.5313 11.9512 8.5313C11.9512 8.5313 15.5279 8.33485 15.0808 10.6922C14.6337 13.0495 11.0849 15.0701 11.0849 15.0701L11.4761 18.1571C12.7336 17.9607 13.2645 19.3077 13.2645 19.3077C14.4381 21.216 15.3044 24.724 15.3044 24.724C15.3044 24.724 16.6457 30 21.424 30C26.2303 30 28.0467 25.6501 28.0467 25.6501H25.5317C23.8831 27.9513 21.8991 27.6707 21.8991 27.6707Z" fill="white"/>
<path d="M57.7229 13.8073C57.7229 13.8073 56.3536 16.782 54.4535 16.6698C54.4535 16.6698 52.6651 16.7259 52.1342 12.8251C53.5034 10.1871 54.6211 7.43686 55.4315 4.57437C55.5153 4.23761 55.5992 3.87278 55.6271 3.53602C55.9066 0.0841909 53.1401 0 53.1401 0C49.4516 0 49.2839 4.74275 49.2839 7.29654C49.3119 9.14874 49.4236 11.0009 49.7031 12.8531C48.6412 14.9579 46.6013 18.522 44.5615 18.522C44.5615 18.522 43.1363 18.6623 42.8569 17.4836H42.8848L42.9687 17.4556C43.6673 17.1188 47.6632 14.9298 47.4396 11.45C47.4396 11.45 47.4117 8.95229 45.2042 8.95229C43.1643 8.95229 40.4537 11.9551 40.2023 15.463C39.6154 15.5192 38.7212 15.4911 38.5536 15.3789C38.7492 14.6492 38.9168 13.9196 39.0007 13.1618C39.0007 13.1618 39.3919 10.6642 37.0726 10.5239C37.0726 10.5239 34.0267 10.2432 33.7752 13.4144C33.6355 15.2947 34.2223 16.4733 35.396 17.0907C34.5018 19.3358 33.2443 20.4022 33.2443 20.4022C33.2443 20.4022 31.9868 20.0935 31.3162 17.8765C30.6176 15.6595 31.2044 11.5061 31.2044 11.5061L28.9969 11.927C28.7454 13.2741 28.6057 14.6211 28.6057 15.9682C28.1865 17.0065 25.7275 22.507 23.1008 22.507C23.1008 22.507 21.5639 22.5631 21.2844 21.4125C21.2844 21.4125 26.2025 19.2236 25.951 15.435C25.951 15.435 25.9231 12.9373 23.7435 12.9373C21.5639 12.9373 18.6019 16.3611 18.7416 20.1497C18.8813 23.9383 20.9212 25.0327 22.9611 25.0327C25.0009 25.0327 27.1526 23.1805 29.3043 19.2516C29.8352 20.6548 30.7853 21.8616 31.9868 22.7315C32.4339 23.0683 33.0208 23.2086 33.5517 23.0964C33.9149 23.0122 34.2503 22.8438 34.5297 22.5912C35.2004 22.0019 36.6534 20.29 37.7432 17.6801C38.5815 17.8765 39.4757 17.9888 40.342 17.9607H40.3979C41.0126 20.3181 42.6892 21.0758 44.3938 21.0758C46.3219 21.0758 48.3897 19.392 50.4296 15.8279C51.1003 17.5678 52.3018 19.2516 54.3138 19.2516C56.3536 19.2516 58.1979 17.7923 60.3496 13.7512L57.7229 13.8073ZM21.9551 16.3892C22.2904 15.9401 22.9611 15.0421 23.6597 15.4069C24.2744 15.7156 23.6597 16.5856 23.6597 16.5856C22.8213 17.9046 21.2565 18.6062 21.1727 18.6342C21.2565 17.8485 21.5359 17.0907 21.9551 16.3892ZM36.9049 13.0496C36.849 13.695 36.6534 14.3124 36.346 14.8737C35.5357 14.4528 35.7313 13.2741 35.7313 13.2741C35.7313 13.2741 35.7872 12.4602 36.4578 12.5444C36.7093 12.5444 36.9329 12.7689 36.9049 13.0496ZM43.4158 12.4041C43.6393 11.9832 44.4217 11.0571 45.1203 11.4219C45.7351 11.7306 45.1203 12.6006 45.1203 12.6006C44.282 13.9196 42.7451 14.6211 42.6613 14.6773C42.7451 13.8915 42.9966 13.1057 43.4158 12.4041ZM51.6871 8.5594C51.6032 7.21235 51.6591 5.83723 51.8827 4.49018C52.1621 2.07671 52.8886 2.27315 52.8886 2.27315C53.5313 2.32928 53.2799 3.76052 53.2799 3.76052L52.9725 5.10758C52.6092 6.28625 52.1621 7.43686 51.6871 8.5594Z" fill="white"/>
</g>
<defs>
<clipPath id="clip0_1_22711">
<rect width="60.3488" height="30" fill="white"/>
</clipPath>
</defs>
</svg>
