<svg width="87" height="96" viewBox="0 0 87 96" fill="none" xmlns="http://www.w3.org/2000/svg"><g clip-path="url(#clip0_495_3106)"><path d="M77.0011 1.28333H9.83925C7.94919 1.28333 6.41699 2.81552 6.41699 4.70558V73.4258C6.41699 74.7025 7.12766 75.8731 8.26038 76.4621L42.2507 94.137C43.2506 94.657 44.4423 94.6513 45.4372 94.1219L78.6088 76.4692C79.7255 75.8749 80.4233 74.7131 80.4233 73.4481V4.70558C80.4233 2.81552 78.8911 1.28333 77.0011 1.28333Z" fill="white"></path><path d="M79.1401 4.7056C79.1401 3.52432 78.1825 2.56669 77.0012 2.56669H9.83939C8.6581 2.56669 7.70048 3.52432 7.70048 4.7056V73.4256L7.7055 73.5748C7.75694 74.3139 8.189 74.9784 8.85265 75.3235L42.843 92.9983L42.9612 93.0556C43.5602 93.3218 44.2514 93.2993 44.8344 92.9892L78.0059 75.3365L78.1337 75.2625C78.7567 74.8738 79.1401 74.1894 79.1401 73.4482V4.7056ZM81.7068 73.4482C81.7068 75.1332 80.8063 76.6852 79.354 77.5234L79.212 77.6019L46.0405 95.2546C44.7153 95.9599 43.1359 95.9894 41.7885 95.3407L41.6586 95.2755L7.66832 77.6007C6.15952 76.8161 5.19545 75.281 5.13671 73.5898L5.13379 73.4256V4.7056C5.13379 2.10677 7.24056 0 9.83939 0H77.0012C79.6 0 81.7068 2.10677 81.7068 4.7056V73.4482Z" fill="#16171B"></path><path d="M52.6172 2.5667H34.2226V16.5898L43.5262 21.3891L52.6172 16.5898V2.5667Z" fill="#16171B"></path><path d="M46.0934 7.81862L45.7577 7.58855L43.4206 5.98889L38.0723 9.64836V11.74L43.4199 15.4001L48.7668 11.74V9.64836L46.0927 7.81862H46.0934ZM43.4206 6.91052L45.085 8.05005L44.2303 8.63469L44.1542 8.6868L43.4213 8.18538L41.2821 9.64903L42.015 10.1511L42.6877 10.6119L43.4206 11.114L45.5591 9.64971L44.8269 9.14829L44.903 9.09619L45.7577 8.51154L47.4214 9.65039L46.5667 10.2357L43.4206 12.3889L41.7562 11.2494L41.0835 10.7892L40.2737 10.2357L39.419 9.65039L43.4206 6.91052Z" fill="white"></path><path d="M2.69315 55.4217L0.154821 61.2842C0.0564669 61.5114 0.0613184 61.77 0.168122 61.9933L2.68376 67.2531C2.82591 67.5503 3.12611 67.7395 3.45558 67.7395H83.812C84.1415 67.7395 84.4417 67.5503 84.5838 67.2531L87.0995 61.9933C87.2063 61.77 87.2111 61.5114 87.1128 61.2842L84.5744 55.4217C84.4389 55.1087 84.1304 54.9061 83.7893 54.9061H3.47828C3.13718 54.9061 2.82867 55.1087 2.69315 55.4217Z" fill="#0A715C"></path><path d="M22.0764 40.3148C20.8301 40.3148 19.761 40.1115 18.8689 39.7048C17.9899 39.2982 17.3012 38.7275 16.8027 37.9928C16.3173 37.2451 16.0418 36.3661 15.9762 35.356L19.4002 35.1986C19.4658 35.6971 19.6101 36.1234 19.8331 36.4776C20.0561 36.8318 20.3513 37.1008 20.7186 37.2844C21.0991 37.4681 21.5648 37.5599 22.1158 37.5599C22.5618 37.5599 22.9357 37.5075 23.2374 37.4025C23.5523 37.2976 23.7884 37.1401 23.9458 36.9302C24.1164 36.7203 24.2016 36.458 24.2016 36.1431C24.2016 35.8545 24.1295 35.6053 23.9852 35.3954C23.854 35.1723 23.5851 34.9756 23.1784 34.805C22.7848 34.6214 22.1879 34.4442 21.3877 34.2737C20.1545 34.0113 19.1575 33.7096 18.3966 33.3685C17.6489 33.0143 17.0979 32.5748 16.7437 32.0501C16.4026 31.5122 16.232 30.8301 16.232 30.0036C16.232 29.1509 16.4485 28.4031 16.8814 27.7603C17.3143 27.1175 17.9375 26.619 18.7508 26.2648C19.5642 25.8974 20.535 25.7138 21.6632 25.7138C22.8701 25.7138 23.8802 25.9237 24.6936 26.3435C25.5201 26.7502 26.1629 27.3143 26.622 28.0358C27.0812 28.7573 27.3567 29.5903 27.4485 30.5349L24.0639 30.6923C24.0245 30.2332 23.8999 29.8396 23.69 29.5116C23.4932 29.1837 23.2177 28.9279 22.8635 28.7442C22.5224 28.5605 22.1092 28.4687 21.6238 28.4687C21.0204 28.4687 20.5415 28.5999 20.1873 28.8623C19.8462 29.1246 19.6757 29.4657 19.6757 29.8855C19.6757 30.2135 19.7544 30.4824 19.9118 30.6923C20.0824 30.9022 20.3579 31.0859 20.7383 31.2433C21.1187 31.3876 21.6501 31.5253 22.3322 31.6565C23.6703 31.9058 24.7264 32.2338 25.5004 32.6404C26.2744 33.0471 26.8254 33.5259 27.1533 34.0769C27.4813 34.6279 27.6453 35.2642 27.6453 35.9857C27.6453 36.8778 27.4223 37.6518 26.9762 38.3077C26.5302 38.9505 25.8874 39.449 25.0478 39.8032C24.2213 40.1443 23.2309 40.3148 22.0764 40.3148ZM35.2274 40.3148C33.7844 40.3148 32.5381 40.0197 31.4886 39.4293C30.4523 38.839 29.6586 37.9994 29.1076 36.9106C28.5566 35.8217 28.2811 34.5295 28.2811 33.034C28.2811 31.5385 28.5566 30.2463 29.1076 29.1574C29.6586 28.0555 30.4523 27.2093 31.4886 26.619C32.5381 26.0155 33.7844 25.7138 35.2274 25.7138C36.6836 25.7138 37.9233 26.0155 38.9466 26.619C39.983 27.2093 40.7766 28.0555 41.3276 29.1574C41.8917 30.2463 42.1738 31.5385 42.1738 33.034C42.1738 34.5295 41.8917 35.8217 41.3276 36.9106C40.7766 37.9994 39.983 38.839 38.9466 39.4293C37.9233 40.0197 36.6836 40.3148 35.2274 40.3148ZM35.2274 37.5206C35.949 37.5206 36.559 37.3435 37.0575 36.9893C37.5691 36.6351 37.9627 36.1234 38.2382 35.4544C38.5137 34.7853 38.6514 33.9785 38.6514 33.034C38.6514 32.0895 38.5137 31.2827 38.2382 30.6136C37.9627 29.9314 37.5691 29.4132 37.0575 29.059C36.5459 28.6917 35.9293 28.5081 35.2078 28.5081C34.4994 28.5081 33.8893 28.6917 33.3777 29.059C32.8661 29.4132 32.4725 29.9314 32.197 30.6136C31.9347 31.2827 31.8035 32.0895 31.8035 33.034C31.8035 33.9785 31.9347 34.7853 32.197 35.4544C32.4725 36.1234 32.8661 36.6351 33.3777 36.9893C33.8893 37.3435 34.5059 37.5206 35.2274 37.5206ZM49.2595 40.3148C47.9739 40.3148 46.826 40.0262 45.8159 39.449C44.8189 38.8718 44.0318 38.0453 43.4545 36.9696C42.8904 35.8807 42.6084 34.5689 42.6084 33.034C42.6084 31.5516 42.8773 30.266 43.4152 29.1771C43.9662 28.0751 44.7467 27.2224 45.7569 26.619C46.767 26.0155 47.9542 25.7138 49.3186 25.7138C51.1945 25.7138 52.6507 26.1729 53.6871 27.0912C54.7366 28.0095 55.4122 29.328 55.7139 31.0465L52.1522 31.1843C52.0079 30.3447 51.6931 29.6887 51.2077 29.2165C50.7223 28.7442 50.0926 28.5081 49.3186 28.5081C48.6364 28.5081 48.0526 28.6983 47.5672 29.0787C47.095 29.4592 46.7342 29.9905 46.4849 30.6726C46.2488 31.3548 46.1307 32.1419 46.1307 33.034C46.1307 33.9523 46.2554 34.746 46.5046 35.415C46.767 36.0841 47.1343 36.6023 47.6066 36.9696C48.0789 37.3369 48.643 37.5206 49.2989 37.5206C50.1516 37.5206 50.8075 37.2713 51.2667 36.7728C51.739 36.2612 52.0407 35.5593 52.1719 34.6673L55.7533 34.805C55.5565 35.9726 55.1826 36.9696 54.6316 37.7961C54.0806 38.6094 53.3591 39.2326 52.4671 39.6655C51.575 40.0984 50.5058 40.3148 49.2595 40.3148ZM59.5869 40C59.5869 38.7275 59.7444 37.6452 60.0592 36.7531C60.3872 35.8479 60.9054 35.0543 61.6138 34.3721C62.3353 33.6768 63.2667 33.034 64.4081 32.4437C65.0377 32.1026 65.5363 31.814 65.9036 31.5778C66.2709 31.3417 66.5333 31.1056 66.6907 30.8694C66.8481 30.6202 66.9268 30.3381 66.9268 30.0233C66.9268 29.7347 66.8612 29.4788 66.7301 29.2558C66.5989 29.0197 66.4021 28.836 66.1397 28.7048C65.8905 28.5737 65.5822 28.5081 65.2149 28.5081C64.5983 28.5081 64.1063 28.7048 63.739 29.0984C63.3848 29.4788 63.1683 30.0364 63.0896 30.771L59.5869 30.5742C59.6919 29.0394 60.2298 27.8456 61.2005 26.9929C62.1844 26.1401 63.5094 25.7138 65.1755 25.7138C66.2775 25.7138 67.222 25.8909 68.0091 26.2451C68.7962 26.5993 69.3931 27.0978 69.7998 27.7406C70.2196 28.3834 70.4295 29.1312 70.4295 29.9839C70.4295 30.7186 70.3049 31.3351 70.0556 31.8336C69.8064 32.3321 69.4128 32.7847 68.875 33.1914C68.3502 33.5981 67.6615 34.031 66.8088 34.4902C65.733 35.0674 64.9459 35.5856 64.4474 36.0447C63.9489 36.4908 63.68 36.8778 63.6406 37.2057H70.4295V40H59.5869Z" fill="#16171B"></path><path d="M22.6952 76.0174V72.4745H23.8429L24.6712 74.8896L25.4946 72.4745H26.6423V76.0174H25.774V73.8717L25.0005 76.0074H24.3319L23.5634 73.8717V76.0174H22.6952ZM29.1131 76.0972C28.7472 76.0972 28.4311 76.0224 28.165 75.8727C27.9022 75.723 27.7009 75.51 27.5612 75.2339C27.4215 74.9578 27.3516 74.6301 27.3516 74.2509C27.3516 73.8717 27.4215 73.544 27.5612 73.2679C27.7009 72.9884 27.9022 72.7739 28.165 72.6242C28.4311 72.4711 28.7472 72.3946 29.1131 72.3946C29.4823 72.3946 29.7967 72.4711 30.0562 72.6242C30.319 72.7739 30.5203 72.9884 30.66 73.2679C30.803 73.544 30.8746 73.8717 30.8746 74.2509C30.8746 74.6301 30.803 74.9578 30.66 75.2339C30.5203 75.51 30.319 75.723 30.0562 75.8727C29.7967 76.0224 29.4823 76.0972 29.1131 76.0972ZM29.1131 75.3886C29.2961 75.3886 29.4507 75.3437 29.5772 75.2539C29.7069 75.1641 29.8067 75.0343 29.8766 74.8647C29.9464 74.695 29.9813 74.4904 29.9813 74.2509C29.9813 74.0114 29.9464 73.8068 29.8766 73.6371C29.8067 73.4641 29.7069 73.3327 29.5772 73.2429C29.4474 73.1498 29.2911 73.1032 29.1081 73.1032C28.9285 73.1032 28.7738 73.1498 28.644 73.2429C28.5143 73.3327 28.4145 73.4641 28.3446 73.6371C28.2781 73.8068 28.2448 74.0114 28.2448 74.2509C28.2448 74.4904 28.2781 74.695 28.3446 74.8647C28.4145 75.0343 28.5143 75.1641 28.644 75.2539C28.7738 75.3437 28.9301 75.3886 29.1131 75.3886ZM31.5856 76.0174V72.4745H32.4987L33.7961 74.695V72.4745H34.6644V76.0174H33.7462L32.4538 73.8916V76.0174H31.5856ZM35.5337 76.0174V72.4745H36.402V76.0174H35.5337ZM37.9646 76.0174V73.183H36.9167V72.4745H39.8858V73.183H38.8379V76.0174H37.9646ZM41.9526 76.0972C41.5867 76.0972 41.2706 76.0224 41.0045 75.8727C40.7417 75.723 40.5404 75.51 40.4007 75.2339C40.261 74.9578 40.1911 74.6301 40.1911 74.2509C40.1911 73.8717 40.261 73.544 40.4007 73.2679C40.5404 72.9884 40.7417 72.7739 41.0045 72.6242C41.2706 72.4711 41.5867 72.3946 41.9526 72.3946C42.3218 72.3946 42.6362 72.4711 42.8957 72.6242C43.1585 72.7739 43.3598 72.9884 43.4995 73.2679C43.6425 73.544 43.7141 73.8717 43.7141 74.2509C43.7141 74.6301 43.6425 74.9578 43.4995 75.2339C43.3598 75.51 43.1585 75.723 42.8957 75.8727C42.6362 76.0224 42.3218 76.0972 41.9526 76.0972ZM41.9526 75.3886C42.1356 75.3886 42.2902 75.3437 42.4167 75.2539C42.5464 75.1641 42.6462 75.0343 42.7161 74.8647C42.7859 74.695 42.8208 74.4904 42.8208 74.2509C42.8208 74.0114 42.7859 73.8068 42.7161 73.6371C42.6462 73.4641 42.5464 73.3327 42.4167 73.2429C42.2869 73.1498 42.1306 73.1032 41.9476 73.1032C41.768 73.1032 41.6133 73.1498 41.4835 73.2429C41.3538 73.3327 41.254 73.4641 41.1841 73.6371C41.1176 73.8068 41.0843 74.0114 41.0843 74.2509C41.0843 74.4904 41.1176 74.695 41.1841 74.8647C41.254 75.0343 41.3538 75.1641 41.4835 75.2539C41.6133 75.3437 41.7696 75.3886 41.9526 75.3886ZM44.4251 76.0174V72.4745H46.0468C46.3096 72.4745 46.5375 72.5177 46.7304 72.6042C46.9267 72.6907 47.0781 72.8138 47.1845 72.9735C47.291 73.1298 47.3442 73.3144 47.3442 73.5274C47.3442 73.6937 47.3109 73.8401 47.2444 73.9665C47.1779 74.0929 47.0847 74.1977 46.965 74.2808C46.8485 74.3607 46.7088 74.4139 46.5458 74.4405L46.5308 74.3906C46.7737 74.3906 46.9566 74.4422 47.0797 74.5453C47.2061 74.6484 47.276 74.8031 47.2893 75.0094L47.3741 76.0174H46.4859L46.431 75.1541C46.4211 75.021 46.3811 74.9229 46.3113 74.8597C46.2447 74.7965 46.1266 74.7649 45.957 74.7649H45.2933V76.0174H44.4251ZM45.2933 74.0563H45.9121C46.0884 74.0563 46.2231 74.018 46.3163 73.9415C46.4094 73.865 46.456 73.7569 46.456 73.6172C46.456 73.4741 46.4077 73.366 46.3113 73.2928C46.2181 73.2196 46.0817 73.183 45.9021 73.183H45.2933V74.0563ZM48.1978 76.0174V72.4745H50.7427V73.183H49.066V73.8866H50.6828V74.5952H49.066V75.3088H50.7826V76.0174H48.1978ZM51.5806 76.0174V72.4745H52.8431C53.4286 72.4745 53.8777 72.6292 54.1904 72.9385C54.5064 73.2446 54.6645 73.682 54.6645 74.2509C54.6645 74.8164 54.5098 75.2522 54.2004 75.5583C53.891 75.8643 53.4486 76.0174 52.873 76.0174H51.5806ZM52.4489 75.3088H52.8431C53.1625 75.3088 53.397 75.2223 53.5467 75.0493C53.6964 74.8763 53.7712 74.6085 53.7712 74.2459C53.7712 73.8833 53.6964 73.6155 53.5467 73.4425C53.397 73.2695 53.1625 73.183 52.8431 73.183H52.4489V75.3088ZM56.8065 76.0174V72.4745H58.2386C58.6844 72.4745 59.027 72.5526 59.2666 72.709C59.5094 72.862 59.6308 73.1049 59.6308 73.4375C59.6308 73.5839 59.6009 73.7103 59.541 73.8168C59.4845 73.9232 59.3996 74.0081 59.2865 74.0713C59.1767 74.1311 59.0403 74.1694 58.8773 74.186C59.1734 74.2093 59.398 74.2958 59.551 74.4455C59.704 74.5919 59.7805 74.7898 59.7805 75.0393C59.7805 75.372 59.6608 75.6182 59.4213 75.7778C59.1817 75.9375 58.8407 76.0174 58.3983 76.0174H56.8065ZM57.6748 75.3337H58.3484C58.5114 75.3337 58.6445 75.3005 58.7476 75.2339C58.8541 75.1674 58.9073 75.0659 58.9073 74.9295C58.9073 74.7898 58.8557 74.6867 58.7526 74.6202C58.6495 74.5503 58.5147 74.5154 58.3484 74.5154H57.6748V75.3337ZM57.6748 73.9166H58.2087C58.3717 73.9166 58.5031 73.885 58.6029 73.8218C58.706 73.7586 58.7576 73.6637 58.7576 73.5373C58.7576 73.4043 58.7077 73.3078 58.6079 73.2479C58.5081 73.188 58.375 73.1581 58.2087 73.1581H57.6748V73.9166ZM61.1692 76.0174V74.6651L59.9417 72.4745H60.8898L61.6084 73.8268L62.3119 72.4745H63.26L62.0425 74.6651V76.0174H61.1692ZM34.6179 81.0972C34.2919 81.0972 34.0008 81.024 33.7446 80.8776C33.4918 80.7313 33.2922 80.5217 33.1458 80.2489C33.0028 79.9728 32.9313 79.6401 32.9313 79.2509C32.9313 78.875 32.9994 78.549 33.1358 78.2729C33.2756 77.9934 33.4735 77.7772 33.7297 77.6242C33.9858 77.4711 34.2869 77.3946 34.6328 77.3946C35.1086 77.3946 35.4778 77.5111 35.7406 77.7439C36.0068 77.9768 36.1781 78.3111 36.2546 78.7469L35.3514 78.7818C35.3148 78.5689 35.235 78.4026 35.1119 78.2828C34.9888 78.1631 34.8291 78.1032 34.6328 78.1032C34.4599 78.1032 34.3118 78.1514 34.1887 78.2479C34.069 78.3444 33.9775 78.4791 33.9143 78.6521C33.8544 78.8251 33.8245 79.0247 33.8245 79.2509C33.8245 79.4838 33.8561 79.685 33.9193 79.8547C33.9858 80.0244 34.079 80.1558 34.1987 80.2489C34.3185 80.3421 34.4615 80.3886 34.6279 80.3886C34.8441 80.3886 35.0104 80.3254 35.1269 80.199C35.2466 80.0693 35.3231 79.8913 35.3564 79.6651L36.2646 79.7C36.2147 79.9961 36.1199 80.2489 35.9801 80.4585C35.8404 80.6647 35.6575 80.8228 35.4312 80.9325C35.205 81.0423 34.9339 81.0972 34.6179 81.0972ZM38.6604 81.0972C38.2944 81.0972 37.9784 81.0224 37.7123 80.8727C37.4495 80.723 37.2482 80.51 37.1085 80.2339C36.9687 79.9578 36.8989 79.6301 36.8989 79.2509C36.8989 78.8717 36.9687 78.544 37.1085 78.2679C37.2482 77.9884 37.4495 77.7739 37.7123 77.6242C37.9784 77.4711 38.2944 77.3946 38.6604 77.3946C39.0296 77.3946 39.344 77.4711 39.6035 77.6242C39.8663 77.7739 40.0675 77.9884 40.2073 78.2679C40.3503 78.544 40.4218 78.8717 40.4218 79.2509C40.4218 79.6301 40.3503 79.9578 40.2073 80.2339C40.0675 80.51 39.8663 80.723 39.6035 80.8727C39.344 81.0224 39.0296 81.0972 38.6604 81.0972ZM38.6604 80.3886C38.8433 80.3886 38.998 80.3437 39.1244 80.2539C39.2542 80.1641 39.354 80.0343 39.4238 79.8647C39.4937 79.695 39.5286 79.4904 39.5286 79.2509C39.5286 79.0114 39.4937 78.8068 39.4238 78.6371C39.354 78.4641 39.2542 78.3327 39.1244 78.2429C38.9947 78.1498 38.8383 78.1032 38.6554 78.1032C38.4757 78.1032 38.321 78.1498 38.1913 78.2429C38.0616 78.3327 37.9618 78.4641 37.8919 78.6371C37.8254 78.8068 37.7921 79.0114 37.7921 79.2509C37.7921 79.4904 37.8254 79.695 37.8919 79.8647C37.9618 80.0343 38.0616 80.1641 38.1913 80.2539C38.321 80.3437 38.4774 80.3886 38.6604 80.3886ZM41.1328 81.0174V77.4745H42.2805L43.1089 79.8896L43.9322 77.4745H45.0799V81.0174H44.2117V78.8717L43.4382 81.0074H42.7695L42.0011 78.8717V81.0174H41.1328ZM45.9484 81.0174V77.4745H47.4154C47.8512 77.4745 48.1922 77.5809 48.4384 77.7938C48.6879 78.0034 48.8126 78.2912 48.8126 78.6571C48.8126 78.8999 48.7561 79.1112 48.643 79.2908C48.5332 79.4671 48.3735 79.6035 48.1639 79.7C47.9543 79.7965 47.7048 79.8447 47.4154 79.8447H46.8166V81.0174H45.9484ZM46.8166 79.1311H47.3555C47.5319 79.1311 47.6699 79.0912 47.7697 79.0114C47.8728 78.9315 47.9244 78.8134 47.9244 78.6571C47.9244 78.5041 47.8745 78.3876 47.7747 78.3078C47.6749 78.2246 47.5352 78.183 47.3555 78.183H46.8166V79.1311ZM48.8966 81.0174L50.174 77.4745H51.182L52.4594 81.0174H51.5662L51.3367 80.3487H50.0193L49.7848 81.0174H48.8966ZM50.2538 79.6601H51.1021L50.683 78.4126L50.2538 79.6601ZM53.0016 81.0174V77.4745H53.8699V81.0174H53.0016Z" fill="#16171B"></path><path d="M23.9903 64.0215C23.5014 64.0215 23.0654 63.9106 22.6824 63.6889C22.3044 63.4671 22.007 63.1471 21.7903 62.7288C21.5786 62.3104 21.4728 61.809 21.4728 61.2243C21.4728 60.6548 21.5761 60.1609 21.7827 59.7426C21.9894 59.3192 22.2842 58.9916 22.6673 58.7598C23.0503 58.5279 23.4989 58.412 24.0129 58.412C24.7135 58.412 25.2578 58.5859 25.6459 58.9336C26.039 59.2764 26.291 59.7678 26.4019 60.4078L25.2074 60.4532C25.1469 60.1155 25.0159 59.8534 24.8143 59.667C24.6127 59.4754 24.3456 59.3797 24.0129 59.3797C23.7257 59.3797 23.4812 59.4553 23.2796 59.6065C23.078 59.7577 22.9243 59.9719 22.8185 60.2491C22.7126 60.5263 22.6597 60.8514 22.6597 61.2243C22.6597 61.6023 22.7126 61.9299 22.8185 62.2071C22.9293 62.4793 23.0856 62.6884 23.2872 62.8346C23.4888 62.9808 23.7282 63.0538 24.0054 63.0538C24.3683 63.0538 24.648 62.953 24.8445 62.7514C25.0461 62.5448 25.1721 62.26 25.2225 61.8972L26.4246 61.9425C26.354 62.381 26.2154 62.754 26.0088 63.0614C25.8021 63.3688 25.53 63.6057 25.1923 63.772C24.8597 63.9384 24.459 64.0215 23.9903 64.0215ZM27.934 63.9006V58.533H31.6686V59.5006H29.0831V60.7329H31.5779V61.6855H29.0831V62.9329H31.7291V63.9006H27.934ZM33.3707 63.9006V58.533H35.7218C36.115 58.533 36.4552 58.5985 36.7424 58.7295C37.0348 58.8606 37.259 59.047 37.4153 59.289C37.5715 59.5258 37.6496 59.8081 37.6496 60.1357C37.6496 60.3826 37.5967 60.6019 37.4909 60.7934C37.3901 60.9849 37.249 61.1412 37.0675 61.2621C36.8911 61.3831 36.687 61.4587 36.4552 61.4889L36.4325 61.4209C36.7903 61.4209 37.0625 61.499 37.249 61.6552C37.4354 61.8064 37.5413 62.0408 37.5665 62.3583L37.7026 63.9006H36.5308L36.4325 62.5398C36.4174 62.3331 36.3518 62.1819 36.2359 62.0862C36.125 61.9854 35.9335 61.935 35.6614 61.935H34.5198V63.9006H33.3707ZM34.5198 60.9748H35.5933C35.8705 60.9748 36.0847 60.9118 36.2359 60.7858C36.3922 60.6548 36.4703 60.4708 36.4703 60.234C36.4703 59.992 36.3922 59.8106 36.2359 59.6896C36.0797 59.5636 35.8529 59.5006 35.5555 59.5006H34.5198V60.9748ZM40.3916 63.9006V59.5006H38.7888V58.533H43.1585V59.5006H41.5482V63.9006H40.3916ZM44.4065 63.9006V58.533H45.5556V63.9006H44.4065ZM47.3257 63.9006V58.533H51.0301V59.5006H47.8398L48.4748 58.8429V61.2999L47.8398 60.801H50.894V61.7535H47.8398L48.4748 61.2546V63.9006H47.3257ZM52.5409 63.9006V58.533H53.69V63.9006H52.5409ZM55.4601 63.9006V58.533H59.1947V59.5006H56.6092V60.7329H59.104V61.6855H56.6092V62.9329H59.2552V63.9006H55.4601ZM60.8968 63.9006V58.533H62.749C63.6209 58.533 64.2912 58.7673 64.7599 59.236C65.2286 59.6997 65.463 60.3625 65.463 61.2243C65.463 62.0811 65.2312 62.7414 64.7675 63.205C64.3088 63.6687 63.6511 63.9006 62.7943 63.9006H60.8968ZM62.0459 62.9329H62.749C63.2681 62.9329 63.6511 62.7943 63.8981 62.5171C64.1501 62.2348 64.2761 61.8014 64.2761 61.2168C64.2761 60.6321 64.1501 60.2012 63.8981 59.924C63.6511 59.6418 63.2681 59.5006 62.749 59.5006H62.0459V62.9329Z" fill="white"></path><path d="M30.3478 50V45.0206H28.534V43.9255H33.4792V45.0206H31.6568V50H30.3478ZM36.5457 50V47.6386L34.4325 43.9255H35.8698L37.1959 46.3724L38.5135 43.9255H39.9508L37.8462 47.6386V50H36.5457ZM41.2113 50V43.9255H43.6411C44.3712 43.9255 44.9416 44.1023 45.3523 44.4559C45.7686 44.8096 45.9768 45.2944 45.9768 45.9104C45.9768 46.3154 45.8827 46.669 45.6945 46.9713C45.512 47.2679 45.2439 47.4989 44.8903 47.6643C44.5423 47.824 44.126 47.9039 43.6411 47.9039H42.5118V50H41.2113ZM42.5118 46.8087H43.5641C43.9064 46.8087 44.1716 46.7346 44.3598 46.5863C44.548 46.4323 44.6421 46.207 44.6421 45.9104C44.6421 45.6195 44.548 45.3999 44.3598 45.2516C44.1773 45.0976 43.9121 45.0206 43.5641 45.0206H42.5118V46.8087ZM47.6481 50V43.9255H51.8746V45.0206H48.9486V46.4152H51.7719V47.4932H48.9486V48.9049H51.9431V50H47.6481ZM56.6282 50V43.9255H57.9287V50H56.6282Z" fill="#16171B"></path><path d="M32.5114 2.3528L31.1212 2.25007V1.71113H35.8268V5.4837H34.5884C34.5884 5.66334 34.4365 5.57296 34.4365 4.06393C34.4365 2.5549 33.2544 2.3528 32.5114 2.3528Z" fill="#16171B" stroke="#16171B" stroke-width="0.427782"></path><path d="M54.6488 2.35261L56.0391 2.24988V1.71094H51.3335V5.4835L52.189 5.56098C52.189 5.74062 52.4029 5.34709 52.4029 4.06374C52.4029 2.55471 53.9058 2.35261 54.6488 2.35261Z" fill="#16171B" stroke="#16171B" stroke-width="0.427782"></path></g><defs><clipPath id="clip0_495_3106"><rect width="87" height="96" fill="white"></rect></clipPath></defs></svg>
