<?xml version="1.0" encoding="UTF-8" standalone="no"?>
<svg
   version="1.1"
   width="1365.333"
   height="1365.333"
   id="svg3"
   sodipodi:docname="final.svg"
   xml:space="preserve"
   inkscape:version="1.4 (e7c3feb1, 2024-10-09)"
   xmlns:inkscape="http://www.inkscape.org/namespaces/inkscape"
   xmlns:sodipodi="http://sodipodi.sourceforge.net/DTD/sodipodi-0.dtd"
   xmlns="http://www.w3.org/2000/svg"
   xmlns:svg="http://www.w3.org/2000/svg"><defs
     id="defs3" /><sodipodi:namedview
     id="namedview3"
     pagecolor="#ffffff"
     bordercolor="#000000"
     borderopacity="0.25"
     inkscape:showpageshadow="2"
     inkscape:pageopacity="0.0"
     inkscape:pagecheckerboard="0"
     inkscape:deskcolor="#d1d1d1"
     inkscape:zoom="0.3414167"
     inkscape:cx="588.72341"
     inkscape:cy="868.44025"
     inkscape:window-width="1728"
     inkscape:window-height="990"
     inkscape:window-x="0"
     inkscape:window-y="511"
     inkscape:window-maximized="1"
     inkscape:current-layer="svg2" /><svg
     version="1.0"
     width="1365.333"
     height="1365.333"
     viewBox="0 0 1024 1024"
     id="svg2"><rect
       width="1024"
       height="1024"
       fill="#001827"
       id="rect1" /><path
       fill="#fff"
       d="M264.2 265.3 17 512.5 264.5 760 512 1007.5 759.5 760 1007 512.5 759.8 265.3C623.8 129.3 512.3 18 512 18c-.3 0-111.8 111.3-247.8 247.3zm438.5 55.9C807.4 425.9 893 511.9 893 512.5c0 .5-85.7 86.7-190.5 191.5L512 894.5l-191-191-191-191 190.7-190.7c105-105 191-190.8 191.3-190.8.3 0 86.1 85.6 190.7 190.2z"
       id="path1" /><g
       style="fill:none;stroke:currentColor;stroke-width:1.5"
       id="g3"
       transform="matrix(18.664501,0,0,18.664501,315.45271,307.03134)"><path
         stroke-linecap="round"
         stroke-linejoin="round"
         d="m 10.530543,1.6527254 c -2.2642669,2.1502338 -5.2797398,3.3295773 -8.4020002,3.286 -0.3971648,1.209979 -0.599028,2.4755056 -0.598,3.749 0,5.5919996 3.824,10.2899996 9.0000002,11.6229996 5.176,-1.332 9,-6.03 9,-11.6219996 0,-1.31 -0.21,-2.571 -0.598,-3.751 h -0.152 c -3.196,0 -6.1,-1.248 -8.25,-3.285 z"
         id="path1-2"
         sodipodi:nodetypes="ccccscsc"
         style="fill:none;fill-opacity:1;stroke:#ffffff;stroke-opacity:1" /><g
         style="fill:none;fill-opacity:1;stroke:#ffffff;stroke-width:1.5;stroke-opacity:1"
         id="g1"
         transform="matrix(0.47470942,0,0,0.47470942,4.8340298,5.2422081)"><path
           stroke-linecap="round"
           stroke-linejoin="round"
           d="m 15.75,6 a 3.75,3.75 0 1 1 -7.5,0 3.75,3.75 0 0 1 7.5,0 z M 4.501,20.118 a 7.5,7.5 0 0 1 14.998,0 A 17.933,17.933 0 0 1 12,21.75 c -2.676,0 -5.216,-0.584 -7.499,-1.632 z"
           id="path1-3"
           style="fill:none;fill-opacity:1;stroke:#ffffff;stroke-opacity:1" /></g></g></svg></svg>
