<svg xmlns="http://www.w3.org/2000/svg" xmlns:xlink="http://www.w3.org/1999/xlink" width="544" height="640" fill="none" viewBox="0 0 544 640">
  <mask id="a" width="544" height="640" x="0" y="0" maskUnits="userSpaceOnUse" style="mask-type:alpha">
    <rect width="544" height="640" fill="#F6F8FC" rx="32"/>
  </mask>
  <g mask="url(#a)">
    <rect width="544" height="640" fill="#F6F8FC" rx="32"/>
    <path fill="#DEE3EA" d="M271 0h2v130h-2z"/>
    <circle cx="272" r="12" style="fill:#1bd2d9;translate:none;rotate:none;scale:none" data-svg-origin="260 -12" transform="translate(0 66.524)"/>
    <circle cx="272" r="12" style="fill:#f24c7f;translate:none;rotate:none;scale:none" data-svg-origin="260 -12" transform="translate(0 -25.476)"/>
    <circle cx="272" r="12" style="fill:#ffd75a;translate:none;rotate:none;scale:none" data-svg-origin="260 -12" transform="translate(0 -117.476)"/>
    <path fill="url(#b)" d="M0 0h454v739H0z" opacity=".5" transform="matrix(-1 0 0 1 536 85)"/>
    <g filter="url(#c)">
      <rect width="302" height="620" x="121" y="128" fill="#fff" rx="40"/>
    </g>
    <mask id="d" width="284" height="603" x="130" y="137" maskUnits="userSpaceOnUse" style="mask-type:alpha">
      <path fill="#597EFF" d="M130 169c0-17.673 14.327-32 32-32h38.061a5.926 5.926 0 0 1 5.925 5.926c0 6.544 5.306 11.85 11.851 11.85h108.326c6.545 0 11.851-5.306 11.851-11.85a5.926 5.926 0 0 1 5.925-5.926H382c17.673 0 32 14.327 32 32v538c0 17.673-14.327 32-32 32H162c-17.673 0-32-14.327-32-32V169z"/>
    </mask>
    <g mask="url(#d)">
      <path fill="#FFD75A" d="M124 128h298v563H124z" style="fill:#3c67ff"/>
      <circle cx="272" cy="140" r="10" fill="#3B66FF" style="fill:#1bd2d9;r:10px"/>
    </g>
  </g>
</svg>
