<svg xmlns="http://www.w3.org/2000/svg" xmlns:xlink="http://www.w3.org/1999/xlink" width="544" height="640" fill="none" viewBox="0 0 544 640">
  <mask id="a" width="544" height="640" x="0" y="0" maskUnits="userSpaceOnUse" style="mask-type:alpha">
    <rect width="544" height="640" fill="#F6F8FC" rx="32"/>
  </mask>
  <g mask="url(#a)">
    <rect width="544" height="640" fill="#F6F8FC" rx="32"/>
    <path fill="#E6EBFF" fill-rule="evenodd" d="m493.006 642.645-128.131-33.676c-11.934-2.641-27.917.435-35.345 5.388L36.744 812.196c-6.187 6.06-3.285 13.052 6.483 15.617L185.46 864.74c9.767 2.565 20.203-.765 28.888-6.329l285.238-199.4c12.355-8.978 8.353-12.295-6.58-16.366z" clip-rule="evenodd" style="translate:none;rotate:none;scale:none;transform-origin:0 0;fill:#f6f8ff" data-svg-origin="33.491695404052734 608.0001220703125" transform="translate(0 141)"/>
    <path fill="#CED9FF" fill-rule="evenodd" d="m493.006 501.645-128.131-33.676c-11.934-2.641-27.917.435-35.345 5.388L36.744 671.196c-6.187 6.06-3.285 13.052 6.483 15.617L185.46 723.74c9.767 2.565 20.203-.765 28.888-6.329l285.238-199.4c12.355-8.978 8.353-12.295-6.58-16.366z" clip-rule="evenodd" style="translate:none;rotate:none;scale:none;transform-origin:0 0;fill:#e5ebff" data-svg-origin="33.491695404052734 467.0000915527344" transform="translate(0 141)"/>
    <path fill="#8AA4FF" fill-rule="evenodd" d="m493.006 360.645-128.131-33.676c-11.934-2.641-27.917.435-35.345 5.388L36.744 530.196c-6.187 6.06-3.285 13.052 6.483 15.617L185.46 582.74c9.767 2.565 20.203-.765 28.888-6.329l285.238-199.4c12.355-8.978 8.353-12.295-6.58-16.366z" clip-rule="evenodd" style="translate:none;rotate:none;scale:none;transform-origin:0 0;fill:#ced9ff" data-svg-origin="33.491695404052734 326.0000915527344" transform="translate(0 141)"/>
    <path fill="#3C67FF" fill-rule="evenodd" d="m493.006 219.645-128.131-33.676c-11.934-2.641-27.917.435-35.345 5.388L36.744 389.196c-6.187 6.06-3.285 13.052 6.483 15.617L185.46 441.74c9.767 2.565 20.203-.765 28.888-6.329l285.238-199.4c12.355-8.978 8.353-12.295-6.58-16.366z" clip-rule="evenodd" style="translate:none;rotate:none;scale:none;transform-origin:0 0;fill:#8aa4ff" data-svg-origin="33.491695404052734 185.00010681152344" transform="translate(0 141)"/>
    <g filter="url(#b)">
      <path fill="#fff" fill-rule="evenodd" d="m503.665 217.552-128.741-32.858c-18.526-4.704-35.938-3.045-50.891 6.286L35.066 386.629c-17.577 10.905-14.843 34.128 4.004 39.475l133.615 37.145c17.932 4.595 35.947 5.512 55.957-7.582l279.602-197.14c20.516-14.284 11.755-36.475-4.579-40.975z" clip-rule="evenodd"/>
    </g>
    <g filter="url(#c)">
      <path fill="url(#d)" fill-rule="evenodd" d="m503.618 218.05-128.736-32.981c-18.526-4.705-34.673-3.607-49.626 5.724L34.501 387.599c-15.52 11.476.875 18.433 5.04 19.691l134.09 37.045c17.828 4.713 34.822 3.695 54.107-9.9l277.8-196.218c10.358-8.199 9.405-16.542-1.92-20.167z" clip-rule="evenodd"/>
    </g>
    <path fill="url(#e)" stroke="url(#f)" stroke-width=".5" d="M437.191 208.3h-.001l-27.898-7.399a3.64 3.64 0 0 0-1.61-.048c-.508.099-.986.311-1.289.642-.166.181-.27.383-.3.598a.962.962 0 0 0 .121.613c.207.369.635.646 1.173.79h.001l27.897 7.4h.001a3.65 3.65 0 0 0 1.609.048c.508-.1.987-.312 1.29-.643.166-.18.27-.383.3-.598a.963.963 0 0 0-.122-.613c-.207-.368-.634-.646-1.172-.79z"/>
    <mask id="g" width="34" height="12" x="405" y="200" maskUnits="userSpaceOnUse" style="mask-type:alpha">
      <path fill="#fff" stroke="#fff" stroke-width=".5" d="M437.191 208.3h-.001l-27.898-7.399a3.64 3.64 0 0 0-1.61-.048c-.508.099-.986.311-1.289.642-.166.181-.27.383-.3.598a.962.962 0 0 0 .121.613c.207.369.635.646 1.173.79h.001l27.897 7.4h.001a3.65 3.65 0 0 0 1.609.048c.508-.1.987-.312 1.29-.643.166-.18.27-.383.3-.598a.963.963 0 0 0-.122-.613c-.207-.368-.634-.646-1.172-.79z"/>
    </mask>
    <g mask="url(#g)">
      <g filter="url(#h)">
        <path fill="#F1F1F1" d="M437.2 209.117c1.001.268 1.426.99.875 1.59-.509.555-1.684.781-2.651.522l-27.898-7.4c-1.001-.268-1.426-.99-.875-1.59.509-.555 1.684-.781 2.651-.522l27.898 7.4z"/>
        <path fill="url(#i)" fill-opacity=".2" d="M437.2 209.117c1.001.268 1.426.99.875 1.59-.509.555-1.684.781-2.651.522l-27.898-7.4c-1.001-.268-1.426-.99-.875-1.59.509-.555 1.684-.781 2.651-.522l27.898 7.4z"/>
        <path fill="url(#j)" d="M437.2 209.117c1.001.268 1.426.99.875 1.59-.509.555-1.684.781-2.651.522l-27.898-7.4c-1.001-.268-1.426-.99-.875-1.59.509-.555 1.684-.781 2.651-.522l27.898 7.4z" style="mix-blend-mode:screen"/>
      </g>
      <path fill="#F1F1F4" d="m394.65 168.345 142.784-18.443 14.088 109.07-142.784 18.444z"/>
    </g>
    <g filter="url(#k)">
      <path fill="#E2E3E8" fill-rule="evenodd" d="M448.636 211.455c2.248-.415 4.254.093 4.479 1.134.225 1.042-1.416 2.222-3.664 2.636-2.249.415-4.255-.093-4.48-1.134-.225-1.042 1.416-2.222 3.665-2.636z" clip-rule="evenodd"/>
    </g>
    <mask id="l" width="10" height="5" x="444" y="211" maskUnits="userSpaceOnUse" style="mask-type:alpha">
      <path fill="#fff" fill-rule="evenodd" d="M448.636 211.455c2.248-.415 4.254.093 4.479 1.134.225 1.042-1.416 2.222-3.664 2.636-2.249.415-4.255-.093-4.48-1.134-.225-1.042 1.416-2.222 3.665-2.636z" clip-rule="evenodd"/>
    </mask>
    <g mask="url(#l)">
      <g filter="url(#m)">
        <path fill="url(#n)" fill-rule="evenodd" d="M448.799 213.102c1.33-.247 2.539.179 2.701.95.162.772-.785 1.598-2.115 1.844-1.33.247-2.539-.179-2.701-.951-.162-.771.785-1.597 2.115-1.843z" clip-rule="evenodd"/>
      </g>
      <path fill="#F1F1F4" d="m428.971 191.002 62.468-8.069 6.916 53.544-62.468 8.07z"/>
    </g>
    <path fill="#3C67FF" fill-rule="evenodd" d="m493.006 219.645-128.131-33.676c-11.934-2.641-27.917.435-35.345 5.388L36.744 389.196c-6.187 6.06-3.285 13.052 6.483 15.617L185.46 441.74c9.767 2.565 20.203-.765 28.888-6.329l285.238-199.4c12.355-8.978 8.353-12.295-6.58-16.366z" clip-rule="evenodd" style="fill:#1d2233"/>
    <path fill="#8AA4FF" fill-rule="evenodd" d="M493.006 78.645 364.875 44.969c-11.934-2.641-27.917.435-35.345 5.388L36.744 248.196c-6.187 6.06-3.285 13.052 6.483 15.617L185.46 300.74c9.767 2.565 20.203-.765 28.888-6.329l285.238-199.4c12.355-8.978 8.353-12.295-6.58-16.366z" clip-rule="evenodd" style="translate:none;rotate:none;scale:none;transform-origin:0 0;fill:#3c67ff" data-svg-origin="33.491695404052734 44.0001106262207" transform="translate(0 141)"/>
    <path fill="#CED9FF" fill-rule="evenodd" d="M493.006-62.355 364.875-96.031c-11.934-2.641-27.917.435-35.345 5.388L36.744 107.196c-6.187 6.06-3.285 13.052 6.483 15.617L185.46 159.74c9.767 2.565 20.203-.765 28.888-6.329l285.238-199.4c12.355-8.978 8.353-12.295-6.58-16.366z" clip-rule="evenodd" style="translate:none;rotate:none;scale:none;transform-origin:0 0;fill:#8aa4ff" data-svg-origin="33.491695404052734 -96.99989318847656" transform="translate(0 141)"/>
    <path fill="#E6EBFF" fill-rule="evenodd" d="m493.006-203.355-128.131-33.676c-11.934-2.641-27.917.435-35.345 5.388L36.744-33.804c-6.187 6.06-3.285 13.052 6.483 15.617L185.46 18.74c9.767 2.565 20.203-.765 28.888-6.33l285.238-199.399c12.355-8.978 8.353-12.295-6.58-16.366z" clip-rule="evenodd" style="translate:none;rotate:none;scale:none;transform-origin:0 0;fill:#ced9ff" data-svg-origin="33.491695404052734 -237.99989318847656" transform="translate(0 141)"/>
    <path class="extra-screen" fill="#F6F8FF" fill-rule="evenodd" d="m493.006-344.355-128.131-33.676c-11.934-2.641-27.917.435-35.345 5.388L36.744-174.804c-6.187 6.06-3.285 13.052 6.483 15.617L185.46-122.26c9.767 2.565 20.203-.765 28.888-6.33l285.238-199.399c12.355-8.978 8.353-12.295-6.58-16.366z" clip-rule="evenodd" style="translate:none;rotate:none;scale:none;transform-origin:0 0;fill:#e5ebff" data-svg-origin="33.491695404052734 -378.9999084472656" transform="translate(0 141)"/>
  </g>
</svg>
